<svg id="Layer_1" data-name="Layer 1" xmlns="http://www.w3.org/2000/svg" viewBox="0 0 42.52 42.52"><defs><style>.cls-1{fill:#b3b2b3;}.cls-2{fill:#a41e22;}.cls-3{fill:#da2126;}.cls-4{fill:#f3f2f2;}</style></defs><title>Artboard 14</title><path class="cls-1" d="M21.2,0l-20,7L4.35,33.25l16.87,9.27,17-9.4,3.16-26.2Z"/><path class="cls-2" d="M39.33,8.43,21.15,2.23V40.31l15.24-8.44L39.33,8.43Z"/><path class="cls-3" d="M3.44,8.54,6.14,32l15,8.33V2.23L3.44,8.54Z"/><path class="cls-4" d="M26.15,22.5l-5,2.34H15.87L13.39,31l-4.61.09L21.15,3.61l5,18.89Zm-.48-1.18-4.49-8.89L17.5,21.17h3.65l4.52.15Z"/><path class="cls-1" d="M21.15,3.61l0,8.82,4.18,8.74h-4.2v3.66H27l2.71,6.29,4.42.08L21.15,3.61Z"/></svg>