<svg id="Layer_1" data-name="Layer 1" xmlns="http://www.w3.org/2000/svg" xmlns:xlink="http://www.w3.org/1999/xlink" viewBox="0 0 42.52 42.52"><defs><style>.cls-1{fill:#1f62ae;}.cls-2{fill:#3c9bd5;}.cls-10,.cls-3{fill:#231f20;}.cls-4{fill:#fff;}.cls-5{fill:url(#linear-gradient);}.cls-6{fill:url(#linear-gradient-2);}.cls-7{fill:url(#linear-gradient-3);}.cls-10,.cls-8{opacity:0.05;}.cls-9{fill:url(#linear-gradient-4);}</style><linearGradient id="linear-gradient" x1="21.43" y1="341.61" x2="21.43" y2="339.84" gradientTransform="translate(-71.78 -1386.48) scale(4.13)" gradientUnits="userSpaceOnUse"><stop offset="0.39" stop-color="#d0d2d3" stop-opacity="0"/><stop offset="1" stop-color="#d0d2d3"/></linearGradient><linearGradient id="linear-gradient-2" x1="23.64" y1="340.73" x2="23.64" y2="338.89" xlink:href="#linear-gradient"/><linearGradient id="linear-gradient-3" x1="20.37" y1="342.4" x2="24.62" y2="342.4" gradientTransform="translate(-71.78 -1386.48) scale(4.13)" gradientUnits="userSpaceOnUse"><stop offset="0" stop-color="#e7e6e5"/><stop offset="1" stop-color="#fff"/></linearGradient><linearGradient id="linear-gradient-4" x1="20.17" y1="339.34" x2="24.79" y2="339.34" xlink:href="#linear-gradient-3"/></defs><title>Artboard 8</title><polygon class="cls-1" points="33.59 39.2 21.26 42.52 8.93 39.2 6.08 8.37 36.44 8.37 33.59 39.2"/><polygon class="cls-2" points="21.26 10.87 21.26 39.87 21.29 39.88 31.27 37.19 33.57 10.87 21.26 10.87"/><polygon class="cls-3" points="14.26 3.84 14.26 2.01 16.94 2.01 16.94 0 12.25 0 12.25 5.67 16.94 5.67 16.94 3.84 14.26 3.84"/><path class="cls-3" d="M21.75,2h1.88V0H18.94V2c.63.62.95.92,1.86,1.83H18.94V5.67h4.69V3.84Z"/><path class="cls-3" d="M28.39,2h1.88V0H25.58V2c.63.62,1,.92,1.86,1.83H25.58V5.67h4.69V3.84Z"/><polygon class="cls-4" points="21.25 18.58 12.42 22.25 12.72 25.89 21.25 22.24 30.32 18.36 30.7 14.64 21.25 18.58"/><polygon class="cls-5" points="12.42 22.25 12.72 25.89 21.25 22.24 21.25 18.58 12.42 22.25"/><polygon class="cls-6" points="30.7 14.64 21.25 18.58 21.25 22.24 30.32 18.36 30.7 14.64"/><polygon class="cls-7" points="12.44 22.25 12.73 25.89 25.82 25.93 25.53 30.79 21.22 32 17.08 30.95 16.83 27.94 12.98 27.94 13.48 33.76 21.26 36.06 29 33.8 30 22.25 12.44 22.25"/><g class="cls-8"><polygon class="cls-3" points="21.25 22.25 12.42 22.25 12.72 25.89 21.25 25.92 21.25 22.25"/><polygon class="cls-3" points="21.25 31.99 21.21 32 17.07 30.95 16.82 27.94 12.97 27.94 13.47 33.76 21.25 36.06 21.25 31.99"/></g><polygon class="cls-9" points="11.63 14.64 30.7 14.64 30.32 18.36 12.09 18.36 11.63 14.64"/><polygon class="cls-10" points="21.25 14.64 11.63 14.64 12.09 18.36 21.25 18.36 21.25 14.64"/></svg>