<svg id="Layer_1" data-name="Layer 1" xmlns="http://www.w3.org/2000/svg" viewBox="0 0 42.52 42.52"><defs><style>.cls-1{fill:#e95a33;}.cls-2{fill:#f26f36;}.cls-3{fill:#e3e4e3;}.cls-4{fill:#fff;}</style></defs><title>Artboard 7</title><polygon class="cls-1" points="8.94 39.1 6.2 8.36 36.32 8.36 33.58 39.1 21.24 42.52 8.94 39.1"/><polygon class="cls-2" points="21.26 39.91 31.23 37.14 33.57 10.87 21.26 10.87 21.26 39.91"/><polygon class="cls-3" points="21.26 22.27 16.27 22.27 15.93 18.41 21.26 18.41 21.26 14.64 21.25 14.64 11.8 14.64 11.89 15.65 12.82 26.05 21.26 26.05 21.26 22.27"/><polygon class="cls-3" points="21.26 32.07 21.24 32.07 17.04 30.94 16.77 27.93 14.73 27.93 12.99 27.93 13.52 33.85 21.24 36 21.26 35.99 21.26 32.07"/><path d="M9,0h1.92V1.89h1.75V0h1.92V5.73H12.67V3.81H10.92V5.73H9V0Z"/><path d="M17.11,1.9H15.42V0h5.29V1.9H19V5.73H17.11V1.9Z"/><path d="M21.55,0h2l1.23,2L26,0h2V5.73H26.1V2.89l-1.32,2h0l-1.32-2V5.73H21.55Z"/><path d="M29,0h1.92V3.84h2.69V5.73H29Z"/><polygon class="cls-4" points="21.25 22.27 21.25 26.05 25.89 26.05 25.45 30.94 21.25 32.07 21.25 35.99 28.98 33.85 29.03 33.22 29.92 23.29 30.01 22.27 29 22.27 21.25 22.27"/><polygon class="cls-4" points="21.25 14.64 21.25 16.98 21.25 18.4 21.25 18.41 30.34 18.41 30.34 18.41 30.36 18.41 30.43 17.57 30.6 15.65 30.69 14.64 21.25 14.64"/></svg>