<svg id="Layer_1" data-name="Layer 1" xmlns="http://www.w3.org/2000/svg" viewBox="0 0 42.52 42.52"><defs><style>.cls-1{fill:#e5a229;}.cls-2{fill:#f1be21;}.cls-3{fill:#fff;}.cls-4{fill:#ebeaea;}.cls-5{fill:#231f20;}</style></defs><title>Artboard 13</title><polygon class="cls-1" points="36.36 8.33 21.26 8.33 21.26 8.33 6.16 8.33 8.99 39.04 21.26 42.52 21.26 42.52 21.26 42.52 21.26 42.52 21.26 42.52 33.53 39.04 36.36 8.33"/><polygon class="cls-2" points="21.26 10.84 21.26 39.92 21.26 39.92 31.2 37.1 33.62 10.84 21.26 10.84"/><polygon class="cls-3" points="29.17 14.6 13.88 14.6 12.82 26.1 12.84 26.03 25.82 26.03 25.4 30.89 21.26 32.09 17.05 30.87 16.8 27.93 12.98 27.93 13.53 33.81 21.26 36.01 28.99 33.81 30.05 22.27 16.27 22.27 16.45 18.42 26.01 18.42 26.16 20.62 30.01 20.62 29.17 14.6"/><path class="cls-4" d="M21.26,14.6H13.88L12.82,26.1l0-.07h8.42V22.27H16.81L17,18.42h4.28ZM16.8,27.93H13l.55,5.88L21.26,36V32.09l-4.21-1.22Z"/><polygon class="cls-5" points="18.32 3.8 15.63 3.8 15.63 5.73 18.32 5.73 19.76 5.73 20.25 5.73 20.25 0 18.32 0 18.32 3.8"/><path class="cls-5" d="M26.89,0H22.2V2c.63.62.95.92,1.86,1.83H22.2V5.7h4.69V3.87L25,2h1.88Z"/></svg>