<svg id="Layer_1" data-name="Layer 1" xmlns="http://www.w3.org/2000/svg" viewBox="0 0 42.52 42.52"><defs><style>.cls-1{fill:#116baf;}</style></defs><title>Artboard 11</title><path class="cls-1" d="M4.59,8c-.11,0,.87-1.5.76-1.5-7.12,6.89-6.5,16.11-3.08,22.74a25.72,25.72,0,0,0,12,11.29,24.39,24.39,0,0,0,10,2c8.28-.18,14.08-4.09,17.35-10.46l.19-.5a20.18,20.18,0,0,1-11.29,5.31C15.07,38.44-.73,24.68,4.4,8.63Z"/><path class="cls-1" d="M42.72,20.6a14.67,14.67,0,0,1-10.29,4.32c-8.65-.06-18.36-7.8-17.27-18.59a12.19,12.19,0,0,1,1.46-4.28C13.76,5.66,12,8.64,12.51,13.63c.66,6.86,7.14,13.7,13.94,14.61,8.12,1.09,14.18-2.33,16.27-7.64"/><path class="cls-1" d="M42.33,11.51c-5.19,3.53-8.4,2.35-9.93,1.9a9.09,9.09,0,0,1-1.83-.88,9.26,9.26,0,0,1-3.66-3.22,13.31,13.31,0,0,1-1.6-3.5A11.12,11.12,0,0,1,25.75,0C23.4,2.09,23,6.14,23.83,8.82a14.68,14.68,0,0,0,1,2.15c2,3.27,5.9,6.14,12,4.85,1.53-.33,5-2.93,5.59-4.31"/></svg>