<svg id="Layer_1" data-name="Layer 1" xmlns="http://www.w3.org/2000/svg" viewBox="0 0 42.52 42.52"><defs><style>.cls-1{fill:#0480a2;}.cls-2{fill:#1bbdef;}.cls-3{fill:#7ad0ed;}.cls-4{fill:#6bb945;}.cls-5{fill:#89c65b;}.cls-6{fill:#b8d432;}.cls-7{fill:#fff;}</style></defs><title>Artboard 12</title><path class="cls-1" d="M36.26,5.37H5.72A1.55,1.55,0,0,0,4.27,6.53L0,25.53A.91.91,0,0,0,1,26.69H31.5A1.55,1.55,0,0,0,33,25.53l4.24-19a.91.91,0,0,0-.93-1.16"/><path class="cls-2" d="M41.56,10.51H19.3a1.57,1.57,0,0,0-1.45,1.16L14.09,28.48A.91.91,0,0,0,15,29.64H37.28a1.56,1.56,0,0,0,1.45-1.16l3.76-16.81a.91.91,0,0,0-.93-1.16"/><path class="cls-3" d="M19.3,10.51a1.57,1.57,0,0,0-1.45,1.16l-3.36,15h17A1.55,1.55,0,0,0,33,25.53l3.35-15Z"/><path class="cls-4" d="M21.87,16.33H11.74a1.54,1.54,0,0,0-1.45,1.16L6.06,36A.9.9,0,0,0,7,37.15H17.11A1.57,1.57,0,0,0,18.57,36l4.23-18.5a.91.91,0,0,0-.93-1.16"/><path class="cls-5" d="M21.87,16.33H11.74a1.54,1.54,0,0,0-1.45,1.16l-2.11,9.2H20.69l2.11-9.2a.91.91,0,0,0-.93-1.16"/><path class="cls-6" d="M21.87,16.33H16.81L14.09,28.48A.91.91,0,0,0,15,29.64h5L22.8,17.49a.91.91,0,0,0-.93-1.16"/><path class="cls-7" d="M21.87,16.33H16.81L14.49,26.69h6.2l2.11-9.2a.91.91,0,0,0-.93-1.16"/></svg>