<svg id="Layer_1" data-name="Layer 1" xmlns="http://www.w3.org/2000/svg" viewBox="0 0 42.52 42.52"><defs><style>.cls-1{fill:#ea7077;}.cls-2{fill:#f5a1ac;}</style></defs><title>Artboard 9</title><g id="_Group_" data-name="&lt;Group&gt;"><path class="cls-1" d="M36.27,22h6.25c-2.19.73-2.88,2.18-3.26,6.32-.27,3-1.61,3.72-1.61,3.72-1,0-2-4.25-2.88-8.78A1.91,1.91,0,0,1,36.27,22Z"/><path class="cls-1" d="M37.61,32H31.36c1.11,0,1.88-2.11,2.34-4.79a16.07,16.07,0,0,1,1-4C35.62,27.78,36.62,32,37.61,32Z"/><path class="cls-2" d="M34.74,23.25a13.13,13.13,0,0,0-1,4C33.24,29.92,32.47,32,31.36,32c-1.19-.26-2.14-4.79-3.41-11.69,0-.23-.08-.42-.11-.65.95-5,1.95-9.24,2.95-9.24h.34c1.19.27,2.15,4.79,3.41,11.69C34.62,22.49,34.66,22.87,34.74,23.25Z"/><path class="cls-1" d="M24.88,10.45h5.91c-1,0-2,4.29-2.95,9.28C27,15.05,25.92,10.45,24.88,10.45Z"/><path class="cls-1" d="M27.84,19.73c-.08.49-.2,1-.27,1.53C26.15,29,25.3,31.84,24.31,32.07c-1.11,0-2.19-5-3.07-9.93,0-.08,0-.15,0-.23,0-.23.08-.42.12-.65,1.42-7.78,2.26-10.58,3.22-10.81h.34C25.92,10.45,27,15.05,27.84,19.73Z"/><path class="cls-1" d="M24.31,32H18.06c1.07,0,2.15-4.79,3.1-10.16,0,.08,0,.16,0,.23C22.12,27.05,23.23,32,24.31,32Z"/><path class="cls-2" d="M21.2,21.91c-1,5.37-2.07,10.16-3.1,10.16-1.19-.27-2.15-4.79-3.42-11.69,0-.23-.07-.42-.11-.65.92-5,1.92-9.28,2.91-9.28h.35C19,10.72,19.94,15.13,21.2,21.91Z"/><path class="cls-1" d="M11.58,10.45h5.9c-1,0-2,4.29-3,9.28C13.65,15.05,12.61,10.45,11.58,10.45Z"/><path class="cls-1" d="M14.53,19.73c-.08.49-.19,1-.27,1.53C12.84,29,12,31.84,11,32.07c-1.11,0-.69-.19-1.38-3.3s-1.22-4.94-1.95-5.9c.11-.54.19-1.07.3-1.61,1.46-7.78,2.31-10.58,3.26-10.81h.35C12.61,10.45,13.65,15.05,14.53,19.73Z"/><path class="cls-1" d="M11,32H4.75c1,0,2-4.25,3-9.2.69,1,1.22,2.8,2,5.91S9.89,32,11,32Z"/><path class="cls-2" d="M7.71,22.83c-1,5-2,9.2-3,9.2-.11-.15-.8,0-1.45-3.83C2.72,24.67,1.69,22.45,0,22H6.25A1.78,1.78,0,0,1,7.71,22.83Z"/></g></svg>