<svg id="Layer_1" data-name="Layer 1" xmlns="http://www.w3.org/2000/svg" viewBox="0 0 42.52 42.52"><defs><style>.cls-1{fill:#cf659a;}</style></defs><title>Artboard 10</title><path class="cls-1" d="M36.6,23.63a8.67,8.67,0,0,0-3.85.89,7.69,7.69,0,0,1-.86-2,5.39,5.39,0,0,1-.08-1.68A13.13,13.13,0,0,1,32.32,19c0-.07-.09-.44-.95-.45s-1.59.17-1.68.39a9.32,9.32,0,0,0-.35,1.27,30.85,30.85,0,0,1-2.6,5,5.05,5.05,0,0,1-.59-1.46,5.39,5.39,0,0,1-.08-1.68,13.59,13.59,0,0,1,.51-1.81c0-.07-.09-.44-.95-.44S24,20,24,20.25s-.17.75-.35,1.27-2.25,5.13-2.79,6.33c-.28.62-.52,1.11-.69,1.44s0,0,0,.06l-.23.44h0c-.12.2-.24.4-.3.4a2.83,2.83,0,0,1,0-1.32c.3-1.6,1.05-4.1,1-4.19s.14-.48-.48-.71a.77.77,0,0,0-.87.15c-.05,0-.09.14-.09.14s.67-2.82-1.29-2.82c-1.23,0-2.92,1.34-3.76,2.56l-2.86,1.56-1.38.76-.09-.1C7.43,23.69,3,21.9,3.22,18.49c.06-1.23.49-4.5,8.43-8.45,6.51-3.24,11.71-2.35,12.62-.38,1.29,2.83-2.78,8.08-9.54,8.83-2.58.29-3.93-.7-4.27-1.08s-.41-.4-.54-.33-.09.47,0,.67a4,4,0,0,0,2.44,1.92,12.91,12.91,0,0,0,7.91-.78c4.1-1.58,7.3-6,6.36-9.67s-7.17-5-13-2.89a29.66,29.66,0,0,0-10,5.74C.34,15.1-.17,17.74,0,18.83c.76,3.92,6.15,6.47,8.31,8.35l-.3.17C7,27.88,2.86,30,1.83,32.3.67,34.88,2,36.73,2.91,37a6.64,6.64,0,0,0,7.15-2.9,7.18,7.18,0,0,0,.64-6.6l0-.05.85-.5,1.56-.88a10.61,10.61,0,0,0-.55,2.82A5.88,5.88,0,0,0,13.8,33a1.41,1.41,0,0,0,1,.33c.91,0,1.33-.76,1.78-1.66.57-1.11,1.07-2.39,1.07-2.39s-.63,3.47,1.08,3.47c.62,0,1.24-.81,1.52-1.22h0l.05-.09a.86.86,0,0,0,.1-.16h0c.25-.43.81-1.42,1.64-3.06,1.07-2.11,2.1-4.75,2.1-4.75a14.79,14.79,0,0,0,.41,1.71,16.23,16.23,0,0,0,.89,2l-.4.54h0c-.2.27-.43.55-.66.83a24.13,24.13,0,0,0-2,2.5.69.69,0,0,0,.18.92,1.66,1.66,0,0,0,1,.16,4.93,4.93,0,0,0,1.56-.35,5.47,5.47,0,0,0,1.34-.71,3,3,0,0,0,1.29-2.65,5.19,5.19,0,0,0-.49-1.87l.23-.33a35,35,0,0,0,2.32-4,14.79,14.79,0,0,0,.41,1.71,12.39,12.39,0,0,0,.75,1.71,7.35,7.35,0,0,0-2.26,2.93c-.49,1.42-.11,2.06.61,2.21a2.3,2.3,0,0,0,1.14-.24A5.2,5.2,0,0,0,32,29.76a3.24,3.24,0,0,0,1.58-2.62,4.61,4.61,0,0,0-.36-1.55,8,8,0,0,1,4.12-.48c3.7.43,4.43,2.74,4.29,3.71a2.49,2.49,0,0,1-1.17,1.66c-.26.16-.34.21-.32.33s.15.17.38.13a2.89,2.89,0,0,0,2-2.56c.1-2.29-2.07-4.78-5.92-4.75ZM8.1,33.23c-1.22,1.34-2.94,1.85-3.67,1.42s-.48-2.43,1-3.85a19.64,19.64,0,0,1,2.88-2.15l.76-.46.08-.05L9.36,28a5.27,5.27,0,0,1-1.26,5.2ZM17,27.16c-.43,1-1.32,3.71-1.86,3.56s-.75-2.14-.09-4.14a9,9,0,0,1,1.45-2.66c.67-.75,1.4-1,1.59-.69S17.29,26.52,17,27.16Zm7.36,3.53c-.18.09-.34.15-.42.1s.08-.15.08-.15.92-1,1.28-1.45l.73-.92v.1c0,1.19-1.15,2-1.67,2.32Zm5.68-1.3c-.13-.1-.11-.41.34-1.37a5.11,5.11,0,0,1,1.26-1.63,2.09,2.09,0,0,1,.12.72A2.32,2.32,0,0,1,30.07,29.39Z"/></svg>