<svg id="Layer_1" data-name="Layer 1" xmlns="http://www.w3.org/2000/svg" viewBox="0 0 42.52 42.52"><defs><style>.cls-1{fill:#099cec;}.cls-2{fill:#fff;}.cls-3{fill:#464342;}.cls-3,.cls-4{isolation:isolate;}.cls-4{opacity:0.05;}.cls-5{fill:#066da5;}</style></defs><title>Artboard 29</title><rect class="cls-1" x="3.33" y="16.82" width="4.39" height="3.99"/><rect class="cls-1" x="8.52" y="16.82" width="4.39" height="3.99"/><rect class="cls-1" x="13.71" y="16.82" width="4.39" height="3.99"/><rect class="cls-1" x="18.9" y="16.82" width="4.39" height="3.99"/><rect class="cls-1" x="24.09" y="16.82" width="4.39" height="3.99"/><rect class="cls-1" x="8.52" y="12.03" width="4.39" height="3.99"/><rect class="cls-1" x="13.71" y="12.03" width="4.39" height="3.99"/><rect class="cls-1" x="18.9" y="12.03" width="4.39" height="3.99"/><rect class="cls-1" x="18.9" y="7.24" width="4.39" height="3.99"/><path class="cls-1" d="M41.55,18.06a7.5,7.5,0,0,0-5-.41A6,6,0,0,0,34,13.23l-.6-.4-.4.6a6.91,6.91,0,0,0-1,4.22,5,5,0,0,0,1,2.61,6.49,6.49,0,0,1-3.79,1H.64c-.5,3,.36,14.46,13.57,14.46,9.81,0,17.86-4.41,21.55-13.66,1.22,0,4.42.22,6-2.81,0-.05.4-.8.4-.8Z"/><path id="Fill-21" class="cls-2" d="M11.19,30.29a24.56,24.56,0,0,1-7.5,1.26c2.44,2,6.8,5.88,14,3.69A11.16,11.16,0,0,1,11.19,30.29Z"/><ellipse id="Oval" class="cls-2" cx="13.86" cy="27.67" rx="1.39" ry="1.4"/><path class="cls-3" d="M14.07,27.28a.39.39,0,0,1,.15-.31.71.71,0,0,0-.36-.09.8.8,0,0,0-.79.8.8.8,0,0,0,1.59,0s0,0,0-.05a.37.37,0,0,1-.18.05A.4.4,0,0,1,14.07,27.28Z"/><path id="Shape" class="cls-4" d="M41.44,18a7.53,7.53,0,0,0-5-.4l-.36.51c-5.35,11.07-12,15.75-21.19,16-10,0-12.47-5.29-13.17-12.46H.12c-.2,3,.57,14.1,13.88,14.1,9.82,0,17.9-4.4,21.63-13.64,1.22,0,4.61,0,6.1-3l.31-.65Z"/><path class="cls-5" d="M36.78,17.1a6.49,6.49,0,0,0-2.72-4.25l-.94-.64-.62.94a7.32,7.32,0,0,0-1.07,4.47,5.75,5.75,0,0,0,.83,2.48,6.59,6.59,0,0,1-3,.7V16H24.09V6.45h-6v4.79H7.72V16H2.53v4.79H.17l-.06.33A12.94,12.94,0,0,0,.16,24.8a14.48,14.48,0,0,0,1.64,5c2.21,4,6.23,6.3,12.27,6.3,10.28,0,18.15-4.74,21.82-13.65A8.15,8.15,0,0,0,39,22a5.25,5.25,0,0,0,3-2.62l.21-.42c0-.09.09-.19.14-.28l.06-.13.15-.31-.89-.6A7.63,7.63,0,0,0,36.78,17.1ZM23.29,20.81H18.9v-4h4.39Zm-5.19,0H13.71v-4H18.1Zm-5.19,0H8.52v-4h4.39Zm15.57-4v4H24.09v-4ZM23.29,16H18.9V12h4.39ZM18.9,7.24h4.39v4H18.9ZM13.71,12H18.1v4H13.71ZM8.52,12h4.39v4H8.52ZM3.33,16.82H7.72v4H3.33Zm38.12,1.81-.12.25a1.31,1.31,0,0,0-.07.13,4.48,4.48,0,0,1-2.57,2.25,7.36,7.36,0,0,1-2.85.35h-.48l-.11.26c-3.49,8.76-11.11,13.41-21.18,13.41-4.41,0-7.64-1.28-9.84-3.55.42,0,.85.07,1.28.07a11.43,11.43,0,0,0,5.7-1.5c-.14-.23-.27-.46-.39-.7A10.7,10.7,0,0,1,5.51,31a11.14,11.14,0,0,1-2.09-.21,11.46,11.46,0,0,1-.93-1.41A13.63,13.63,0,0,1,1,24.68a12.57,12.57,0,0,1-.1-3.07H29.27a6.73,6.73,0,0,0,3.8-1.08l.33-.25L33.14,20a4.5,4.5,0,0,1-.91-2.4,6.51,6.51,0,0,1,.93-4l.18-.27.25.17A5.51,5.51,0,0,1,36,17.61l0,.5.48-.13a7.19,7.19,0,0,1,4.66.35l.31.2Z"/><rect class="cls-5" x="4.13" y="17.62" width="0.4" height="2.39"/><rect class="cls-5" x="5.33" y="17.62" width="0.4" height="2.39"/><rect class="cls-5" x="6.53" y="17.62" width="0.4" height="2.39"/><rect class="cls-5" x="9.32" y="17.62" width="0.4" height="2.39"/><rect class="cls-5" x="10.52" y="17.62" width="0.4" height="2.39"/><rect class="cls-5" x="11.71" y="17.62" width="0.4" height="2.39"/><rect class="cls-5" x="14.51" y="17.62" width="0.4" height="2.39"/><rect class="cls-5" x="15.7" y="17.62" width="0.4" height="2.39"/><rect class="cls-5" x="16.9" y="17.62" width="0.4" height="2.39"/><rect class="cls-5" x="19.7" y="17.62" width="0.4" height="2.39"/><rect class="cls-5" x="20.89" y="17.62" width="0.4" height="2.39"/><rect class="cls-5" x="22.09" y="17.62" width="0.4" height="2.39"/><rect class="cls-5" x="24.88" y="17.62" width="0.4" height="2.39"/><rect class="cls-5" x="26.08" y="17.62" width="0.4" height="2.39"/><rect class="cls-5" x="27.28" y="17.62" width="0.4" height="2.39"/><rect class="cls-5" x="10.52" y="12.83" width="0.4" height="2.39"/><rect class="cls-5" x="11.71" y="12.83" width="0.4" height="2.39"/><rect class="cls-5" x="14.51" y="12.83" width="0.4" height="2.39"/><rect class="cls-5" x="15.7" y="12.83" width="0.4" height="2.39"/><rect class="cls-5" x="16.9" y="12.83" width="0.4" height="2.39"/><rect class="cls-5" x="19.7" y="12.83" width="0.4" height="2.39"/><rect class="cls-5" x="20.89" y="12.83" width="0.4" height="2.39"/><rect class="cls-5" x="22.09" y="12.83" width="0.4" height="2.39"/><rect class="cls-5" x="20.89" y="8.04" width="0.4" height="2.39"/><rect class="cls-5" x="19.7" y="8.04" width="0.4" height="2.39"/><rect class="cls-5" x="22.09" y="8.04" width="0.4" height="2.39"/><rect class="cls-5" x="9.32" y="12.83" width="0.4" height="2.39"/></svg>