<svg id="Layer_1" data-name="Layer 1" xmlns="http://www.w3.org/2000/svg" viewBox="0 0 42.52 42.52"><defs><style>.cls-1{fill:#0b9948;}</style></defs><title>Artboard 31</title><path class="cls-1" d="M8,25.7a1,1,0,0,1-.66-.27L1.85,20v4.81a.93.93,0,0,1-.93.93A.93.93,0,0,1,0,24.77v-7a.93.93,0,0,1,.57-.85.91.91,0,0,1,1,.2L7,22.54V17.73a.93.93,0,0,1,1.85,0v7A.93.93,0,0,1,8,25.7m4.27-8.88-.25.47-2,3.57-.26.45.26.45,2,3.45.27.47H17.4l.25-.52,1.47-2.95.65-1.34H14.53a.93.93,0,1,0,0,1.85h2.26l-.55,1.12H13.33L11.89,21.3l1.45-2.64h3.1l.72,1.48H19l-1.17-2.8-.26-.52H12.25m9.35,0a1,1,0,0,0-.91.94v2.41h1.85V17.74a1,1,0,0,0-.94-.94m3,8.92a.93.93,0,0,1-.92-.93v-7a.93.93,0,1,1,1.85,0v4.81L31,17.09a.92.92,0,0,1,1.57.66v7a.93.93,0,1,1-1.85,0V20l-5.46,5.47a1,1,0,0,1-.66.27m14.81-4.46,2.88-2.86a.93.93,0,1,0-1.31-1.31L38.07,20l-2.88-2.87a.93.93,0,1,0-1.31,1.31l2.88,2.86-2.87,2.86a.92.92,0,0,0,0,1.3.9.9,0,0,0,.65.28.93.93,0,0,0,.66-.27l2.87-2.86,2.87,2.86a.91.91,0,0,0,.65.27.9.9,0,0,0,.65-.28.92.92,0,0,0,0-1.3l-2.87-2.86M21.6,25.69a1,1,0,0,1-.91-.94V20.89h1.85v3.86a1,1,0,0,1-.94.94"/></svg>