<svg id="Layer_1" data-name="Layer 1" xmlns="http://www.w3.org/2000/svg" viewBox="0 0 42.52 42.52"><defs><style>.cls-1{fill:#a0bf5e;fill-rule:evenodd;}</style></defs><title>Artboard 24</title><path class="cls-1" d="M36.86,13.32A2.61,2.61,0,0,0,34.27,16V26.22a2.59,2.59,0,1,0,5.18,0V16A2.61,2.61,0,0,0,36.86,13.32Zm-31.2,0A2.61,2.61,0,0,0,3.07,16V26.22a2.59,2.59,0,1,0,5.17,0V16A2.6,2.6,0,0,0,5.66,13.32Z"/><path class="cls-1" d="M9.8,13.4V32.16a2,2,0,0,0,2,2h2.3v5.71a2.59,2.59,0,1,0,5.18,0V34.18h4v5.71a2.59,2.59,0,1,0,5.18,0V34.18h2.3a2,2,0,0,0,2-2V13.4Z"/><path class="cls-1" d="M26.72,3.68,28.84.6a.38.38,0,0,0-.07-.54.38.38,0,0,0-.52.12L26,3.39a13.28,13.28,0,0,0-9.56,0L14.27.18a.38.38,0,0,0-.52-.12.38.38,0,0,0-.07.54L15.8,3.68a10,10,0,0,0-6.05,8.05h23A10,10,0,0,0,26.72,3.68ZM16.4,8.55a1.28,1.28,0,1,1,1.28-1.28A1.27,1.27,0,0,1,16.4,8.55Zm9.87,0a1.28,1.28,0,1,1,1.28-1.28A1.27,1.27,0,0,1,26.27,8.55Z"/></svg>