<svg id="Layer_1" data-name="Layer 1" xmlns="http://www.w3.org/2000/svg" viewBox="0 0 42.52 42.52"><defs><style>.cls-1{fill:#563d7c;}.cls-2{isolation:isolate;}.cls-3{fill:#fff;}</style></defs><title>Artboard 10</title><g id="solid"><path id="bg" class="cls-1" d="M42.52,35.43a7.11,7.11,0,0,1-7.09,7.09H7.09A7.11,7.11,0,0,1,0,35.43V7.09A7.11,7.11,0,0,1,7.09,0H35.43a7.11,7.11,0,0,1,7.09,7.09Z"/><g id="B" class="cls-2"><path class="cls-3" d="M11.55,9.24H23.61A8.62,8.62,0,0,1,29,10.77a5.44,5.44,0,0,1,2,4.62,5.54,5.54,0,0,1-.91,3.21,6,6,0,0,1-2.63,2.07v.07a5.42,5.42,0,0,1,3.47,2.17,7.15,7.15,0,0,1,1.18,4.22,7,7,0,0,1-.52,2.72A5.44,5.44,0,0,1,29.93,32a8.3,8.3,0,0,1-2.85,1.46A14,14,0,0,1,23,34H11.55V9.24ZM15.9,19.63H23a3.85,3.85,0,0,0,2.61-.89,3.21,3.21,0,0,0,1-2.56,3.22,3.22,0,0,0-.94-2.64A4.19,4.19,0,0,0,23,12.78H15.9v6.85Zm0,10.87h7.67a4.27,4.27,0,0,0,3.07-1,3.78,3.78,0,0,0,1.1-2.9,3.62,3.62,0,0,0-1.1-2.84,4.41,4.41,0,0,0-3.07-1H15.9Z"/></g></g></svg>