<svg id="Layer_1" data-name="Layer 1" xmlns="http://www.w3.org/2000/svg" viewBox="0 0 42.52 42.52"><defs><style>.cls-1{fill:#5f96ce;fill-rule:evenodd;}.cls-2{fill:#054e86;}.cls-3{fill:#0062a1;}.cls-4{fill:#fff;}</style></defs><title>Artboard 25</title><path class="cls-1" d="M21.26,15a6.25,6.25,0,0,0-5.43,9.36l10.84-6.24A6.26,6.26,0,0,0,21.26,15Z"/><path class="cls-1" d="M8.7,21.26A12.57,12.57,0,0,1,32.14,15l7.57-4.36a3.58,3.58,0,0,0-1.37-1.33c-5-2.91-10.08-5.8-15.11-8.71a3.73,3.73,0,0,0-4,0c-2,1.18-12,6.93-15,8.67A3.49,3.49,0,0,0,2.35,12.5c0,5.84,0,11.68,0,17.52a3.7,3.7,0,0,0,.45,1.85l7.57-4.36A12.46,12.46,0,0,1,8.7,21.26Z"/><path class="cls-2" d="M15.83,24.36a6.25,6.25,0,0,0,10.88,0L21.32,21.2Z"/><path class="cls-2" d="M21.26,33.82a12.57,12.57,0,0,1-10.9-6.31L2.79,31.87a3.52,3.52,0,0,0,1.39,1.37c3,1.74,13,7.48,15,8.67a3.73,3.73,0,0,0,4,0l15.11-8.71a3.52,3.52,0,0,0,1.39-1.37l-7.56-4.38A12.56,12.56,0,0,1,21.26,33.82Z"/><path class="cls-3" d="M40.17,12.5a3.75,3.75,0,0,0-.46-1.89L21.32,21.2,39.73,31.87A3.7,3.7,0,0,0,40.18,30S40.18,18.34,40.17,12.5ZM33.91,22H32.47V23.4H31V22H29.59V20.53H31V19.09h1.44v1.44h1.44Zm5.25,0H37.72V23.4H36.28V22H34.84V20.53h1.44V19.09h1.44v1.44h1.44Z"/><polygon class="cls-4" points="37.72 19.09 36.28 19.09 36.28 20.53 34.84 20.53 34.84 21.97 36.28 21.97 36.28 23.41 37.72 23.41 37.72 21.97 39.16 21.97 39.16 20.53 37.72 20.53 37.72 19.09"/><polygon class="cls-4" points="32.47 19.09 31.03 19.09 31.03 20.53 29.59 20.53 29.59 21.97 31.03 21.97 31.03 23.41 32.47 23.41 32.47 21.97 33.91 21.97 33.91 20.53 32.47 20.53 32.47 19.09"/><path class="cls-4" d="M26.71,24.33a6.26,6.26,0,1,1,0-6.21L32.14,15a12.56,12.56,0,1,0,0,12.52Z"/></svg>