<svg id="Layer_1" data-name="Layer 1" xmlns="http://www.w3.org/2000/svg" xmlns:xlink="http://www.w3.org/1999/xlink" viewBox="0 0 42.52 42.52"><defs><style>.cls-1{fill:none;}.cls-2{clip-path:url(#clip-path);}.cls-3{fill:#060606;}.cls-4{fill:#05930c;}.cls-5,.cls-6{fill:#fff;}.cls-5{opacity:0.1;isolation:isolate;}</style><clipPath id="clip-path"><path class="cls-1" d="M34-53.37v-.05l1.09-5.51s-2.44-5.63-10.64-5S15.2-61.31,13.86-59l.8,3.6-1.53,1s-.55-1.64-1.41-1.71c0,0,1.28-1.84.36-3.12S6.27-60.46,4.38-54c0,0-.25-2-1-2A3.26,3.26,0,0,0,.4-51.83c.79,3,3.55,4,4.46,4.35a1.6,1.6,0,0,1,.25,1.28C5-45.82,2.8-39,4.65-32.62c1.37,4.73,5.81,8.84,5.81,8.84a18.7,18.7,0,0,0,12.94,5.2,19,19,0,0,0,18.86-19A19,19,0,0,0,34-53.37Z"/></clipPath></defs><title>Artboard 26</title><g class="cls-2"><path class="cls-3" d="M8.81-13.44,23.75,5.82s.58.21.83-.09V-13.44Zm31.42,0L25.29,5.82s-.58.21-.83-.09V-13.44ZM31.4-31H17.66C3-24.62,6.42-.37,6.42-.37H24.61V-11.46l1,11.09h17S46-24.62,31.4-31Z"/></g><circle class="cls-4" cx="21.55" cy="20.97" r="20.97"/><path class="cls-5" d="M7,5.9a21,21,0,1,0,29.6,29.6Z"/><path class="cls-6" d="M20.52,28.54a9.79,9.79,0,0,1-4.58,1,7.41,7.41,0,0,1-5.65-2.27,8.39,8.39,0,0,1-2.11-6,8.8,8.8,0,0,1,2.38-6.4,8.09,8.09,0,0,1,6.07-2.43,9.75,9.75,0,0,1,3.89.65v2.07a7.81,7.81,0,0,0-3.93-1A6,6,0,0,0,12,16.08a7.15,7.15,0,0,0-1.76,5.08A6.78,6.78,0,0,0,11.89,26a5.62,5.62,0,0,0,4.33,1.79,8.23,8.23,0,0,0,4.31-1.11Z"/><path class="cls-6" d="M35.15,17.34l-.26,1.22h-3L31.16,22h3.23l-.3,1.22H30.92l-1,4.58H28.45l1-4.58H26.56l-1,4.58H24.17l1-4.58h-3L22.33,22h3.05l.71-3.46H22.9l.24-1.22h3.19l1-4.63h1.46l-1,4.63h2.9l1-4.63H33.1l-1,4.63Zm-4.69,1.22H27.55L26.79,22h2.93Z"/></svg>