<svg id="Layer_1" data-name="Layer 1" xmlns="http://www.w3.org/2000/svg" viewBox="0 0 42.52 42.52"><defs><style>.cls-1{fill-rule:evenodd;}</style></defs><title>Artboard 6</title><path class="cls-1" d="M5.05,13.85H7.31V24.57c-2.17.36-4.25.58-5.73-.25-1.92-1.07-2.07-4.47-.56-6a4.47,4.47,0,0,1,4-.95V14C5,13.93,5,13.86,5.05,13.85ZM2.33,21.1c0,1.4,1,2.24,2.67,1.86V19.24A1.89,1.89,0,0,0,2.33,21.1Z"/><path class="cls-1" d="M11,13.85v2.37H8.72V13.85Z"/><path class="cls-1" d="M38.27,17.27a3.58,3.58,0,0,1,3.87,1.92,4.28,4.28,0,0,1-1.61,5.43,4.49,4.49,0,0,1-2.41.35c-2.36-.2-3.85-2.61-3-5.28a3.35,3.35,0,0,1,3.17-2.42Zm-.1,5.79c2.46,1,2.74-4.42.25-3.92C36.87,19.44,36.92,22.58,38.17,23.06Z"/><path class="cls-1" d="M18.08,24.67c-1.87.11-4.71.75-5.73-.5a2.54,2.54,0,0,1,0-2.82c.69-.89,2.2-1.08,3.57-1.21a1.3,1.3,0,0,0-.1-1,5.3,5.3,0,0,0-3.37.55V17.93c1.33-.61,4.41-1.26,5.33.15.49.74.3,2,.3,3.17Zm-4-2.46c-.63,1.05,1,1.3,2,1V21.65C15.29,21.76,14.4,21.71,14.11,22.21Z"/><path class="cls-1" d="M26,24.77H23.77V21.85c0-1,.16-2.18-.35-2.56s-1.34-.15-1.91,0v5.48H19.24v-7c2.32-.6,6.5-1.25,6.8,1.66C26.18,20.87,25.93,23,26,24.77Z"/><path class="cls-1" d="M35.1,17.58a16.78,16.78,0,0,1-.76,1.66c-.23.05-.43-.1-.55,0,0,2.45.52,5.78-.46,7.55A3.79,3.79,0,0,1,30,28.65a6.92,6.92,0,0,1-3-.45V26.08c1,.61,3.65,1.1,4.38-.15a3.72,3.72,0,0,0,.3-1.31c-.47,0-.93.25-1.51.25-2.37,0-3.84-1.85-3.27-4.48a3.57,3.57,0,0,1,1.61-2.31C30.16,17.07,32.7,17.15,35.1,17.58Zm-5.69,4.78a1.83,1.83,0,0,0,2.26.45c0-1.18-.06-2.39-.05-3.62A2.08,2.08,0,0,0,29.41,22.36Z"/><path class="cls-1" d="M11,17.42v4.89c-.1,2-.08,3.57-.81,4.53a4.5,4.5,0,0,1-.7.65,2.38,2.38,0,0,1-.86.5,3.82,3.82,0,0,1-1.1-.45A7.83,7.83,0,0,0,6.46,27c.86-.54,1.68-.94,2-2a13.94,13.94,0,0,0,.25-3.63c0-1.31,0-2.83,0-4Z"/></svg>