<svg id="Layer_1" data-name="Layer 1" xmlns="http://www.w3.org/2000/svg" viewBox="0 0 42.52 42.52"><defs><style>.cls-1{fill:#5c2d91;}.cls-2,.cls-3{fill:#fff;}.cls-2{opacity:0.1;isolation:isolate;}.cls-4{fill:#f2f2f2;}</style></defs><title>Artboard 28</title><circle class="cls-1" cx="21.55" cy="20.97" r="20.97"/><path class="cls-2" d="M7,5.9a21,21,0,1,0,29.6,29.6Z"/><path class="cls-3" d="M5.43,24.41a.9.9,0,0,1-.65-.28.89.89,0,0,1-.27-.65.91.91,0,0,1,.27-.66.88.88,0,0,1,.65-.28.91.91,0,0,1,.66.28.94.94,0,0,1,.27.66.85.85,0,0,1-.27.65A.91.91,0,0,1,5.43,24.41Z"/><path class="cls-3" d="M18.45,24.24H16.74L10.6,14.72a3.78,3.78,0,0,1-.38-.75h-.06a12.78,12.78,0,0,1,.07,1.64v8.63H8.83V12.3h1.82l6,9.36c.25.38.41.65.49.8h0a11.52,11.52,0,0,1-.08-1.76V12.3h1.39Z"/><path class="cls-3" d="M27.9,24.24H21.55V12.3h6.06v1.26H23v4h4.31v1.26H23v4.14h4.93Z"/><path class="cls-3" d="M37.28,13.56H33.8V24.24H32.41V13.56H29V12.3h8.3Z"/><path class="cls-4" d="M17.7,32.37a3.2,3.2,0,0,1-1.52.32,2.45,2.45,0,0,1-1.88-.75,2.8,2.8,0,0,1-.71-2,2.93,2.93,0,0,1,.79-2.14,2.72,2.72,0,0,1,2-.81,3.41,3.41,0,0,1,1.31.23v.66a2.6,2.6,0,0,0-1.31-.33,2,2,0,0,0-1.54.65,2.41,2.41,0,0,0-.59,1.7,2.28,2.28,0,0,0,.55,1.6,1.88,1.88,0,0,0,1.45.6,2.81,2.81,0,0,0,1.44-.37Z"/><path class="cls-4" d="M20.38,32.69a1.84,1.84,0,0,1-1.4-.58,2,2,0,0,1-.51-1.46A2.1,2.1,0,0,1,19,29.1a2,2,0,0,1,1.46-.56,1.78,1.78,0,0,1,1.37.55,2.14,2.14,0,0,1,.49,1.5,2.07,2.07,0,0,1-.53,1.5A1.82,1.82,0,0,1,20.38,32.69Zm0-3.58a1.17,1.17,0,0,0-1,.41,1.73,1.73,0,0,0-.36,1.14,1.62,1.62,0,0,0,.36,1.1,1.23,1.23,0,0,0,1,.41,1.15,1.15,0,0,0,.94-.4,1.67,1.67,0,0,0,.33-1.12,1.72,1.72,0,0,0-.33-1.14A1.15,1.15,0,0,0,20.42,29.11Z"/><path class="cls-4" d="M25.39,29.3a.83.83,0,0,0-1.13.26,1.72,1.72,0,0,0-.27,1v2h-.66V28.67H24v.82h0a1.35,1.35,0,0,1,.41-.66A.93.93,0,0,1,25,28.6a1.18,1.18,0,0,1,.37,0Z"/><path class="cls-4" d="M29.23,30.8H26.46a1.5,1.5,0,0,0,.33,1,1.25,1.25,0,0,0,.93.35,1.92,1.92,0,0,0,1.22-.44v.59a2.2,2.2,0,0,1-1.37.37,1.67,1.67,0,0,1-1.31-.53,2.24,2.24,0,0,1-.48-1.51,2.17,2.17,0,0,1,.52-1.49,1.66,1.66,0,0,1,1.31-.58,1.47,1.47,0,0,1,1.2.5,2,2,0,0,1,.41,1.39Zm-.65-.53a1.29,1.29,0,0,0-.27-.85.88.88,0,0,0-.72-.3,1,1,0,0,0-.75.32,1.46,1.46,0,0,0-.39.83Z"/></svg>