<svg id="Layer_1" data-name="Layer 1" xmlns="http://www.w3.org/2000/svg" viewBox="0 0 42.52 42.52"><defs><style>.cls-1{fill:#5c2d91;}.cls-2,.cls-3{fill:#fff;}.cls-2{opacity:0.1;isolation:isolate;}</style></defs><title>Artboard 27</title><circle class="cls-1" cx="21.55" cy="20.97" r="20.97"/><path class="cls-2" d="M7,5.9a21,21,0,1,0,29.6,29.6Z"/><path class="cls-3" d="M5.43,27a.9.9,0,0,1-.65-.28.89.89,0,0,1-.27-.65.91.91,0,0,1,.27-.66.88.88,0,0,1,.65-.28.91.91,0,0,1,.66.28,1,1,0,0,1,.27.66.84.84,0,0,1-.27.65A.91.91,0,0,1,5.43,27Z"/><path class="cls-3" d="M18.45,26.87H16.74L10.6,17.34a3.78,3.78,0,0,1-.38-.75h-.06a12.78,12.78,0,0,1,.07,1.64v8.64H8.83v-12h1.82l6,9.36c.25.39.41.65.49.8h0a11.52,11.52,0,0,1-.08-1.76v-8.4h1.39Z"/><path class="cls-3" d="M27.9,26.87H21.55v-12h6.06v1.26H23v4h4.31v1.25H23v4.14h4.93Z"/><path class="cls-3" d="M37.28,16.18H33.8V26.87H32.41V16.18H29V14.92h8.3Z"/></svg>