<svg id="Layer_1" data-name="Layer 1" xmlns="http://www.w3.org/2000/svg" viewBox="0 0 42.52 42.52"><defs><style>.cls-1{fill:#e92d2f;stroke:#e92d2f;}.cls-1,.cls-2{stroke-miterlimit:10;stroke-width:0.02px;}.cls-2{fill:#0774ba;stroke:#0774ba;}</style></defs><title>Artboard 23</title><path class="cls-1" d="M24.19,0a3.36,3.36,0,0,1,.7,2.83,6.5,6.5,0,0,1-1.53,2.91,14.44,14.44,0,0,1-1.93,1.82,8.13,8.13,0,0,0-2.09,2.25,3,3,0,0,0-.24,2.46c.48,1.37,1.59,2.4,2.19,3.7-.67-.59-1.32-1.2-1.93-1.85a8.89,8.89,0,0,1-1.64-2.26,2.72,2.72,0,0,1-.19-1.92,4.47,4.47,0,0,1,1.13-1.65C20,7,21.53,6.06,22.79,4.75a5.34,5.34,0,0,0,1.47-2.56A5.22,5.22,0,0,0,24.19,0Z"/><path class="cls-1" d="M23.14,8.09A14.35,14.35,0,0,1,27.77,6,23.66,23.66,0,0,0,24,8.59,3.57,3.57,0,0,0,23,10a1.8,1.8,0,0,0,.09,1.23,14.34,14.34,0,0,0,1.19,1.86,2,2,0,0,1,.13,1.79,4.73,4.73,0,0,1-1.88,2c-.1.05-.19.16-.31.18a2.53,2.53,0,0,0,.9-1.82,2.24,2.24,0,0,0-.65-1.37,4.19,4.19,0,0,1-1.17-3,4.09,4.09,0,0,1,1.8-2.69Z"/><path class="cls-2" d="M28,16.3a1.75,1.75,0,0,1,1.21-.51,2.63,2.63,0,0,1,2.12.61A1.92,1.92,0,0,1,32,18.1a3,3,0,0,1-1.15,1.81,9.05,9.05,0,0,1-3.47,1.58,1.21,1.21,0,0,1,.24-.21,8.45,8.45,0,0,0,2.56-1.91,2.33,2.33,0,0,0,.61-1.86,1.8,1.8,0,0,0-1.68-1.39A3.87,3.87,0,0,0,28,16.3Z"/><path class="cls-2" d="M13.75,17A10.15,10.15,0,0,1,17.91,16a16.63,16.63,0,0,0-2.47.82,1.17,1.17,0,0,0-.5.38c-.06.15.1.25.21.3a5.37,5.37,0,0,0,1.54.28,41.29,41.29,0,0,0,5.45-.07c1.79-.11,3.57-.35,5.34-.63a9.65,9.65,0,0,0-1.15.6,1.82,1.82,0,0,1-.62.21,32.83,32.83,0,0,1-6.62.67c-.86,0-1.71,0-2.57-.06a15.16,15.16,0,0,1-2.84-.39,1.89,1.89,0,0,1-.76-.35.25.25,0,0,1,0-.36,2.9,2.9,0,0,1,.85-.49Z"/><path class="cls-2" d="M15.43,20a4.15,4.15,0,0,1,1.25-.61c-.14.17-.34.33-.35.57a.39.39,0,0,0,.23.33,2.44,2.44,0,0,0,.76.2,24.61,24.61,0,0,0,4.12.13,31.53,31.53,0,0,0,3.75-.49,4,4,0,0,0,1.17.73,22.42,22.42,0,0,1-4.59.81,19.07,19.07,0,0,1-4.4-.14,5.78,5.78,0,0,1-1.69-.5c-.21-.11-.46-.26-.52-.51a.56.56,0,0,1,.27-.52Z"/><path class="cls-2" d="M16.25,23.07a3.39,3.39,0,0,1,1.13-.51c-.12.12-.35.27-.25.48a1.29,1.29,0,0,0,.83.34,18.2,18.2,0,0,0,3.61.16,24.36,24.36,0,0,0,2.7-.38,13,13,0,0,0,1.59.78,11.56,11.56,0,0,1-2.65.79,14,14,0,0,1-4.61.06,6.24,6.24,0,0,1-2-.61,1.19,1.19,0,0,1-.58-.55.52.52,0,0,1,.21-.56Z"/><path class="cls-2" d="M12.31,25.08a7,7,0,0,1,2-.41,1.45,1.45,0,0,1,.8.14,6,6,0,0,0-2.38.64.8.8,0,0,0-.42.39c0,.22.25.29.42.36a13.51,13.51,0,0,0,3.21.62,54.81,54.81,0,0,0,9.67-.1,21.94,21.94,0,0,0,3.61-.6,2,2,0,0,0,1.06-.59.52.52,0,0,0-.1-.62c.24.14.58.31.53.64s-.44.51-.73.68a11.63,11.63,0,0,1-2.9.9,39.22,39.22,0,0,1-8.79.61,49,49,0,0,1-6.62-.67,2.16,2.16,0,0,1-1.12-.47c-.18-.22,0-.51.16-.67a4.74,4.74,0,0,1,1.58-.85Z"/><path class="cls-2" d="M30,27.51a4.77,4.77,0,0,0,2-1.08,2,2,0,0,1-1.15,1.32,11.16,11.16,0,0,1-3.26,1,41.09,41.09,0,0,1-7.19.43,28,28,0,0,1-4.91-.46,3.81,3.81,0,0,1-1.13-.4,33.32,33.32,0,0,0,4.35.39,46.46,46.46,0,0,0,7.17-.31,24.9,24.9,0,0,0,4.1-.86Z"/><path class="cls-1" d="M11.3,38.05c0-2.33,0-4.66,0-7h1.45V38.9a4.63,4.63,0,0,1-.39,2.15,3.44,3.44,0,0,1-1.82,1.47c-.24-.26-.45-.53-.68-.78h0a2.54,2.54,0,0,0,1.33-1.56,12.68,12.68,0,0,0,.11-2.13Z"/><path class="cls-1" d="M14.1,33.86a6.07,6.07,0,0,1,3.06-.52,2.2,2.2,0,0,1,1.45.7A2,2,0,0,1,19,35.35v4.76H17.93c0-.23-.07-.47-.1-.72a3.73,3.73,0,0,1-1.34.76,2.9,2.9,0,0,1-1.77-.09,1.56,1.56,0,0,1-.89-1,2.15,2.15,0,0,1,.38-2,2.79,2.79,0,0,1,1.68-.84,8.49,8.49,0,0,1,1.75-.12,2.42,2.42,0,0,0-.19-1.33,1.15,1.15,0,0,0-.93-.45,5.52,5.52,0,0,0-2.23.38c-.07-.29-.13-.57-.19-.85m1.76,3.29a1,1,0,0,0-.69.65,1.29,1.29,0,0,0,.16,1.1,1.06,1.06,0,0,0,1,.32,2.65,2.65,0,0,0,1.31-.64c0-.53,0-1.06,0-1.59a5.31,5.31,0,0,0-1.78.16Z"/><path class="cls-1" d="M26.58,33.86a6.06,6.06,0,0,1,3.08-.52,1.86,1.86,0,0,1,1.84,2.08c0,1.57,0,3.13,0,4.7-.35,0-.71,0-1.06,0,0-.24-.07-.47-.11-.71a3.19,3.19,0,0,1-1.77.84,2.37,2.37,0,0,1-1.8-.47,2,2,0,0,1,.65-3.22,6.2,6.2,0,0,1,2.73-.43A2.64,2.64,0,0,0,30,34.83a1.08,1.08,0,0,0-.87-.49,5.27,5.27,0,0,0-2.32.37c-.06-.29-.14-.57-.2-.85m1.74,3.3a1,1,0,0,0-.67.64,1.3,1.3,0,0,0,.16,1.1,1.08,1.08,0,0,0,1,.32,2.61,2.61,0,0,0,1.3-.66c0-.52,0-1.05,0-1.57a5.2,5.2,0,0,0-1.8.17Z"/><path class="cls-1" d="M19.81,33.43H21.3c.3.94.58,1.87.87,2.8.17.58.38,1.15.5,1.74.07.26.13.53.2.79a26.47,26.47,0,0,0,1.32-5.33h1.45a27.25,27.25,0,0,1-2.07,6.68h-1.7c-.69-2.23-1.38-4.45-2.06-6.68Z"/><path class="cls-1" d="M31.78,33.3H31.6v-.06H32v.06h-.18v.51h-.07Z"/><path class="cls-1" d="M32.58,33.56a2.18,2.18,0,0,1,0-.25h0c0,.07,0,.14-.08.22l-.1.28h0l-.1-.28c0-.08-.05-.15-.06-.22h0c0,.07,0,.17,0,.25v.25h-.07l0-.57h.09l.1.27c0,.08,0,.14.06.2h0c0-.06,0-.12.06-.2l.1-.27h.1l0,.57h-.07Z"/></svg>