<svg id="Layer_1" data-name="Layer 1" xmlns="http://www.w3.org/2000/svg" viewBox="0 0 42.52 42.52"><defs><style>.cls-1{fill:#ef5146;}</style></defs><title>Artboard 3</title><path class="cls-1" d="M27.13,34.55c.33.48.53.44.79.33s13.55-4.6,13.95-4.74.28-.28.15-.48-4.56-6.22-4.78-6.57-.33-.28-.68-.17L22.47,26.59S26.8,34.07,27.13,34.55ZM43,28.42v-7l-4.38,1.17C39.81,24.14,41.68,26.64,43,28.42ZM38.61,13.87c-.22.05-5,.92-5.32,1s-.2.21-.08.37L37.44,21l5.48-1.35.08,0v-.77c-.94-1.19-3.5-4.44-3.72-4.74s-.46-.31-.67-.26Z"/><path class="cls-1" d="M8.36,4.76c1,0,1.14.19,1.6.86L21.44,24.83l14.45-3.46c-.8-1.13-4.43-6.29-4.79-6.78s0-.81.66-.92l6.64-1.1c.47-.07.85-.24,1.62.69L43,17V8a7.68,7.68,0,0,0-2.34-5.63A7.68,7.68,0,0,0,35,0H8.45A7.68,7.68,0,0,0,2.82,2.34a7.67,7.67,0,0,0-1.91,3c2.6-.22,6.72-.55,7.45-.58Z"/><path class="cls-1" d="M28.43,37.13c-1.22.37-1.76.55-2.56-.55-.59-.83-3.8-6.62-5.38-9.47-3,.78-8.44,2.2-10,2.58A1.94,1.94,0,0,1,8,28.57c-.17-.4-4.68-10.11-7.55-16.34V34.55a7.68,7.68,0,0,0,2.34,5.63,7.68,7.68,0,0,0,5.63,2.34H35a8,8,0,0,0,8-8V31.93C39.74,33.12,29.25,36.88,28.43,37.13Z"/><path class="cls-1" d="M10.51,27.45l8.7-2.07c.17,0,.28-.13.1-.46L8.52,6.31c-.09-.17-.07-.23-.33-.21S2,6.65.56,6.76a8.66,8.66,0,0,0-.07.89C1.9,10.53,10,27.22,10,27.35s.05.2.48.1Z"/></svg>