<svg id="Layer_1" data-name="Layer 1" xmlns="http://www.w3.org/2000/svg" xmlns:xlink="http://www.w3.org/1999/xlink" viewBox="0 0 42.52 42.52"><defs><style>.cls-1,.cls-5{fill:url(#linear-gradient);}.cls-1{clip-rule:evenodd;}.cls-2,.cls-4{fill:#679e63;}.cls-3{fill:#343433;}.cls-3,.cls-4,.cls-5{fill-rule:evenodd;}.cls-6{clip-path:url(#clip-path);}.cls-7{fill:none;}.cls-8{fill:url(#linear-gradient-3);}.cls-9{fill:url(#linear-gradient-4);}.cls-10{fill:url(#linear-gradient-5);}.cls-11{fill:url(#linear-gradient-6);}.cls-12{fill:url(#linear-gradient-7);}.cls-13{fill:url(#linear-gradient-8);}</style><linearGradient id="linear-gradient" x1="17.34" y1="16" x2="13.68" y2="23.46" gradientUnits="userSpaceOnUse"><stop offset="0" stop-color="#3f873f"/><stop offset="0.33" stop-color="#3f8b3d"/><stop offset="0.64" stop-color="#3e9637"/><stop offset="0.93" stop-color="#3da92e"/><stop offset="1" stop-color="#3dae2b"/></linearGradient><clipPath id="clip-path"><path id="_Clipping_Path_" data-name="&lt;Clipping Path&gt;" class="cls-1" d="M15.94,14.26a.48.48,0,0,0-.49,0l-4,2.33a.5.5,0,0,0-.25.43v4.67a.5.5,0,0,0,.25.43l4,2.34a.53.53,0,0,0,.49,0l4-2.34a.5.5,0,0,0,.24-.43V17a.5.5,0,0,0-.24-.43Z"/></clipPath><linearGradient id="linear-gradient-3" x1="15.08" y1="19.9" x2="25.34" y2="12.32" gradientUnits="userSpaceOnUse"><stop offset="0.14" stop-color="#3f873f"/><stop offset="0.4" stop-color="#529f44"/><stop offset="0.71" stop-color="#63b649"/><stop offset="0.91" stop-color="#6abf4b"/></linearGradient><linearGradient id="linear-gradient-4" x1="11.01" y1="13.41" x2="20.37" y2="13.41" gradientUnits="userSpaceOnUse"><stop offset="0.09" stop-color="#6abf4b"/><stop offset="0.29" stop-color="#63b649"/><stop offset="0.6" stop-color="#529f44"/><stop offset="0.86" stop-color="#3f873f"/></linearGradient><linearGradient id="linear-gradient-5" x1="11.01" y1="19.35" x2="20.37" y2="19.35" xlink:href="#linear-gradient-4"/><linearGradient id="linear-gradient-6" x1="11.03" y1="22.03" x2="20.37" y2="22.03" xlink:href="#linear-gradient-4"/><linearGradient id="linear-gradient-7" x1="10.86" y1="23.24" x2="20.52" y2="23.24" xlink:href="#linear-gradient-4"/><linearGradient id="linear-gradient-8" x1="21.81" y1="15.77" x2="16.03" y2="27.56" xlink:href="#linear-gradient"/></defs><title>Artboard 15</title><path class="cls-2" d="M21,34.28a.87.87,0,0,1-.41-.11l-1.28-.76c-.19-.1-.1-.14,0-.16a2.68,2.68,0,0,0,.58-.27A.1.1,0,0,1,20,33l1,.59a.13.13,0,0,0,.12,0l3.84-2.22a.12.12,0,0,0,0-.1V26.82a.11.11,0,0,0-.06-.1L21.08,24.5a.13.13,0,0,0-.12,0l-3.84,2.22a.11.11,0,0,0-.06.1v4.44a.11.11,0,0,0,.06.1l1.05.61c.57.28.92-.06.92-.39V27.2a.11.11,0,0,1,.11-.11h.49a.11.11,0,0,1,.11.11v4.38a1.06,1.06,0,0,1-1.14,1.2,1.64,1.64,0,0,1-.88-.24l-1-.58a.82.82,0,0,1-.4-.7V26.82a.82.82,0,0,1,.4-.7l3.84-2.21a.83.83,0,0,1,.81,0l3.84,2.21a.82.82,0,0,1,.4.7v4.44a.82.82,0,0,1-.4.7l-3.84,2.21A.8.8,0,0,1,21,34.28Z"/><path class="cls-2" d="M22.2,31.23c-1.68,0-2-.77-2-1.42a.11.11,0,0,1,.11-.11h.5a.12.12,0,0,1,.11.09c.07.51.3.76,1.31.76.81,0,1.16-.18,1.16-.61,0-.25-.1-.43-1.36-.55-1.05-.11-1.7-.34-1.7-1.18S21,27,22.05,27s1.84.43,1.91,1.35a.07.07,0,0,1,0,.08.12.12,0,0,1-.08,0h-.5a.11.11,0,0,1-.1-.09c-.12-.53-.41-.7-1.2-.7s-1,.31-1,.54.12.36,1.32.52,1.74.37,1.74,1.2S23.42,31.23,22.2,31.23Z"/><path class="cls-2" d="M27.74,26.58a.74.74,0,1,1-.74-.74A.74.74,0,0,1,27.74,26.58Zm-1.36,0a.62.62,0,0,0,1.24,0,.62.62,0,1,0-1.24,0Zm.34-.42H27c.09,0,.29,0,.29.22a.19.19,0,0,1-.16.21c.11,0,.12.08.14.19a.6.6,0,0,0,0,.21h-.18s0-.25,0-.26a.08.08,0,0,0-.08-.07h-.15V27h-.16Zm.16.37H27a.11.11,0,0,0,.12-.12c0-.11-.08-.11-.12-.11h-.13Z"/><path class="cls-3" d="M9.13,16.94a.49.49,0,0,0-.25-.42L4.81,14.17a.46.46,0,0,0-.23-.06h0a.43.43,0,0,0-.22.06L.25,16.52a.47.47,0,0,0-.25.42v6.31a.22.22,0,0,0,.12.21.23.23,0,0,0,.25,0L2.8,22.08A.5.5,0,0,0,3,21.65V18.7a.48.48,0,0,1,.25-.42l1-.59a.42.42,0,0,1,.24-.07.45.45,0,0,1,.25.07l1,.59a.49.49,0,0,1,.24.42v2.95a.5.5,0,0,0,.25.43l2.42,1.38a.21.21,0,0,0,.24,0,.23.23,0,0,0,.13-.21Z"/><path class="cls-3" d="M28.71,8.27a.25.25,0,0,0-.24,0,.25.25,0,0,0-.12.22v6.24a.16.16,0,0,1-.09.15.17.17,0,0,1-.17,0l-1-.59a.53.53,0,0,0-.49,0l-4.07,2.36a.47.47,0,0,0-.25.42v4.7a.48.48,0,0,0,.25.43l4.07,2.35a.48.48,0,0,0,.49,0l4.07-2.35a.48.48,0,0,0,.25-.43V10.05a.5.5,0,0,0-.25-.43Zm-.37,12a.12.12,0,0,1-.07.1l-1.39.81a.15.15,0,0,1-.13,0l-1.4-.81a.13.13,0,0,1-.06-.1V18.61a.13.13,0,0,1,.06-.1l1.4-.81a.15.15,0,0,1,.13,0l1.39.81a.12.12,0,0,1,.07.1Z"/><path class="cls-3" d="M42.27,18.57a.48.48,0,0,0,.25-.42V17a.48.48,0,0,0-.25-.43l-4-2.35a.48.48,0,0,0-.49,0l-4.08,2.35a.5.5,0,0,0-.24.43v4.7a.47.47,0,0,0,.25.42l4,2.31a.46.46,0,0,0,.48,0l2.45-1.36a.23.23,0,0,0,.13-.21.27.27,0,0,0-.12-.22l-4.1-2.35a.23.23,0,0,1-.13-.21V18.62a.26.26,0,0,1,.13-.22l1.27-.73a.23.23,0,0,1,.25,0l1.27.73a.26.26,0,0,1,.13.22v1.16a.25.25,0,0,0,.12.21.28.28,0,0,0,.25,0Z"/><path class="cls-4" d="M37.92,18.35a.09.09,0,0,1,.1,0l.78.45a.09.09,0,0,1,0,.08v.91a.09.09,0,0,1,0,.08l-.78.45a.09.09,0,0,1-.1,0l-.78-.45a.1.1,0,0,1,0-.08v-.91a.1.1,0,0,1,0-.08Z"/><path id="_Clipping_Path_2" data-name="&lt;Clipping Path&gt;" class="cls-5" d="M15.94,14.26a.48.48,0,0,0-.49,0l-4,2.33a.5.5,0,0,0-.25.43v4.67a.5.5,0,0,0,.25.43l4,2.34a.53.53,0,0,0,.49,0l4-2.34a.5.5,0,0,0,.24-.43V17a.5.5,0,0,0-.24-.43Z"/><g class="cls-6"><path class="cls-7" d="M15.44,14.26l-4.37,2.33c-.16.09-.58.25-.58.43v4.67c0,.12.36.23.44.32l4.72-7.81C15.53,14.17,15.55,14.19,15.44,14.26Z"/><path class="cls-7" d="M15.83,24.5l.11,0,3.68-2.34c.15-.09-.13-.25-.13-.43V17c0-.13.32-.25.23-.34Z"/><path class="cls-8" d="M20,16.59l-4.06-2.33-.12-.06L11.25,22a.69.69,0,0,0,.13.11l4.07,2.34a.5.5,0,0,0,.38,0l4.27-7.82A.48.48,0,0,0,20,16.59Z"/><path class="cls-7" d="M19.49,21.69V17c0-.18.27-.34.12-.43l-3.87-2.33s0,0-.05-.06l4.12,7.61S19.49,21.73,19.49,21.69Z"/><path class="cls-7" d="M11.07,16.59c-.16.09-.58.25-.58.43v4.67c0,.18.43.34.58.43l4.22,2.34a.91.91,0,0,0,.4.06l-4.48-7.94Z"/><polygon class="cls-9" points="15.31 13.4 15.26 13.43 15.33 13.43 15.31 13.4"/><path class="cls-10" d="M20,22.12a.57.57,0,0,0,.24-.31L15.78,14.2a.51.51,0,0,0-.34.06l-4,2.32,4.35,7.94a.48.48,0,0,0,.18-.06Z"/><polygon class="cls-11" points="20.37 22.04 20.35 22 20.35 22.06 20.37 22.04"/><path class="cls-12" d="M20,22.12l-4.06,2.34a.48.48,0,0,1-.18.06l.16.14,4.57-2.6V22l-.18-.19C20.27,21.94,20.11,22.05,20,22.12Z"/><path class="cls-13" d="M20,22.12l-4.06,2.34a.48.48,0,0,1-.18.06l.16.14,4.57-2.6V22l-.18-.19C20.27,21.94,20.11,22.05,20,22.12Z"/></g></svg>