<svg id="Layer_1" data-name="Layer 1" xmlns="http://www.w3.org/2000/svg" xmlns:xlink="http://www.w3.org/1999/xlink" viewBox="0 0 42.52 42.52"><defs><style>.cls-1{fill:url(#linear-gradient);}.cls-2{fill:url(#linear-gradient-2);}.cls-3{opacity:0.44;isolation:isolate;fill:url(#radial-gradient);}</style><linearGradient id="linear-gradient" x1="-3.05" y1="811.23" x2="31.37" y2="781.61" gradientTransform="matrix(0.56, 0, 0, -0.57, 4.56, 461.77)" gradientUnits="userSpaceOnUse"><stop offset="0" stop-color="#5a9fd4"/><stop offset="1" stop-color="#306998"/></linearGradient><linearGradient id="linear-gradient-2" x1="44.68" y1="763.69" x2="32.39" y2="781.08" gradientTransform="matrix(0.56, 0, 0, -0.57, 4.56, 461.77)" gradientUnits="userSpaceOnUse"><stop offset="0" stop-color="#ffd43b"/><stop offset="1" stop-color="#ffe873"/></linearGradient><radialGradient id="radial-gradient" cx="1661.53" cy="260.98" r="9.17" gradientTransform="matrix(0, -0.24, -1.05, 0, 296.58, 439)" gradientUnits="userSpaceOnUse"><stop offset="0" stop-color="#b8b8b8" stop-opacity="0.5"/><stop offset="1" stop-color="#7f7f7f" stop-opacity="0"/></radialGradient></defs><title>Artboard 5</title><path id="path1948" class="cls-1" d="M21.05,0a23.84,23.84,0,0,0-4,.35c-3.59.63-4.24,1.95-4.24,4.4V8h8.47V9.05H9.6a5.29,5.29,0,0,0-5.29,4.29,15.8,15.8,0,0,0,0,8.6c.6,2.51,2,4.3,4.5,4.3h2.91V22.37A5.37,5.37,0,0,1,17,17.11h8.45a4.26,4.26,0,0,0,4.23-4.3V4.75A4.71,4.71,0,0,0,25.46.35,25.22,25.22,0,0,0,21.05,0ZM16.47,2.6a1.61,1.61,0,1,1-1.59,1.61A1.6,1.6,0,0,1,16.47,2.6Z"/><path id="path1950" class="cls-2" d="M30.75,9.05v3.76a5.43,5.43,0,0,1-5.29,5.36H17a4.33,4.33,0,0,0-4.24,4.31v8.06c0,2.29,2,3.64,4.24,4.3a14.13,14.13,0,0,0,8.45,0c2.13-.62,4.23-1.86,4.23-4.3V27.31H21.24V26.24H33.93c2.46,0,3.37-1.72,4.23-4.3a14.52,14.52,0,0,0,0-8.6c-.61-2.45-1.77-4.29-4.23-4.29ZM26,29.46a1.62,1.62,0,1,1-1.58,1.61A1.6,1.6,0,0,1,26,29.46Z"/><path id="path1894" class="cls-3" d="M32.68,40.32c0,1.21-5.08,2.2-11.35,2.2S10,41.53,10,40.32s5.08-2.2,11.34-2.2S32.68,39.1,32.68,40.32Z"/></svg>