<svg id="Layer_1" data-name="Layer 1" xmlns="http://www.w3.org/2000/svg" viewBox="0 0 42.52 42.52"><defs><style>.cls-1{fill:#719e40;}.cls-2{fill:#fff;}</style></defs><title>Artboard 2</title><path class="cls-1" d="M37.81,29.32a.45.45,0,0,1-.45-.45V27.51a3.29,3.29,0,0,0-3.15-3.3.45.45,0,1,1,0-.9,4.18,4.18,0,0,1,4,4.2v1.36A.45.45,0,0,1,37.81,29.32Z"/><path class="cls-2" d="M29.16,42a3,3,0,0,1-3-3V36a2.39,2.39,0,0,0-2.38-2.38A2.39,2.39,0,0,0,21.42,36v3a3,3,0,0,1-3,3H15.81a3,3,0,0,1-3-3V15.24h-.57a1,1,0,0,0-1,1v6.26a3,3,0,0,1-2.54,2.95,2.56,2.56,0,0,1-.47,0h-3a3,3,0,0,1-2.8-2,3,3,0,0,1-.18-1V18.84a1.21,1.21,0,0,1,1.21-1.21H4.4a1.21,1.21,0,0,1,1.21,1.21v2.53a1,1,0,0,0,1,1H7a1,1,0,0,0,1-1V14.65a3,3,0,0,1,2.51-3,2.56,2.56,0,0,1,.47,0h1.87v-.15a11,11,0,0,1,18.7-7.78,5.88,5.88,0,0,1,1-.08h3.49a4.2,4.2,0,0,1,4.2,4.2V18.37a4.2,4.2,0,0,1-4.2,4.2H34.77V39a3,3,0,0,1-3,3Z"/><path class="cls-1" d="M23.8,1.08a10.38,10.38,0,0,1,7.37,3.06l.18.18a5.34,5.34,0,0,1,1.21-.13h3.49a3.66,3.66,0,0,1,3.66,3.66V18.37A3.66,3.66,0,0,1,36.05,22H34.23V39a2.45,2.45,0,0,1-2.45,2.44H29.16A2.44,2.44,0,0,1,26.72,39V36A2.92,2.92,0,0,0,25.86,34a2.87,2.87,0,0,0-2.06-.85A2.92,2.92,0,0,0,20.88,36v3a2.42,2.42,0,0,1-.77,1.77,2.38,2.38,0,0,1-1.67.67H15.81A2.44,2.44,0,0,1,13.37,39V14.85a1.5,1.5,0,0,0-.67-.16h-.44a1.51,1.51,0,0,0-1.51,1.51v6.26a2.48,2.48,0,0,1-2.08,2.42c-.13,0-.26,0-.39,0h-3A2.44,2.44,0,0,1,3,23.3a2.32,2.32,0,0,1-.15-.84V18.84a.67.67,0,0,1,.67-.67H4.4a.67.67,0,0,1,.67.67v2.53a1.51,1.51,0,0,0,1.51,1.5H7a1.5,1.5,0,0,0,1.51-1.5V14.65a2.43,2.43,0,0,1,2.06-2.41,2.33,2.33,0,0,1,.38,0h2.41v-.69A10.43,10.43,0,0,1,23.8,1.08M23.8,0A11.53,11.53,0,0,0,12.29,11.12H11a3.39,3.39,0,0,0-.55,0,3.51,3.51,0,0,0-3,3.49v6.72a.42.42,0,0,1-.43.42H6.58a.42.42,0,0,1-.42-.42V18.84A1.75,1.75,0,0,0,4.4,17.09H3.48a1.75,1.75,0,0,0-1.75,1.75v3.62A3.52,3.52,0,0,0,5.25,26h3a3.39,3.39,0,0,0,.55,0,3.57,3.57,0,0,0,3-3.49V16.2a.42.42,0,0,1,.42-.42h0V39a3.53,3.53,0,0,0,3.52,3.53h2.63A3.53,3.53,0,0,0,22,39V36a1.85,1.85,0,0,1,1.84-1.84A1.84,1.84,0,0,1,25.64,36v3a3.52,3.52,0,0,0,1.1,2.56,3.47,3.47,0,0,0,2.42,1h2.62A3.53,3.53,0,0,0,35.31,39V23.11h.74a4.74,4.74,0,0,0,4.74-4.74V7.85A4.75,4.75,0,0,0,36.05,3.1H32.56a5.83,5.83,0,0,0-.84.06A11.44,11.44,0,0,0,23.8,0Z"/><circle class="cls-1" cx="18.67" cy="10.41" r="1.31"/><path class="cls-2" d="M37.81,31.2c-.65,0-.78-1.8-.78-1.82a.78.78,0,0,1,1.56,0S38.46,31.2,37.81,31.2Z"/><path class="cls-1" d="M37.81,28.87a.51.51,0,0,1,.51.51c0,.29-.23,1.55-.51,1.55s-.51-1.26-.51-1.55a.51.51,0,0,1,.51-.51m0-.54a1,1,0,0,0-1.05,1.05,5.23,5.23,0,0,0,.16,1c.09.32.29,1.07.89,1.07s.8-.75.89-1.07a5.37,5.37,0,0,0,.17-1,1.06,1.06,0,0,0-1.06-1.05Z"/><g id="_Group_" data-name="&lt;Group&gt;"><path class="cls-1" d="M38.66,8H37.58A1.93,1.93,0,0,0,35.65,6.1V5A3,3,0,0,1,38.66,8Z"/></g><path class="cls-1" d="M36.05,3.29H32.56a7.33,7.33,0,0,0-1.41.14A6.77,6.77,0,0,0,25.82,10v.88h.9V10a5.84,5.84,0,0,1,4.63-5.71,5.34,5.34,0,0,1,1.21-.13h3.49a3.66,3.66,0,0,1,3.66,3.66V18.37A3.66,3.66,0,0,1,36.05,22h-3.4a5.94,5.94,0,0,1-5.93-5.93v-.2h-.9v.2a6.83,6.83,0,0,0,6.83,6.83h3.4a4.56,4.56,0,0,0,4.56-4.56V7.85A4.56,4.56,0,0,0,36.05,3.29Z"/></svg>