<?xml version="1.0" encoding="utf-8"?>
<!-- Generator: Adobe Illustrator 22.0.0, SVG Export Plug-In . SVG Version: 6.00 Build 0)  -->
<svg version="1.1" id="Layer_1" xmlns="http://www.w3.org/2000/svg" xmlns:xlink="http://www.w3.org/1999/xlink" x="0px" y="0px"
	 viewBox="0 0 42.5 42.5" style="enable-background:new 0 0 42.5 42.5;" xml:space="preserve">
<style type="text/css">
	.st0{fill:#F7981D;}
	.st1{fill:none;}
</style>
<title>Artboard 30</title>
<polygon class="st0" points="5.5,28.9 3,28 3,24.3 5.5,25.1 "/>
<polygon class="st0" points="5.9,28.9 8.4,28 8.4,24.3 5.9,25.1 "/>
<polygon class="st0" points="3.2,24 5.8,23.3 8.1,24.1 5.8,24.9 "/>
<polygon class="st0" points="2.5,23.7 0,22.8 0,19.2 2.5,20 "/>
<polygon class="st0" points="3,23.7 5.5,22.8 5.5,19.2 3,20 "/>
<polygon class="st0" points="0.3,18.9 2.8,18.2 5.1,18.9 2.8,19.7 "/>
<polygon class="st0" points="8.3,23.7 5.8,22.8 5.8,19.2 8.3,20 "/>
<polygon class="st0" points="8.8,23.7 11.3,22.8 11.3,19.2 8.8,20 "/>
<polygon class="st0" points="6.1,18.9 8.6,18.2 11,18.9 8.6,19.7 "/>
<polygon class="st0" points="11.3,18.6 8.8,17.7 8.8,14.1 11.3,14.9 "/>
<polygon class="st0" points="11.8,18.6 14.3,17.7 14.3,14.1 11.8,14.9 "/>
<polygon class="st0" points="9.1,13.8 11.6,13.1 13.9,13.8 11.6,14.6 "/>
<polygon class="st0" points="17.1,18.6 14.6,17.7 14.6,14.1 17.1,14.9 "/>
<polygon class="st0" points="17.6,18.6 20.1,17.7 20.1,14.1 17.6,14.9 "/>
<polygon class="st0" points="14.9,13.8 17.4,13.1 19.8,13.8 17.4,14.6 "/>
<polygon points="15.9,26.5 15,29.4 14.7,29.4 14,27.2 13.4,29.4 13,29.4 12.2,26.5 12.6,26.5 13.3,28.6 13.9,26.5 14.2,26.5 
	14.9,28.6 15.5,26.5 "/>
<polygon class="st1" points="15.9,26.5 15,29.4 14.7,29.4 14,27.2 13.4,29.4 13,29.4 12.2,26.5 12.6,26.5 13.3,28.6 13.9,26.5 
	14.2,26.5 14.9,28.6 15.5,26.5 "/>
<path d="M18.2,28.5l0.4,0.1c-0.1,0.3-0.2,0.5-0.5,0.6c-0.6,0.4-1.3,0.3-1.8-0.2c-0.3-0.3-0.4-0.7-0.4-1.1c0-0.4,0.1-0.8,0.4-1.1
	c0.2-0.3,0.6-0.5,1-0.4c0.3,0,0.7,0.1,0.9,0.4c0.3,0.4,0.4,0.8,0.4,1.2h-2.1c0,0.3,0.1,0.6,0.3,0.9c0.2,0.1,0.4,0.2,0.6,0.2
	C17.8,29.1,18.1,28.9,18.2,28.5 M18.2,27.7c0-0.1,0-0.3-0.1-0.4c-0.1-0.1-0.1-0.2-0.3-0.3c-0.1-0.1-0.3-0.1-0.4-0.1
	c-0.2,0-0.4,0.1-0.6,0.3c-0.2,0.2-0.3,0.4-0.3,0.6H18.2z"/>
<path class="st1" d="M18.2,28.5l0.4,0.1c-0.1,0.3-0.2,0.5-0.5,0.6c-0.6,0.4-1.3,0.3-1.8-0.2c-0.3-0.3-0.4-0.7-0.4-1.1
	c0-0.4,0.1-0.8,0.4-1.1c0.2-0.3,0.6-0.5,1-0.4c0.3,0,0.7,0.1,0.9,0.4c0.3,0.4,0.4,0.8,0.4,1.2h-2.1c0,0.3,0.1,0.6,0.3,0.9
	c0.2,0.1,0.4,0.2,0.6,0.2C17.8,29.1,18.1,28.9,18.2,28.5z M18.2,27.6c0-0.1,0-0.3-0.1-0.4c-0.1-0.1-0.1-0.2-0.3-0.3
	c-0.1-0.1-0.3-0.1-0.4-0.1c-0.2,0-0.4,0.1-0.6,0.3c-0.2,0.2-0.3,0.4-0.3,0.6H18.2z"/>
<path d="M19.5,29.4h-0.2v-3.9h0.5V27c0.1-0.3,0.5-0.6,0.9-0.6c0.3,0,0.6,0.1,0.8,0.4c0.2,0.3,0.4,0.7,0.3,1.1c0,0.4-0.1,0.8-0.3,1.1
	c-0.2,0.3-0.5,0.5-0.9,0.4c-0.4,0-0.7-0.2-0.9-0.6L19.5,29.4z M19.7,28.2c0,0.2,0.1,0.5,0.3,0.6c0.1,0.1,0.3,0.2,0.5,0.2
	c0.2,0,0.4-0.1,0.5-0.3c0.2-0.2,0.2-0.5,0.2-0.8c0-0.3-0.1-0.6-0.2-0.9c-0.1-0.2-0.3-0.3-0.6-0.3c-0.2,0-0.4,0.1-0.5,0.2
	c-0.2,0.2-0.3,0.4-0.3,0.6L19.7,28.2z"/>
<path class="st1" d="M19.5,29.4h-0.2v-3.9h0.5V27c0.1-0.3,0.5-0.6,0.9-0.6c0.3,0,0.6,0.1,0.8,0.4c0.2,0.3,0.4,0.7,0.3,1.1
	c0,0.4-0.1,0.8-0.3,1.1c-0.2,0.3-0.5,0.5-0.9,0.4c-0.4,0-0.7-0.2-0.9-0.6L19.5,29.4z M19.7,28.2c0,0.2,0.1,0.5,0.3,0.6
	c0.1,0.1,0.3,0.2,0.5,0.2c0.2,0,0.4-0.1,0.5-0.3c0.2-0.2,0.2-0.5,0.2-0.8c0-0.3-0.1-0.6-0.2-0.9c-0.1-0.2-0.3-0.3-0.6-0.3
	c-0.2,0-0.4,0.1-0.5,0.2c-0.2,0.2-0.3,0.4-0.3,0.6L19.7,28.2z"/>
<path d="M22.9,28.6l0.4-0.1c0.1,0.4,0.4,0.5,0.9,0.5c0.2,0,0.3,0,0.5-0.1c0.1-0.1,0.2-0.2,0.2-0.4c0-0.2-0.2-0.4-0.5-0.4L23.8,28
	c-0.2,0-0.4-0.1-0.6-0.3c-0.1-0.1-0.2-0.3-0.2-0.5c0-0.2,0.1-0.5,0.3-0.6c0.2-0.2,0.5-0.3,0.8-0.3c0.5-0.1,1,0.2,1.2,0.7l-0.4,0.1
	c-0.1-0.3-0.4-0.5-0.7-0.5c-0.2,0-0.3,0-0.5,0.1c-0.1,0.1-0.2,0.2-0.2,0.3c0,0.2,0.2,0.4,0.5,0.4l0.6,0.1c0.6,0.1,0.9,0.4,0.9,0.9
	c0,0.3-0.1,0.5-0.3,0.6c-0.3,0.2-0.6,0.3-0.9,0.3C23.6,29.5,23.1,29.1,22.9,28.6"/>
<path class="st1" d="M22.9,28.6l0.4-0.1c0.1,0.4,0.4,0.5,0.9,0.5c0.2,0,0.3,0,0.5-0.1c0.1-0.1,0.2-0.2,0.2-0.4
	c0-0.2-0.2-0.4-0.5-0.4L23.8,28c-0.2,0-0.4-0.1-0.6-0.3c-0.1-0.1-0.2-0.3-0.2-0.5c0-0.2,0.1-0.5,0.3-0.6c0.2-0.2,0.5-0.3,0.8-0.3
	c0.5-0.1,1,0.2,1.2,0.7l-0.4,0.1c-0.1-0.3-0.4-0.5-0.7-0.5c-0.2,0-0.3,0-0.5,0.1c-0.1,0.1-0.2,0.2-0.2,0.3c0,0.2,0.2,0.4,0.5,0.4
	l0.6,0.1c0.6,0.1,0.9,0.4,0.9,0.9c0,0.3-0.1,0.5-0.3,0.6c-0.3,0.2-0.6,0.3-0.9,0.3C23.6,29.5,23.1,29.2,22.9,28.6z"/>
<path d="M27.8,28.5l0.4,0.1c-0.1,0.2-0.2,0.5-0.5,0.6c-0.2,0.2-0.5,0.3-0.8,0.3c-0.4,0-0.8-0.2-1-0.5c-0.3-0.3-0.4-0.7-0.4-1.1
	c0-0.4,0.1-0.8,0.4-1.1c0.2-0.3,0.6-0.5,1-0.4c0.3,0,0.7,0.1,0.9,0.4c0.3,0.4,0.4,0.8,0.4,1.3h-2.1c0,0.3,0.1,0.6,0.3,0.9
	c0.2,0.1,0.4,0.2,0.6,0.2C27.4,29.1,27.7,28.9,27.8,28.5 M27.8,27.7c0-0.2,0-0.3-0.1-0.4c-0.1-0.1-0.1-0.2-0.3-0.3
	c-0.1-0.1-0.3-0.1-0.4-0.1c-0.2,0-0.4,0.1-0.6,0.3c-0.2,0.2-0.3,0.4-0.3,0.6H27.8z"/>
<path class="st1" d="M27.8,28.5l0.4,0.1c-0.1,0.2-0.2,0.5-0.5,0.6c-0.2,0.2-0.5,0.3-0.8,0.3c-0.4,0-0.8-0.2-1-0.5
	c-0.3-0.3-0.4-0.7-0.4-1.1c0-0.4,0.1-0.8,0.4-1.1c0.2-0.3,0.6-0.5,1-0.4c0.3,0,0.7,0.1,0.9,0.4c0.3,0.4,0.4,0.8,0.4,1.3h-2.1
	c0,0.3,0.1,0.6,0.3,0.9c0.2,0.1,0.4,0.2,0.6,0.2C27.4,29.1,27.7,28.9,27.8,28.5z M27.8,27.6c0-0.2,0-0.3-0.1-0.4
	c-0.1-0.1-0.1-0.2-0.3-0.3c-0.1-0.1-0.3-0.1-0.4-0.1c-0.2,0-0.4,0.1-0.6,0.3c-0.2,0.2-0.3,0.4-0.3,0.6H27.8z"/>
<path d="M29.2,29.4h-0.5v-2.9h0.4v0.7c0.1-0.2,0.2-0.5,0.4-0.6c0.1-0.1,0.3-0.1,0.4-0.1h0.2v0.4h-0.1c-0.2,0-0.5,0.1-0.6,0.3
	c-0.2,0.2-0.3,0.5-0.3,0.7L29.2,29.4z"/>
<path class="st1" d="M29.2,29.4h-0.5v-2.9h0.4v0.7c0.1-0.2,0.2-0.5,0.4-0.6c0.1-0.1,0.3-0.1,0.4-0.1h0.2v0.4h-0.1
	c-0.2,0-0.5,0.1-0.6,0.3c-0.2,0.2-0.3,0.5-0.3,0.7L29.2,29.4z"/>
<polygon points="33,26.5 32,29.4 31.6,29.4 30.5,26.5 31,26.5 31.8,28.8 32.6,26.5 "/>
<polygon class="st1" points="33,26.5 32,29.4 31.6,29.4 30.5,26.5 31,26.5 31.8,28.8 32.6,26.5 "/>
<path d="M33.9,25.9h-0.5v-0.5h0.5L33.9,25.9z M33.9,29.4h-0.5v-2.9h0.5V29.4z"/>
<path class="st1" d="M33.9,25.9h-0.5v-0.5h0.5L33.9,25.9z M33.9,29.4h-0.5v-2.9h0.5V29.4z"/>
<path d="M36.3,28.4l0.4,0.1c0,0.3-0.2,0.5-0.4,0.8c-0.2,0.2-0.5,0.3-0.7,0.3c-0.4,0-0.7-0.2-0.9-0.5c-0.2-0.3-0.3-0.7-0.3-1.1
	c0-0.4,0.1-0.8,0.3-1.1c0.2-0.3,0.5-0.5,0.9-0.4c0.3,0,0.6,0.1,0.8,0.3c0.2,0.2,0.3,0.5,0.3,0.7l-0.4,0.1c-0.1-0.5-0.3-0.7-0.7-0.7
	c-0.2,0-0.5,0.1-0.6,0.3c-0.1,0.3-0.2,0.5-0.2,0.8c0,0.3,0.1,0.6,0.2,0.9c0.1,0.2,0.3,0.3,0.6,0.3C35.9,29.1,36.2,28.8,36.3,28.4"/>
<path class="st1" d="M36.3,28.4l0.4,0.1c0,0.3-0.2,0.5-0.4,0.8c-0.2,0.2-0.5,0.3-0.7,0.3c-0.4,0-0.7-0.2-0.9-0.5
	c-0.2-0.3-0.3-0.7-0.3-1.1c0-0.4,0.1-0.8,0.3-1.1c0.2-0.3,0.5-0.5,0.9-0.4c0.3,0,0.6,0.1,0.8,0.3c0.2,0.2,0.3,0.5,0.3,0.7l-0.4,0.1
	c-0.1-0.5-0.3-0.7-0.7-0.7c-0.2,0-0.5,0.1-0.6,0.3c-0.1,0.3-0.2,0.5-0.2,0.8c0,0.3,0.1,0.6,0.2,0.9c0.1,0.2,0.3,0.3,0.6,0.3
	C35.9,29.1,36.2,28.8,36.3,28.4z"/>
<path d="M39.2,28.5l0.4,0.1c-0.1,0.2-0.2,0.5-0.5,0.6c-0.2,0.2-0.5,0.3-0.8,0.3c-0.4,0-0.8-0.1-1-0.4c-0.5-0.7-0.5-1.6,0-2.2
	c0.2-0.3,0.6-0.4,1-0.4c0.3,0,0.7,0.1,0.9,0.4c0.3,0.4,0.4,0.8,0.4,1.2h-2.1c0,0.3,0.1,0.6,0.3,0.9c0.2,0.1,0.4,0.2,0.6,0.2
	C38.8,29.1,39.1,28.9,39.2,28.5 M39.2,27.7c0-0.2,0-0.3-0.1-0.4c-0.1-0.1-0.1-0.2-0.3-0.3c-0.1-0.1-0.3-0.1-0.4-0.1
	c-0.2,0-0.4,0.1-0.6,0.3c-0.2,0.2-0.3,0.4-0.3,0.6H39.2z"/>
<path class="st1" d="M39.2,28.5l0.4,0.1c-0.1,0.2-0.2,0.5-0.5,0.6c-0.2,0.2-0.5,0.3-0.8,0.3c-0.4,0-0.8-0.1-1-0.4
	c-0.5-0.7-0.5-1.6,0-2.2c0.2-0.3,0.6-0.4,1-0.4c0.3,0,0.7,0.1,0.9,0.4c0.3,0.4,0.4,0.8,0.4,1.2h-2.1c0,0.3,0.1,0.6,0.3,0.9
	c0.2,0.1,0.4,0.2,0.6,0.2C38.8,29.1,39.1,28.9,39.2,28.5z M39.2,27.6c0-0.2,0-0.3-0.1-0.4c-0.1-0.1-0.1-0.2-0.3-0.3
	c-0.1-0.1-0.3-0.1-0.4-0.1c-0.2,0-0.4,0.1-0.6,0.3c-0.2,0.2-0.3,0.4-0.3,0.6H39.2z"/>
<path d="M40,28.6l0.4-0.1c0.1,0.4,0.4,0.5,0.9,0.5c0.2,0,0.3,0,0.5-0.1c0.1-0.1,0.2-0.2,0.2-0.4c0-0.2-0.2-0.4-0.5-0.4L40.9,28
	c-0.2,0-0.4-0.1-0.6-0.3c-0.1-0.1-0.2-0.3-0.2-0.5c0-0.2,0.1-0.5,0.3-0.6c0.2-0.2,0.5-0.3,0.8-0.3c0.5-0.1,1,0.2,1.2,0.7l-0.4,0.1
	c-0.1-0.3-0.4-0.5-0.7-0.5c-0.2,0-0.3,0-0.5,0.1c-0.1,0.1-0.2,0.2-0.2,0.3c0,0.2,0.2,0.4,0.5,0.4l0.6,0.1c0.6,0.1,0.9,0.4,0.9,0.9
	c0,0.3-0.1,0.5-0.3,0.6c-0.3,0.2-0.6,0.3-0.9,0.3C40.7,29.5,40.2,29.1,40,28.6"/>
<path class="st1" d="M40,28.6l0.4-0.1c0.1,0.4,0.4,0.5,0.9,0.5c0.2,0,0.3,0,0.5-0.1c0.1-0.1,0.2-0.2,0.2-0.4c0-0.2-0.2-0.4-0.5-0.4
	L40.9,28c-0.2,0-0.4-0.1-0.6-0.3c-0.1-0.1-0.2-0.3-0.2-0.5c0-0.2,0.1-0.5,0.3-0.6c0.2-0.2,0.5-0.3,0.8-0.3c0.5-0.1,1,0.2,1.2,0.7
	l-0.4,0.1c-0.1-0.3-0.4-0.5-0.7-0.5c-0.2,0-0.3,0-0.5,0.1c-0.1,0.1-0.2,0.2-0.2,0.3c0,0.2,0.2,0.4,0.5,0.4l0.6,0.1
	c0.6,0.1,0.9,0.4,0.9,0.9c0,0.3-0.1,0.5-0.3,0.6c-0.3,0.2-0.6,0.3-0.9,0.3C40.7,29.5,40.2,29.1,40,28.6z"/>
<path d="M29.7,20.2v-0.7c0-0.1,0.1-0.2,0.2-0.2c0,0,0,0,0,0H33c0.1,0,0.2,0.1,0.2,0.2c0,0,0,0,0,0v0.6c0,0.1-0.1,0.2-0.2,0.5
	l-1.6,2.3c0.6,0,1.2,0.1,1.8,0.4c0.1,0.1,0.2,0.2,0.2,0.3v0.7c0,0.1-0.1,0.2-0.2,0.2c-1-0.5-2.3-0.5-3.3,0c-0.1,0.1-0.2-0.1-0.2-0.2
	v-0.7c0-0.2,0-0.3,0.1-0.5l1.9-2.7h-1.6C29.8,20.4,29.7,20.3,29.7,20.2C29.7,20.2,29.7,20.2,29.7,20.2"/>
<path d="M18.5,24.6h-1c-0.1,0-0.2-0.1-0.2-0.2v-4.9c0-0.1,0.1-0.2,0.2-0.2l0,0h0.9c0.1,0,0.2,0.1,0.2,0.2v0.6l0,0
	c0.2-0.7,1-1.1,1.7-0.8c0.4,0.1,0.7,0.4,0.8,0.8c0.3-0.7,1.1-1.1,1.8-0.8c0.2,0.1,0.4,0.2,0.6,0.4c0.2,0.5,0.3,1,0.2,1.5v3.1
	c0,0.1-0.1,0.2-0.2,0.2h-1c-0.1,0-0.2-0.1-0.2-0.2l0,0v-2.6c0-0.3,0-0.6,0-0.9c0-0.3-0.3-0.5-0.6-0.4c-0.3,0-0.5,0.2-0.6,0.4
	c-0.1,0.3-0.1,0.6-0.1,0.9v2.6c0,0.1-0.1,0.2-0.2,0.2h-1c-0.1,0-0.2-0.1-0.2-0.2l0,0v-2.6c0-0.5,0.1-1.4-0.6-1.4s-0.7,0.8-0.7,1.4
	v2.6C18.6,24.5,18.5,24.6,18.5,24.6"/>
<path d="M35.5,19.3c1.4,0,2.2,1.2,2.2,2.8s-0.8,2.7-2.2,2.7s-2.1-1.2-2.1-2.7S34.2,19.3,35.5,19.3 M35.5,20.4c-0.7,0-0.8,1-0.8,1.6
	s0,1.8,0.7,1.8s0.8-0.9,0.8-1.5c0-0.4,0-0.9-0.1-1.3C36.1,20.6,35.8,20.4,35.5,20.4"/>
<path d="M39.7,24.6h-1c-0.1,0-0.2-0.1-0.2-0.2v-4.9c0-0.1,0.1-0.2,0.2-0.2c0,0,0,0,0,0h0.9c0.1,0,0.2,0.1,0.2,0.1v0.8l0,0
	c0.1-0.6,0.7-1,1.3-1c0.4,0,0.9,0.2,1.1,0.6c0.2,0.5,0.3,1,0.3,1.5v3.1c0,0.1-0.1,0.2-0.2,0.1h-1c-0.1,0-0.2-0.1-0.2-0.1v-2.7
	c0-0.5,0.1-1.3-0.6-1.3c-0.2,0-0.5,0.2-0.5,0.4c-0.1,0.3-0.2,0.6-0.2,0.9v2.6C39.9,24.5,39.8,24.6,39.7,24.6"/>
<g>
	<polygon points="28.3,24.6 28.3,24.6 28.3,24.6 	"/>
	<path d="M29,23.7c-0.2-0.2-0.4-0.6-0.4-0.9v-1.5c0.1-0.6,0-1.2-0.4-1.6c-0.4-0.3-0.9-0.5-1.4-0.5c-1-0.1-1.9,0.5-2.1,1.5
		c0,0.1,0,0.2,0.1,0.2l0.9,0.1c0.1,0,0.2-0.1,0.2-0.2c0.1-0.4,0.4-0.6,0.8-0.6c0.2,0,0.4,0.1,0.5,0.3c0.1,0.2,0.1,0.5,0.1,0.7v0.1
		c-0.6,0-1.2,0.1-1.8,0.3c-0.6,0.3-1,0.9-1,1.6c0,0.1,0,0.1,0,0.2c0,0.7,0.7,1.3,1.4,1.3c0.6,0,1.2-0.2,1.6-0.7
		c0.1,0.2,0.3,0.5,0.5,0.6c0.1,0,0.2,0,0.2,0L29,24c0,0,0,0,0.1-0.1C29.1,23.9,29.1,23.7,29,23.7z M27.3,22.3c0,0.3,0,0.7-0.2,1
		c-0.1,0.3-0.4,0.4-0.7,0.4c-0.4,0-0.6-0.3-0.6-0.7c0-0.8,0.7-1,1.4-1V22.3z"/>
</g>
<g>
	<path d="M16.6,23.7c-0.2-0.2-0.4-0.6-0.4-0.9v-1.5c0-0.6,0-1.2-0.4-1.6c-0.4-0.3-0.9-0.5-1.4-0.5c-1-0.1-1.9,0.5-2.1,1.5
		c0,0,0,0,0,0c0,0.1,0.1,0.2,0.2,0.2l0.9,0.1c0.1,0,0.2-0.1,0.2-0.2c0.1-0.4,0.4-0.6,0.8-0.6c0.2,0,0.4,0.1,0.5,0.3
		c0.1,0.2,0.2,0.5,0.1,0.7v0.1c-0.6,0-1.2,0.1-1.8,0.3c-0.6,0.3-1,0.9-1,1.6c0,0.1,0,0.1,0,0.2c0,0.7,0.7,1.3,1.4,1.3
		c0.6,0,1.2-0.2,1.6-0.7c0.1,0.2,0.3,0.5,0.5,0.6c0.1,0.1,0.2,0.1,0.2,0l0,0c0.2-0.2,0.6-0.6,0.7-0.6S16.7,23.8,16.6,23.7z
		 M14.9,22.3c0,0.3,0,0.7-0.2,1c-0.1,0.3-0.4,0.4-0.7,0.4c-0.4,0-0.6-0.3-0.6-0.7c0-0.8,0.7-1,1.4-1V22.3z"/>
</g>
</svg>
