<svg id="Layer_1" data-name="Layer 1" xmlns="http://www.w3.org/2000/svg" viewBox="0 0 42.52 42.52"><defs><style>.cls-1{fill:#543729;}.cls-2{fill:#ef5734;}.cls-3{fill:#ffcc2f;}.cls-4{fill:#2baf2b;}.cls-5{fill:none;}.cls-6{fill:#cecece;}.cls-7{fill:#00acee;}.cls-8{fill:#fff;}</style></defs><title>Artboard 19</title><path class="cls-1" d="M40.5,20.07c-.77-.39-3.83-1.28-3.84-1.28C35.59,18.41,25.13,17,25.13,17l.47-1.29L27,15.2a9.15,9.15,0,0,1,.63,1.25S31.32,16.4,33,14.8c2.46-2.36,1.88-5.43,2.85-7.68A21.53,21.53,0,0,1,37.8,4.46c-6.86-1.07-10,4.89-10.38,5.53a10,10,0,0,0-1.87-.47,13.21,13.21,0,0,0-2.14-3.79,9.19,9.19,0,0,0-7.15-3.11,15.41,15.41,0,0,0-5.06.94A18.08,18.08,0,0,0,3,10.07,16.3,16.3,0,0,0,.22,16.86a19.86,19.86,0,0,0,.67,8.7c2.07,9.5,8,11.69,8,11.69,3.32.56,4.16-2,4.16-2l1.36,3.56s1.5,1.71,2.95.57a2.94,2.94,0,0,0,4-.6s3.11.75,3.76-2.16c0,0,1.52-.13,1.2-2.64L24,29.64a4,4,0,0,0,2.18.73,3,3,0,0,0,2.62-.8h0a6.84,6.84,0,0,0,2.88.81,3.11,3.11,0,0,0,2.74-1.48,3.89,3.89,0,0,0,2.27.15c1.59-.34,2.72-1.47,2.62-2.58h0a3.43,3.43,0,0,0,3.11-2.83A3.25,3.25,0,0,0,40.5,20.07Z"/><path class="cls-2" d="M15.67,22s4.16.4,7-2a9.75,9.75,0,0,1-12.34,5.78s-2.2,2.08-7.32.09c-.08-.21-.16-.42-.22-.62C-1.06,12.7,8.27,6.38,11.9,5.11c9.49-3.3,11.77,4.17,11.77,4.17C21,12.22,22,15.49,23,17.25,22.42,18.24,20.56,20.91,15.67,22Z"/><path class="cls-3" d="M33.5,22.76a.71.71,0,0,1,0,.14s0,0-.05.06,0,0,0,.06h0s0,0,0,0,0,0-.05.06h0a.09.09,0,0,1,0,.07,1.57,1.57,0,0,1-.17.21l-.08.09-.06.06-.2.18s-.05.06-.07.07a2.31,2.31,0,0,1-2.22.2h0v0s0,0,0,.05h0a.14.14,0,0,0,0,.06s0,0,0,.06h0s0,.05,0,.07,0,0,0,.06a1,1,0,0,1,0,.39c-.09.44-.49.87-1.39,1.31a2.9,2.9,0,0,1-2.23.08l-.1,0-.51-.21h0a.84.84,0,0,1-.28.79s0,0,0,.05,0,0,0,0l-.05.05-.06,0-.07.05-.1.06-.08,0-.08,0a2.9,2.9,0,0,1-.88.22,2.72,2.72,0,0,1-2.22-.72l.8,1.78-.11-.08c.5,1.28-.3,2.79-1.21,4.18-2,3.07-6.81,2.47-6.81,2.47A14.52,14.52,0,0,1,3.06,25.91c5.12,2,7.32-.09,7.32-.09A9.75,9.75,0,0,0,22.72,20a6.86,6.86,0,0,0,1.35-1.48,100.91,100.91,0,0,1,12.7,2.08l.77.24-8.77.58-2.16-.18,6.85,1.36v0h0v0S33.49,22.73,33.5,22.76Z"/><path class="cls-4" d="M33.5,22.76a.71.71,0,0,1,0,.14s0,0,0,.06a.14.14,0,0,1,0,.06h0s0,0,0,0,0,0-.07.06h0a.09.09,0,0,1,0,.07,1.46,1.46,0,0,1-.16.21l-.09.09-.06.06-.2.18a.18.18,0,0,0-.07.05,2.32,2.32,0,0,1-2.22.18s0,.08.05.13,0,.08,0,.13c.14.6-.18,1.17-1.38,1.76a3.07,3.07,0,0,1-2.74-.15c.06.41-.35,1.22-1.77,1.37a2.72,2.72,0,0,1-2.22-.72l.8,1.78a4.83,4.83,0,0,0,2.5.8c1.46,0,2-.54,2.07-.88,0,0,4.58,1.59,4.48-1.22,0,0,4.48,1,3.56-2,0,0,2.87.45,3.58-1.06l-6-1.2Zm-2.39-1.05c2.86.27,6.44.66,8.62.9-.18-1.17-1.2-1.47-2.24-1.7h0l-5.81.38-2.81.18c.9.08,1.63.15,2.24.25Z"/><line class="cls-5" x1="22.5" y1="26.48" x2="22.5" y2="26.48"/><path class="cls-6" d="M26.85,13.57a7.07,7.07,0,0,0-1.45.4,2.44,2.44,0,0,1-2.25-.43,4.31,4.31,0,0,0,1.83.13A10.6,10.6,0,0,1,28.09,13a9.15,9.15,0,0,1,3.15.66s-3.31-3.32-7.11-3.21a4.78,4.78,0,0,0-.65,5.15,10.83,10.83,0,0,1,3.43-1.45Z"/><path class="cls-7" d="M29.88,8.53a7,7,0,0,0-1.3,1.91c.29.14.73.37,1.28.7a9.07,9.07,0,0,1,1.16-2A7.92,7.92,0,0,1,33.6,6.92l.09,0L33.62,7a31,31,0,0,0-2.87,4.12c-.09.16-.18.32-.26.49a16.8,16.8,0,0,1,2.26,1.87,4.33,4.33,0,0,0,1-2.37c.51-4,2.07-5.65,2.07-5.65A9.65,9.65,0,0,0,29.88,8.53Zm-.7,5.66v-.1c0-.07,0-.17,0-.29l0-.26A7.1,7.1,0,0,0,28,13.43a5.78,5.78,0,0,0,.38,1.84,7.1,7.1,0,0,0,3.36-1,18,18,0,0,0-2.31-.67Z"/><circle class="cls-3" cx="16.43" cy="12.12" r="3.73"/><circle class="cls-1" cx="16.43" cy="12.12" r="2.23"/><ellipse class="cls-8" cx="16.41" cy="11.1" rx="1.32" ry="0.8"/></svg>