<svg id="Layer_1" data-name="Layer 1" xmlns="http://www.w3.org/2000/svg" viewBox="0 0 42.52 42.52"><defs><style>.cls-1{fill:#932279;}.cls-2{fill:#efa724;}.cls-3{fill:#262577;}.cls-4{fill:#9ccd2a;}.cls-5{fill:#fff;}</style></defs><title>Artboard 51</title><g id="g3664"><g id="g12802"><g id="g12804"><g id="g12806"><g id="path12808"><path class="cls-1" d="M17.9,19.7l1.55,1.54L17.9,22.77H7.06v5.1L.44,21.24l6.62-6.53v5Z"/></g></g></g></g><g id="g12768"><g id="g12770"><g id="g12772"><g id="path12774"><path class="cls-2" d="M22.82,17.9l-1.54,1.54L19.75,17.9V7.06h-5.1L21.28.44l6.53,6.62h-5Z"/></g></g></g></g><g id="g12780"><g id="g12782"><g id="path12784"><path class="cls-3" d="M24.62,22.82l-1.55-1.54,1.55-1.53H35.46v-5.1l6.62,6.63-6.62,6.53v-5Z"/></g></g></g><g id="g12790"><g id="g12792"><g id="g12794"><g id="path12796"><path class="cls-4" d="M19.7,24.62l1.54-1.55,1.53,1.55V35.46h5.1l-6.63,6.62-6.53-6.62h5Z"/></g></g></g></g><g id="rect12744"><path class="cls-4" d="M6.67,6.67H19.85V19.85H6.67Z"/><path class="cls-5" d="M20.29,20.29H6.23V6.23H20.29ZM7.11,19.41h12.3V7.11H7.11Z"/></g><g id="rect12746"><path class="cls-1" d="M22.67,6.67H35.85V19.85H22.67Z"/><path class="cls-5" d="M36.29,20.29H22.23V6.23H36.29Zm-13.18-.88h12.3V7.11H23.11Z"/></g><g id="rect12748"><path class="cls-2" d="M22.67,22.67H35.85V35.85H22.67Z"/><path class="cls-5" d="M36.29,36.29H22.23V22.23H36.29Zm-13.18-.88h12.3V23.11H23.11Z"/></g><g id="rect12750"><path class="cls-3" d="M6.67,22.67H19.85V35.85H6.67Z"/><path class="cls-5" d="M20.29,36.29H6.23V22.23H20.29ZM7.11,35.41h12.3V23.11H7.11Z"/></g><g id="rect12760"><path class="cls-5" d="M9.94,31.2,0,21.26l9.94-9.94,10,9.94ZM1.25,21.26,9.94,30l8.7-8.69-8.7-8.69Z"/></g><g id="rect12762"><path class="cls-5" d="M21.26,19.89l-9.94-10L21.26,0,31.2,9.94Zm-8.69-10,8.69,8.7L30,9.94,21.26,1.25Z"/></g><g id="rect12764"><path class="cls-5" d="M32.58,31.2l-9.95-9.94,10-9.94,9.94,9.94Zm-8.7-9.94L32.58,30l8.69-8.69-8.69-8.69Z"/></g><g id="rect12766"><path class="cls-5" d="M21.26,42.52l-9.94-9.94,9.94-9.95,9.94,10Zm-8.69-9.94,8.69,8.69L30,32.58l-8.69-8.7Z"/></g></g></svg>