<svg id="Layer_1" data-name="Layer 1" xmlns="http://www.w3.org/2000/svg" viewBox="0 0 42.52 42.52"><defs><style>.cls-1{fill:#7d6a4c;}.cls-2{fill:#644d31;}.cls-3{fill:#885630;}.cls-4{fill:#fff;}.cls-5{fill:#1a1a1a;}.cls-6{fill:#2e2e2e;}.cls-7{fill:#f6e5cc;}</style></defs><title>Artboard 21</title><path class="cls-1" d="M27.8,35.31,33.46,33l.09-2,1-2,.21-2.25,1.11-3.38,1.23-2.83L37,19.85l-.19-.62.13-.7-.22-.83.12-.59-1.1-1.35-4.92,1.72.21.65-.46.77L31,20.22l-.67,1.33,1,2.85,2,1.08c-.1,0-2.58-.22-2.58-.22l.58,1.2-.68,1.88-.8.4-.67.21-1.33,1.54-1,2.42.83,2.4ZM7,18.33l5,.58.64,3.19-1.08,2.58.61.44L13.24,28l1.22,1.35.85.51,1.49,1.43,1.73,1.29-.61,1.32.1,1-.2.55-.38,1.05-3.62-1.05.1-.62-.51-.67.17-.65L8.63,29.9,8.25,29l-1.08-.33,0-7.77-.44-1.12L7,18.33Z"/><path class="cls-2" d="M32.5,24.07l-.27,0h-.09a.17.17,0,0,0-.16.13.35.35,0,0,0,0,.11v0l.74.27h0C32.7,24.37,32.77,24.13,32.5,24.07Zm-.17,2.53s0,0,0,0l0,.05c.11.13.21.26.31.4h0v0c0-.1.06-.36,0-.44S32.44,26.6,32.33,26.6ZM34.47,24a0,0,0,1,0,0,.09A0,0,0,0,0,34.47,24Zm0-4.64c0,.25,0,.4.28.4s.48,0,.49-.29c0-.11,0-.33-.06-.42s-.26,0-.35,0c-.32,0-.38,0-.36.35Zm-1,2c0-.06,0-.23,0-.3a1.11,1.11,0,0,0,0-.37c-.08-.11-.5-.07-.61,0s-.15.61,0,.68.55.07.63,0ZM17.39,34.11s0,0,0,0a.25.25,0,0,0,0-.09s0-.08,0-.13a.28.28,0,0,0,0-.09s0,0,0,0v0a.22.22,0,0,0,0-.08,1.64,1.64,0,0,0,0-.22h-.13a1.16,1.16,0,0,0-.49,0c-.09.05-.1.14-.1.25s0,.12,0,.17v0c0,.15,0,.25.17.29a1,1,0,0,0,.49,0s0,0,.07,0Zm.49-.64-.06,0a1.25,1.25,0,0,1-.31,0s0,.07,0,.1v.25h0v0s0,0,0,0a.52.52,0,0,0,0,.11.34.34,0,0,0,0,.09h.07a.46.46,0,0,1,.05-.21c.06-.15.17-.29.23-.43h0Zm-.31.85v0H17.5c0,.13,0,.25,0,.38v.13c0,.07.09.08.15.09h.18a3.54,3.54,0,0,0-.14-.62Zm.05.79-.09,0c-.05.08,0,.26,0,.37v0a.72.72,0,0,0,.19-.14.55.55,0,0,0,.12-.33l-.17,0ZM28,34.17c.17,0,.36,0,.46-.06a.64.64,0,0,0,.07-.34.55.55,0,0,0-.07-.34,1.35,1.35,0,0,0-.63,0,.27.27,0,0,0-.08.24v.16a.61.61,0,0,1,0,.14,0,0,0,0,0,0,0c0,.05,0,.1,0,.14s0,0,0,0h.15s0,0,.05,0Zm7-10.11c-.14,0-.44,0-.51.08a1,1,0,0,0,0,.6c.08.11.33.08.5.07h.08l0-.08a.09.09,0,0,0,0-.05.42.42,0,0,1,.06-.21v0h0C35.05,24.26,35.26,24.1,35,24.06ZM9.12,19.7c.12.06.59.06.65-.08S9.65,19,9.88,19a.32.32,0,0,0-.17,0c-.18.13-.51-.09-.65.09S9,19.62,9.12,19.7ZM32.65,32.61a.23.23,0,0,0-.13-.06c-.14,0-.42,0-.51.08a.78.78,0,0,0,0,.6c0,.06.11.07.19.08a1.13,1.13,0,0,1,.26,0h.19l0,0v-.16c0-.17,0-.33,0-.5Zm-2.2-.93h0c-.24,0-.19.24-.18.41s0,.33.24.34.39.05.49-.09,0-.35,0-.52l0-.06s-.07-.09-.1-.09h-.07A1.55,1.55,0,0,1,30.45,31.68ZM13,31.7c-.12,0-.44,0-.52.07s0,.44,0,.6l0,0a.06.06,0,0,0,0,0s0,0,0,0v0l.09.06a1.62,1.62,0,0,1,.44,0c.22,0,.17-.22.17-.38s0-.35-.2-.37ZM31.55,18h.18a.14.14,0,0,1,.12-.07s0-.06,0-.09a.06.06,0,0,1,0-.05,2.5,2.5,0,0,0-.05-.29h0c-.2.12-.32,0-.25.35A.75.75,0,0,1,31.55,18Zm.12.85c.17,0,.15-.35.15-.45s0-.1,0-.14a.16.16,0,0,1-.12-.12h-.19a2.85,2.85,0,0,1-.45.6v.1C31.26,18.88,31.5,18.84,31.67,18.85Zm1.84,5.24a1,1,0,0,0-.64,0c-.15.12,0,.4-.1.56l.18.12.08,0,0,0h0a.08.08,0,0,1,.1,0c.11-.06.28,0,.37-.08a1.11,1.11,0,0,0,0-.65ZM8,27.48c-.13-.11-.43,0-.59-.06a2.9,2.9,0,0,0-.12.57,1.49,1.49,0,0,0,0,.21h0c.2,0,.78.11.74-.21,0-.15.06-.4-.06-.51Zm25.48-.17c.11-.1,0-.43,0-.56s-.49-.19-.63-.13-.07.41-.15.6a.26.26,0,0,0,.1.13c.14,0,.51.07.63,0Zm1.6-10.13c.11,0,.16-.14.17-.28,0,.06,0,.1,0,.14h0c.06.14.19.11.27.11s.4.05.46-.11a2.65,2.65,0,0,0,0-.57L36,16.42a1,1,0,0,0-.25,0c-.11,0-.32,0-.38.09a.37.37,0,0,0-.07.21.65.65,0,0,0-.05-.18c-.11-.2-.38,0-.48-.15s-.05,0-.08,0a.17.17,0,0,1-.17.13c0,.09,0,.22,0,.34a.55.55,0,0,0,.05.22c.09.13.45.07.58.07ZM14.35,35c.17,0,.37,0,.48-.08a1.06,1.06,0,0,0,0-.61c-.06-.09-.51-.1-.61-.05s-.09.34-.14.52.15.17.23.21Zm14.36-4.13c-.12,0-.14.11-.14.22v.32c0,.13,0,.17.22.19s.38,0,.46,0l0,0a.89.89,0,0,0,.08-.32c0-.12-.05-.23-.05-.34h0l-.17,0ZM10.49,30c-.12,0-.46-.06-.57,0s-.06.37,0,.51v0a1.18,1.18,0,0,0,.22.17h.09c.19-.07.41.08.44-.21s.07-.55-.14-.55Zm23-4a.78.78,0,0,1,0-.16,1.94,1.94,0,0,0-.54-.13h-.12a1.13,1.13,0,0,0,0,.63c.05.12.14.13.26.14s.36.05.44,0,0-.26,0-.38S33.53,26.05,33.52,26ZM31,33.84c0-.12,0-.26,0-.34s-.37-.11-.52-.1h0c-.06.06-.1,0-.13,0h0a1.07,1.07,0,0,0-.06.64.19.19,0,0,0,.07.12.51.51,0,0,0,.18,0l.11,0a.86.86,0,0,1,.23,0l.23-.1h0a.14.14,0,0,1-.08-.14Zm-2.58-2.12h0a3.17,3.17,0,0,0-.53,0l-.21.44c0,.11,0,.23.13.29a1.19,1.19,0,0,0,.46,0c.31-.06.14-.41.22-.65l0-.07ZM11.49,23.57c0-.12,0-.36-.13-.36a1.56,1.56,0,0,0-.53,0c-.12.07-.09.24-.09.37s-.05.26,0,.34.25.07.38.1a2.4,2.4,0,0,1,.21-.23l0,0h0l.09-.19Zm5.85,11.55a.85.85,0,0,0-.5,0c-.15,0-.15.07-.17.22s-.05.4,0,.48.41.05.51.05h0c0-.13.15-.17.24-.25a0,0,0,0,1,0,0c0-.14,0-.37-.11-.45ZM32.7,26.36c0-.14,0-.51-.08-.59a1.11,1.11,0,0,0-.6,0c-.09.08-.05.19,0,.3v0a.74.74,0,0,1,0,.21l.21.19.06,0C32.42,26.44,32.63,26.59,32.7,26.36Zm-24,1.09c-.34,0-.51-.06-.53.34,0,.11,0,.29,0,.37s.09,0,.14,0h0a.23.23,0,0,1,.16,0l0,0c.08-.06.27-.22.3-.06v.06c.11-.18.19-.82-.14-.79ZM32,17.85c0,.11.07.14.19.16s.45,0,.53-.06,0-.4,0-.49,0-.23-.21-.23l-.33.11a1,1,0,0,1-.23.11,1.27,1.27,0,0,1,0,.34A.06.06,0,0,1,32,17.85ZM13.4,32.56c-.18.06-.11.22-.13.37s0,0,0,.07v0l.08.08h0l.24.18,0,0h0s.07,0,.09,0a.25.25,0,0,0,.21-.06c.08-.09,0-.44,0-.55S13.53,32.51,13.4,32.56Zm2.14,2.52a1.41,1.41,0,0,0-.46,0c-.16.08-.12.35-.11.53v0c.24.09.5.13.75.2v-.05a1.93,1.93,0,0,1,0-.24c0-.21.06-.46-.19-.51Zm14.71-2.46a2.47,2.47,0,0,0,.18.71.91.91,0,0,1,.4,0c.13,0,.15-.07.17-.18a1.24,1.24,0,0,0,0-.47C30.92,32.47,30.41,32.53,30.25,32.62ZM28.8,30.76a1,1,0,0,1,.3,0,.3.3,0,0,1,.17.08c0-.23-.08-.45-.1-.67s.1-.48,0-.52-.08,0-.15.11-.42.63-.49.7,0,.35.28.32Zm8-10.87a.24.24,0,0,0-.12-.07h-.22a.68.68,0,0,1-.26.12,1.33,1.33,0,0,0,0,.35c0,.1,0,.21.08.27a.78.78,0,0,0,.35,0l.18,0v.11h-.21a.64.64,0,0,0-.32,0c-.14.07-.07.24-.06.37s0,.28.09.33l.19.06c.1-.26.31-.47.31-.77a.22.22,0,0,0,0-.14c0-.19.08-.37.13-.56a.42.42,0,0,1-.18-.08Zm-5.13,1.62a2.17,2.17,0,0,1-.36,0,4.34,4.34,0,0,0-.14.6.52.52,0,0,1,.14.16c.17,0,.45,0,.53-.08a.81.81,0,0,0,0-.27c0-.17,0-.39-.18-.4ZM29.32,34.39v0h0c0-.15-.16-.12-.3-.12s-.34,0-.42,0a.73.73,0,0,0,0,.6.21.21,0,0,0,.11.13h0a7,7,0,0,1,.68-.29.17.17,0,0,1-.07-.16s0-.13,0-.19Zm2.36-5.23a1,1,0,0,1-.46,0,2.69,2.69,0,0,0,0,.85c0-.2.52,0,.63-.16a1.18,1.18,0,0,0,0-.46c0-.14,0-.21-.19-.19ZM31.85,19c0-.07-.72-.17-.78.11a1.93,1.93,0,0,0,.34.59l.16-.05a.07.07,0,0,1,.08,0,.22.22,0,0,0,.17-.05c.11-.13,0-.48,0-.63Zm2,5.88c-.26.07-.05.25-.15.4l0,.05a.68.68,0,0,1,.2.07.29.29,0,0,1,.17.22c.11,0,.25,0,.32,0a1.26,1.26,0,0,0,0-.64c-.09-.1-.44-.08-.56-.05ZM12,28.45a2.42,2.42,0,0,1-.38,0,2,2,0,0,0,0,.43c0,.16.16.14.31.15s.46,0,.48-.24-.18-.26-.25-.4Zm-.89-1.88a4.19,4.19,0,0,0-.36.62c0,.16.16.16.31.16s.38.06.46-.08a1.22,1.22,0,0,0,0-.57C11.39,26.53,11.2,26.65,11.06,26.57Zm2.53,3.08s0,0,0,0,0,.07-.08.09-.18,0-.26-.05h0c0,.19.46.24.6.17s.13-.19.12-.31a.15.15,0,0,1-.12-.16v-.06a5.79,5.79,0,0,1-.65-.66h0C13.29,29.05,13.24,29.42,13.59,29.65ZM31.68,30a1.84,1.84,0,0,1-.47,0v.19a2.73,2.73,0,0,0,0,.57c.21,0,.57.1.61-.17a2,2,0,0,0,0-.27c0-.16,0-.33-.2-.33Zm0,2.46c.19-.07.14-.2.14-.38s.07-.36-.13-.36a.77.77,0,0,1-.37,0c0,.16,0,.31.06.49L31.23,32l-.12-.12v.06c0,.15-.06.43.05.5a1.28,1.28,0,0,0,.55,0Zm-.09-4.12c-.1,0-.23,0-.31-.08a2.71,2.71,0,0,0-.1.85c.27-.13.63.11.64-.28a2.07,2.07,0,0,0,0-.29.28.28,0,0,0,0-.14c0-.08-.14-.06-.23-.06ZM10,25.77c-.13.08-.08.29-.08.42,0,.35.16.3.46.3h0a2.85,2.85,0,0,0,.22-.7h0a1.09,1.09,0,0,0-.62,0Zm25.91-3.33h-.11a.07.07,0,0,1-.07-.07v0c-.2,0-.4,0-.42.21v.14a.69.69,0,0,0,.06.34.15.15,0,0,0,.11.08s0,0,.05,0h.24s-.06,0-.11-.05.11,0,.13.05h0a4.91,4.91,0,0,0,.28-.62.84.84,0,0,1-.19,0ZM16.72,31.67h0c-.05.18-.14.74.1.77a1.3,1.3,0,0,0,.52,0c.16-.06.05-.17.13-.29a2.22,2.22,0,0,0-.74-.47Zm17-14.25a.94.94,0,0,1,.09-.12h-.15a.25.25,0,0,0,0,.16C33.7,17.42,33.69,17.41,33.75,17.42Zm0-.27h.66a1.38,1.38,0,0,0,0-.49h-.18v-.14a.73.73,0,0,0-.22.09l0,0a1,1,0,0,1-.35.23v.2h0a.46.46,0,0,0,.07.07Zm.2.86c.17,0,.44.07.49-.15a1.71,1.71,0,0,0,0-.39.37.37,0,0,0,0-.16h-.21l-.07,0s0,0,0,0h-.27a.64.64,0,0,0-.1.13c-.06,0,0,0-.1,0,0,.28-.08.53.26.54ZM29.55,32.42h.18c-.08-.25-.18-.49-.28-.74a1.14,1.14,0,0,0-.05.23.83.83,0,0,0,0,.39.26.26,0,0,0,.13.14Zm.14.13h-.16a.16.16,0,0,0-.09.05c-.08.1,0,.38,0,.49a.28.28,0,0,0,0,.1.22.22,0,0,1,.05.08.5.5,0,0,0,.23,0c.14,0,.32,0,.43,0l.05,0-.4-.65ZM11.5,19.19l-.79-.12L9.9,19a2.18,2.18,0,0,0,0,.57c0,.23.14.18.35.17s.32,0,.37-.12,0-.32.07-.49c.14.3-.12.61.32.61.1,0,.33.05.42,0s.07-.38.08-.49h0a0,0,0,0,1,0,0ZM7.81,27.35c.32,0,.28-.24.27-.51s-.26-.23-.51-.24a3.93,3.93,0,0,0-.13.75C7.56,27.36,7.68,27.33,7.81,27.35Zm3.31,3.48h0c-.31,0-.32,0-.4.28a.06.06,0,0,0,0,0h0c.21.16.43.32.68.48l0,0a.69.69,0,0,0,.1-.41.85.85,0,0,0,0-.25c-.06-.15-.2-.12-.35-.12Zm1-8.57a2.64,2.64,0,0,0,0-.29c0-.15-.06-.31-.08-.46h-.34c-.12,0-.14,0-.17.14a2.46,2.46,0,0,0,0,.47c.06.2.36.15.57.14Zm16.14,12h-.35a.05.05,0,0,1-.05,0h-.11A2.58,2.58,0,0,0,28,35l.14,0c.1,0,.27.07.32-.14v0a1.94,1.94,0,0,0,0-.24C28.48,34.42,28.44,34.24,28.29,34.25Zm3.41-3.4h-.45c0,.26.06.52.1.78.18-.08.44.06.5-.17s.08-.61-.15-.61Zm.14-3.16a.22.22,0,0,1,0-.08c0-.05,0-.08-.09-.08h0a.56.56,0,0,0-.37.39,0,0,0,0,1,0,0,2.34,2.34,0,0,1,0,.26c.14,0,.41,0,.52-.08a1.82,1.82,0,0,1,0-.33.52.52,0,0,1,0-.11Zm2.21-1.93h0c.08.09.34.36.17.39s-.17-.1-.22-.11a1.46,1.46,0,0,0-.33-.12h0a.07.07,0,0,0,0,0,.08.08,0,0,1,0,.06c0,.16,0,.36.09.43a.92.92,0,0,0,.59,0c.12-.09.1-.45.07-.58s-.19-.14-.35-.13Zm-26.41,0a1.12,1.12,0,0,1-.11.25l0,.46v0h0c.29,0,.5.06.51-.27,0-.13.05-.38-.06-.47s-.26,0-.38,0Zm5,3.39,0,0h0c-.16.09-.25.63-.09.76s.23,0,.3,0,.4,0,.43-.2a5.69,5.69,0,0,1-.63-.57l0,0Zm5.24,3.38h0c-.08.06-.2,0-.25.09s0,.31,0,.4c0,.31.1.25.27.29,0,0,0,0,.05,0l.11,0h0a.74.74,0,0,0,.14-.39c0-.14-.1-.26-.29-.42ZM36.72,18.24l0,0h0c-.07,0-.21,0-.27,0s0,.16-.07.22l0,.12a.07.07,0,0,0,0,.05c.14.06.38.15.46.09s.07-.25.08-.31,0-.11,0-.16a.48.48,0,0,1-.05-.18h0a.07.07,0,0,1-.05.1ZM16.48,32.43c.11-.15.13-.55-.07-.6a.32.32,0,0,1-.09,0h-.27l-.19.27a.18.18,0,0,1-.06.21.16.16,0,0,1-.06.08h0c.2.06.63.11.73,0ZM31.71,20.66h-.15a.14.14,0,0,1-.11.09l0,0h0a2,2,0,0,1-.09.6c.19,0,.44.06.5-.14s.08-.61-.13-.61Zm.14-.39c0-.09,0-.33,0-.41s-.11-.05-.19-.05h0l-.1,0a.63.63,0,0,1,.06.66v0h.14c.1,0,.14-.08.14-.27Zm4.25-2c0-.14-.16-.17-.32-.17h-.22c-.2,0-.25.21-.22.4a.7.7,0,0,0,.06.19c.22-.22.47-.1.74-.05,0,0,0,0,0-.07a1.63,1.63,0,0,1,0-.31ZM30.8,31.6h.1a2.64,2.64,0,0,1-.33-.79.2.2,0,0,0-.09.05.09.09,0,0,1-.11,0c-.11,0-.14.17-.14.32s0,.23,0,.29.33.16.53.14Zm.69-8.46c.1-.07.22,0,.32-.08s0-.41,0-.53-.31-.15-.49-.14v0a.15.15,0,0,1,0,.11c.06.2.11.39.17.6Zm2.06,4.51v0c0-.26-.45-.17-.61-.16h0a6.81,6.81,0,0,1,.31.74h0c.11,0,.25,0,.32-.06s0-.35,0-.49Zm-21.75-7c-.29,0-.22.31-.22.5,0,.36.26.16.5.28-.05-.29-.11-.58-.16-.88C11.91,20.63,11.87,20.67,11.8,20.66ZM28.38,31.57c.1-.08.07-.25.07-.36h0c0-.17,0-.26-.07-.31s0,0,0,0h-.19q-.14.36-.24.72h0c.11,0,.36,0,.46,0ZM14.86,35.25s0,.07,0,0h0c0-.19-.3-.17-.5-.15a.08.08,0,0,1-.09,0h0a1.92,1.92,0,0,0,0,.24v0h0a.23.23,0,0,0,.1.16,2.34,2.34,0,0,0,.58.14s0,0,0,0a1,1,0,0,1,0-.38Zm-3.24-7.12a.88.88,0,0,0,.28,0l.13-.05a3.43,3.43,0,0,0-.08-.48.39.39,0,0,1-.08-.1l0,0c-.1,0-.21,0-.25.12a1.13,1.13,0,0,0,0,.45A.21.21,0,0,0,11.62,28.13ZM31.71,33.4c-.12,0-.45-.07-.55,0s-.07.22-.06.37V34l.67-.3a.38.38,0,0,1,.08-.17v0a.12.12,0,0,0-.13-.06ZM36.26,18a.39.39,0,0,0,.23.05s0,0,0,0l.08,0h0a.49.49,0,0,1-.08-.29.41.41,0,0,1,.1-.35.25.25,0,0,1,0-.07h-.21l-.11,0c-.17,0-.15.13-.15.3s0,.31.06.4ZM11.65,19.66a.25.25,0,0,0,.12,0h0a1.49,1.49,0,0,0-.07-.25.48.48,0,0,0-.08-.16l-.06,0a1.29,1.29,0,0,1,0,.28.33.33,0,0,0,.08.17Zm-.07.56h0v0c0,.31,0,.31.34.31,0,0,0,0,0-.06s-.05-.43-.09-.71h0l-.12,0a.62.62,0,0,0-.09.12c0,.08,0,.19,0,.28Zm-.86,4.35h0c0,.12,0,.19.11.22s0-.08,0-.13v0a2.05,2.05,0,0,1,.22-.5c-.14,0-.28,0-.28.23a.43.43,0,0,0,0-.05.2.2,0,0,1,0,.05h0a.55.55,0,0,0,0,.25l0,0a.81.81,0,0,1,0-.31c0-.15.17-.13.29-.16l0-.06a1.26,1.26,0,0,0-.36,0s0,0,0,.06A1.25,1.25,0,0,0,10.72,24.57Zm1.1,7.13c-.08,0-.16,0-.22.05s0,0,0,0a7.15,7.15,0,0,0,.7.53l.05,0h0c0-.08,0-.18,0-.28a.47.47,0,0,0-.05-.25c-.1-.13-.33-.09-.47-.09Zm-.14-8.52h0a2.92,2.92,0,0,1,.43-.7.06.06,0,0,0,0,0,.09.09,0,0,0,0-.05,1.33,1.33,0,0,0-.4,0c-.25.06-.18.59-.06.76,0,0,0,0,0,0Zm4,9.4c-.21.25-.43.48-.65.71.16,0,.54.08.66-.06s0-.45,0-.63l0,0Zm16.31-5h0c0,.07,0,.14,0,.21s0,.2,0,.3a.17.17,0,0,0,.16.1h.51a2.69,2.69,0,0,0-.64-.62Zm-1.74,3.1,0,.05a.11.11,0,0,0,.07,0h0l0,0,.06,0a.36.36,0,0,1-.11-.14.31.31,0,0,1,0-.13.27.27,0,0,0,0,.12.35.35,0,0,0,.12.15l.06,0a4.85,4.85,0,0,1-.12-1.32h0c0,.19-.08.4-.11.59s0,.18-.05.26v.15a.24.24,0,0,1,0-.07c.12.08,0,.27,0,.39ZM30,34.26h0c-.16,0-.48-.08-.59.08a.3.3,0,0,0,0,.21c0,.07,0,.13,0,.18l.75-.33s-.06-.11-.12-.13Zm1.81-10.73c0-.29-.08-.27-.33-.35a3,3,0,0,1,.14.73.68.68,0,0,0,0,.29.15.15,0,0,0,.11.09.07.07,0,0,0,0-.05s0,0,0-.06a.35.35,0,0,1-.06-.23c0-.07.09-.11.1-.18a1,1,0,0,0,0-.24Zm-20,3c-.2.06-.26.18-.25.39s0,.36.24.38a.31.31,0,0,1,.07-.24l-.06-.53Zm24.56-9.43h.16a.53.53,0,0,1,.17,0l0-.07a4.58,4.58,0,0,0-.54-.63.52.52,0,0,1,0,.11c0,.1,0,.2,0,.29h0C36.18,17.12,36.27,17.14,36.38,17.14ZM9.58,30.07l-.32,0a1.33,1.33,0,0,1,.14.19.42.42,0,0,1,.06.14l.29.2s0,0,0,.08a1.28,1.28,0,0,1,0-.18c0-.2,0-.42-.2-.41Zm-.72-1.8a4.64,4.64,0,0,0-.3.78c.08,0,.26,0,.32,0s0-.23,0-.35h0c0-.13,0-.32-.06-.4Zm3-2.54h0c-.07,0-.16,0-.21.09a1,1,0,0,0,0,.35c0,.23,0,.28.21.36-.05-.11-.14-.18-.14-.31,0,.12.09.2.14.31h0a5.35,5.35,0,0,1,0-.8ZM7.37,28.3h0c0,.11.33.28.55.34l0,0A.85.85,0,0,0,8,28.47a.16.16,0,0,0,0-.06C8,28.21,7.54,28.3,7.37,28.3Zm28.12-5.09h0c-.07,0-.11.09-.12.24v.15a2.18,2.18,0,0,0,0,.44c.11-.28.22-.54.33-.84ZM8.73,29.15c-.07,0-.14,0-.18-.07a.22.22,0,0,0,0,.16,1.13,1.13,0,0,0,.09.2l.14.16.06.07.1.09c0-.21.1-.63-.19-.61ZM17,35.94H17c-.16,0-.3,0-.38.19,0,0,0,0,0,0s.35.19.46.15.13-.29.15-.39h0a.3.3,0,0,1-.16,0Zm-2.8-6a1.1,1.1,0,0,0,.45,0l0,0h0l-.06-.12-.4-.2,0,0a.4.4,0,0,0,.4.26.43.43,0,0,1-.41-.26h0C14.11,29.72,14.12,29.84,14.24,29.89ZM15,31.54c0,.06.08.08.11.14h0c-.17,0-.13.15-.13.3a1.57,1.57,0,0,0,0,.32.14.14,0,0,0,.09.14h0a.45.45,0,0,0,0-.11c0-.14,0-.37,0-.52a.62.62,0,0,0,0-.12.09.09,0,0,0,0-.07v0a2.34,2.34,0,0,0,0-.38c0-.07,0-.15,0-.23a.17.17,0,0,1-.12-.11A.15.15,0,0,0,15,31,.09.09,0,0,0,15,31v0a1.2,1.2,0,0,0,0,.19.52.52,0,0,0,.06.28ZM33.21,17.17h0c.18,0,.25,0,.29-.12v-.13l-.27,0L33,17l-.24.1a0,0,0,0,0,0,0,1.6,1.6,0,0,0,.44,0Zm0,11.28h0a1.49,1.49,0,0,1,.17.71.6.6,0,0,0,.12-.54C33.5,28.46,33.4,28.45,33.24,28.45ZM7.47,18.72h0v0c0,.14.25.12.37.12s.23-.13.37-.15.06.13.14.14a2.24,2.24,0,0,0,.58,0H8.86a3.51,3.51,0,0,0-.65-.09h0c-.24-.07-.5-.07-.75-.13A.3.3,0,0,1,7.47,18.72Zm24.21,7h-.4l.56.43v-.08a.08.08,0,0,1,0-.06c0-.15,0-.3-.18-.29ZM13,32.61a1.23,1.23,0,0,1-.27,0h0l0,.06h0a2.44,2.44,0,0,0,.29.27l.1,0V32.9h0a.06.06,0,0,1,.05-.06c0-.14-.05-.24-.21-.22Zm22.72-16.3H36a.73.73,0,0,0-.28-.23.51.51,0,0,0-.43.09A.33.33,0,0,0,35.68,16.31ZM11.1,26.51c.23,0,.37,0,.38-.23v-.34h0A5.21,5.21,0,0,0,11.1,26.51Zm21.71,2.08a.61.61,0,0,0,0,.33A.33.33,0,0,0,33,29l.13,0a2.13,2.13,0,0,0-.3-.58.53.53,0,0,1,0,.12Zm0,4.17v.3a.71.71,0,0,1,0,.14l.08-.07s0,0,0,0V33c0-.17,0-.41,0-.5A.28.28,0,0,0,32.8,32.76Zm3.4-11.07s0,0,0,.08h0v0h0c0,.09,0,.19,0,.28a4.43,4.43,0,0,0,.26-.54.4.4,0,0,0-.2,0s-.06.05-.06.14ZM16.37,36H16a5.66,5.66,0,0,0,.58.2s0,0,0,0v0c0-.11-.08-.16-.21-.14Zm16.92-11h-.11a2.11,2.11,0,0,0,.37.3c0-.25,0-.3-.26-.3Zm-22.89,6h0l-.05,0s0,0,0,0a1,1,0,0,0,.24.21s0,0,0,0h0a.61.61,0,0,0,0-.14c0-.09-.07-.13-.21-.13Zm7.36,1.52a.86.86,0,0,0-.13-.14.22.22,0,0,1-.1-.09h0C17.53,32.44,17.53,32.44,17.76,32.45ZM14.5,34.14h0c.34,0,.36-.07.38-.39v-.06c0-.26-.08-.27-.37-.27s-.38,0-.38.31v.09a.45.45,0,0,0,0,.22.17.17,0,0,0,.14.1ZM11.11,20.66h0c-.27,0-.32.06-.32.37h0c0,.3,0,.37.37.37s.37,0,.38-.37S11.43,20.67,11.11,20.66Zm-.37,9c0,.16,0,.23.16.26a1.13,1.13,0,0,0,.41,0c.22,0,.17-.2.17-.39s0-.34-.26-.35-.35,0-.45,0,0,.33,0,.44Zm-.49-1.31c-.32,0-.35,0-.35.35s0,.36.24.38a.88.88,0,0,0,.43,0c.09-.07.07-.26.08-.36v-.05c0-.26-.12-.3-.4-.3Zm6.07,5.08c-.1,0-.36,0-.44,0s0,.35-.05.47c0,.29.2.25.43.24s.29,0,.31-.22S16.64,33.4,16.32,33.4ZM9,21.1c0,.34.17.31.47.31s.27-.08.27-.26h0V21c0-.33,0-.33-.37-.33h0c-.32,0-.37.07-.37.34Zm.38,5.41c.31,0,.36,0,.36-.34v-.05c0-.29,0-.35-.36-.35s-.35,0-.36.36a.33.33,0,0,0,0,.1C9.05,26.46,9.12,26.49,9.41,26.51Zm6.31,7.27c0-.24,0-.38-.25-.38a.78.78,0,0,0-.43,0,.27.27,0,0,0-.06.2v.22c0,.24.06.28.29.29h.08c.32,0,.37,0,.37-.36Zm-5-11c0,.32.16.29.45.29s.3-.05.3-.33,0-.43-.37-.42-.39.1-.38.46ZM9.78,27c0-.31-.07-.35-.38-.35S9,26.65,9,27s.05.35.31.37h.07c.34,0,.4-.05.37-.39Zm.46-5.53c.34,0,.39-.05.39-.38s-.06-.38-.4-.38-.35.08-.35.38,0,.38.36.38Zm6,11.87c.32,0,.36-.06.36-.37s0-.38-.3-.38h-.13c-.25,0-.33,0-.33.36h0c0,.34,0,.39.39.39Zm-6-13.49c-.34,0-.36.1-.37.43v0c0,.3.13.29.43.29s.32-.1.32-.34v-.1c0-.31-.08-.31-.38-.31Zm7.15,12.8c-.06-.1-.21,0-.31,0-.33,0-.47-.05-.47.32s.06.42.41.42h.06c.25,0,.32,0,.32-.31,0-.05,0-.16,0-.25a.25.25,0,0,0,0-.13Zm-2.53.22v.1c0-.33,0-.4-.37-.4s-.37.06-.37.38,0,.37.3.38h.1c.27,0,.35,0,.35-.36a.46.46,0,0,1,0-.1ZM12,30c-.33,0-.38,0-.38.37s.08.37.44.37.31-.1.31-.37S12.28,30,12,30Zm.85.84h-.13c-.19,0-.24,0-.25.3s0,.46.36.47c.09,0,.28,0,.35-.05s0-.33,0-.42C13.2,30.82,13.11,30.86,12.81,30.85ZM9.32,24.8h.2c.21,0,.26,0,.26-.31s-.07-.44-.43-.44-.32.1-.32.39,0,.36.29.36ZM11.12,30c-.33,0-.38,0-.39.37v.05c0,.29.07.31.4.31s.34-.08.35-.39v0C11.48,30,11.43,30,11.12,30Zm.26-1.66a.64.64,0,0,0-.27,0c-.29,0-.39,0-.38.31s0,.42.37.42.38,0,.38-.39v-.06a.63.63,0,0,0,0-.16A.13.13,0,0,1,11.38,28.36ZM10.72,20a1.19,1.19,0,0,0,0,.46c.08.14.38.1.54.08s.2-.24.2-.45-.1-.31-.4-.28-.32-.09-.36.19Zm2.81,10.73c.27,0,.47.05.49-.25S14,30,13.7,30s-.41-.05-.42.24,0,.48.25.5Zm-2.33-3.3h-.11c-.36,0-.39.19-.36.52s.22.23.47.23.2,0,.26-.07a.89.89,0,0,0,0-.43C11.48,27.48,11.37,27.45,11.2,27.45ZM14.32,30c-.24,0-.19.14-.19.32s-.06.36.11.42a1.19,1.19,0,0,0,.53,0c.15-.06.1-.22.08-.36a.88.88,0,0,0,0-.17h0v-.08l-.1-.12a1.37,1.37,0,0,0-.45,0Zm1.73,5.1c-.28,0-.24.25-.23.5s.21.25.45.25.33-.13.29-.43-.17-.36-.51-.32ZM11.11,21.51c-.31,0-.37,0-.38.36,0,0,0,.08,0,.11,0,.24.07.28.37.28s.38,0,.38-.37h0C11.47,21.56,11.42,21.51,11.11,21.51ZM9.41,24c.32,0,.37-.05.37-.37s0-.37-.35-.37-.38,0-.39.37.05.37.37.37Zm5.11,6.92c-.11,0-.25,0-.33.06a.82.82,0,0,0-.06.38c0,.36.18.29.48.28s.26,0,.26-.31S14.87,30.87,14.52,30.87Zm-6-3.53h.16c.15,0,.27,0,.29-.22s.06-.52-.25-.52H8.4a.34.34,0,0,0-.17,0c-.07.07,0,.23,0,.33h0c0,.3,0,.37.29.38Zm.27-3.28a1.34,1.34,0,0,0-.49,0c-.13.08-.06.26-.06.38,0,.3,0,.35.31.35.16,0,.33,0,.4-.13s.1-.62-.16-.61Zm8.61,10.23h0a.35.35,0,0,0-.18-.05H17c-.12,0-.31,0-.37.11a2.67,2.67,0,0,0,0,.4c0,.24.11.25.33.24a.62.62,0,0,0,.35-.05,1.92,1.92,0,0,1,0-.24C17.35,34.56,17.35,34.43,17.36,34.29ZM12,29.15c-.35,0-.37.09-.39.43s.08.32.36.32.38,0,.38-.32,0-.43-.35-.43Zm-2.55.75c.31,0,.33-.09.35-.39s0-.36-.35-.36-.39.1-.39.46S9.12,29.9,9.42,29.9Zm1.21-7.35a.16.16,0,0,0-.18-.18c-.19,0-.5-.11-.56.11a.24.24,0,0,0,0,.12,1.85,1.85,0,0,0,0,.25s0,0,0,.06a.18.18,0,0,0,0,.16.92.92,0,0,0,.57,0,.16.16,0,0,0,.12-.18c0-.05,0-.11,0-.16h0c0-.06,0-.12,0-.19Zm-1.24-2h.08c.29,0,.31,0,.31-.37s-.09-.38-.43-.38S9,19.9,9,20.18s.05.37.36.38Zm.35,6.92c-.09-.07-.3,0-.4,0-.3,0-.32,0-.31.33,0,.08,0,.32.05.38s.23,0,.32,0,.14,0,.1,0c.27,0,.3-.09.29-.41,0-.07,0-.24,0-.3ZM9,21.93c0,.09,0,.25.11.31s.22,0,.32,0h.06s0,0,.06,0h.14A1.72,1.72,0,0,0,9.8,22a.58.58,0,0,0-.05-.34c-.09-.17-.33-.12-.5-.09s-.24.19-.22.41Zm.12,1.17c.14,0,.54.06.62-.08a.88.88,0,0,0,0-.28.55.55,0,0,0-.09-.37H9.58l0,0c-.17,0-.43,0-.5.11a.5.5,0,0,0,0,.23C9,22.86,9,23.06,9.15,23.1ZM12.8,30c-.17,0-.32,0-.38.16a.83.83,0,0,0,.06.54c.09.09.4.07.52.05s.18-.18.16-.37C13.2,29.94,13.16,30,12.8,30Zm.84,2.43c.32,0,.38,0,.39-.35s0-.38-.35-.38-.4,0-.4.33,0,.41.36.4Zm-3.71-9.2a.88.88,0,0,0-.11.53c0,.21,0,.21.25.21v0h.32c.17,0,.19-.15.19-.27s.07-.37,0-.44a1.08,1.08,0,0,0-.64,0Zm-.15,2c0-.17.05-.32-.17-.31s-.55-.09-.57.3,0,.44.33.44c.09,0,.29,0,.37,0S9.78,25.32,9.78,25.22Zm4.78,7.25c.29,0,.31-.12.31-.35V32c0-.3-.06-.31-.37-.31s-.33.06-.35.37c0,.07,0,.14,0,.21a.14.14,0,0,0,0,.15c.07.08.29,0,.38,0Zm-4.28-3.32c-.24,0-.41,0-.39.25,0,.07,0,.14,0,.21a1,1,0,0,0,0,.17c0,.17.35.12.5.11s.23-.15.23-.39,0-.35-.35-.35Zm-1.89-6c.18,0,.49.07.54-.13a2,2,0,0,0,0-.42c0-.1,0-.18-.11-.18a2.36,2.36,0,0,1-.38,0c-.24,0-.27.08-.26.29s-.07.43.2.44Zm7.92,11.15c-.1,0-.33,0-.41,0s-.05.29-.06.43,0,.08,0,.1,0,0,0-.07c0,.32.18.28.49.26s.23-.1.24-.36,0-.37-.26-.38ZM8.72,21.51c-.13,0-.28,0-.4,0s-.15.24-.14.39,0,.33.28.34.4.1.46-.13S9,21.49,8.72,21.51Zm-.55-2.12a.76.76,0,0,0,0,.16c0,.15.1.18.24.18h.06c.38,0,.44,0,.44-.4,0-.15,0-.27-.16-.32s-.42-.12-.52,0A.7.7,0,0,0,8.17,19.39Zm.72,1.79h0c0-.17.05-.39-.13-.45s-.54-.08-.59.05a1.88,1.88,0,0,0,0,.34.81.81,0,0,0,0,.22c.06.12.16.13.28.12h0c.33,0,.43.1.43-.28Zm-.6,5.3a1,1,0,0,0,.58,0c.13-.09.06-.46.05-.6s-.26-.11-.38-.12-.27,0-.34.06,0,.6.09.66ZM7.4,19.66a.27.27,0,0,0,.17,0c.11,0,.35.06.44,0s.07-.27.07-.4S8.11,19,8,19s-.45,0-.58,0a.2.2,0,0,0,0,.13,1.82,1.82,0,0,1,0,.32,2.27,2.27,0,0,1,.06.25ZM14,31.09c0-.24-.1-.26-.36-.26s-.39,0-.39.28v.07c0,.32,0,.41.38.41.08,0,.27,0,.34,0s0-.11,0-.19v-.27Zm-3.39-6.57c0-.29,0-.45-.29-.46s-.42-.07-.45.21-.06.47.3.52.42.06.44-.27Zm-2.05.4c-.38,0-.35.09-.37.42a.34.34,0,0,0,0,.1c0,.22.09.24.38.24s.36-.06.35-.3v0c0-.32,0-.42-.37-.42Zm.64,4.13c.17,0,.4.05.47-.12a.77.77,0,0,0,.07-.4c-.06-.25-.3-.24-.51-.23s-.27.36-.27.56.07.19.24.19ZM8.26,24a.81.81,0,0,0,.59-.06c.14-.11.18-.74-.08-.73h0a1.33,1.33,0,0,0-.52.09c-.1.07-.06.3-.06.43h0C8.18,23.86,8.15,23.94,8.26,24Zm2.24-2.48c-.12,0-.52,0-.59.07a1.31,1.31,0,0,0,0,.45c0,.12,0,.22.16.22a1.6,1.6,0,0,0,.49,0c.11-.07.09-.25.1-.39S10.65,21.58,10.5,21.52Zm.13,3.72c0-.22,0-.33-.31-.33s-.46-.05-.46.23.05.5.37.51h.19c.07,0,.12,0,.15-.06a.38.38,0,0,0,.06-.25v-.1Zm4.83,9h0c-.27,0-.4,0-.43.3s-.07.46.24.45.45,0,.48-.24,0-.52-.26-.51Zm-3.87-3c0,.31.11.34.41.36s.35-.07.33-.35-.07-.4-.4-.4S11.56,30.92,11.59,31.24ZM7.68,20.53a.39.39,0,0,0,.3,0c.14-.06.17-.73,0-.73a1.27,1.27,0,0,0-.55,0l.16.29c.1.11,0,.29.09.38Zm.17,2.68c-.3,0-.24.16-.24.42s0,.37.31.32.16-.26.16-.46,0-.28-.23-.28Zm.07.85H7.85c-.11,0-.19,0-.24.13s-.06.51,0,.6a.27.27,0,0,0,.42-.15c0-.18.07-.53-.16-.57Zm-.1,1.59c.35,0,.26-.29.26-.57s-.3-.26-.42-.15-.07.21-.06.33a.59.59,0,0,1,.07.37.3.3,0,0,0,.15,0Zm.26-3.13c0-.16-.19-.19-.32-.13s-.1.18-.16.31v.13c0,.21,0,.29.27.28s.2-.34.21-.59ZM7.7,21.46a.44.44,0,0,0,.3,0c.06,0,.1-.2.1-.37s0-.32-.11-.35,0,0,0,0v0H7.92c-.24,0-.28.22-.28.46s0,.22.06.28Zm.2.05c-.15,0-.23,0-.26.16s-.07.52.1.59a.26.26,0,0,0,.34-.18c0-.18.08-.57-.18-.57Zm2,6.64c.08.1.54.09.63,0s.1-.6.06-.77l-.34.66h0v0c0-.43,0-.86.07-1.3,0,0,0-.08,0-.13l0,0-.06,0s0,0,0,0H9.86v0s0,0,0,0a1.06,1.06,0,0,0,0,.61c.06.12.24.09.36.09,0,.17-.14.07-.23.1s0,0,0,.12-.15.45,0,.59Zm22.48-8.49a.06.06,0,0,1,.06.05h.09c.16,0,.17-.07.17-.23a1.7,1.7,0,0,0,0-.39c-.05-.14-.13-.1-.27-.1s-.46-.11-.47.19c0,.15,0,.37,0,.49Zm.27.17s-.23,0-.32,0H32a.33.33,0,0,0-.06.32c0,.22-.1.41.21.43s.48.08.52-.17.06-.48-.05-.56Zm2.42,3.38h-.16l-.19,0a.22.22,0,0,0-.17.05c-.09.09,0,.33,0,.44s0,.08,0,.08-.06-.16-.06-.22h0c0-.23,0-.32-.25-.33H34c-.14,0-.27,0-.31.17s0,.49.09.57.63-.11.89,0a1.5,1.5,0,0,0,.52,0c.11-.06.1-.16.1-.28s.06-.31,0-.4a.23.23,0,0,0-.19-.06Zm-.58-4.59s0,0,0-.06a.14.14,0,0,0,0,.06h0c0,.13,0,.2.11.24h.15a1.85,1.85,0,0,0,.29,0,.23.23,0,0,0,.18-.19h0a.41.41,0,0,0,0-.11c0-.1,0-.19,0-.28s-.08-.17-.19-.18a1.45,1.45,0,0,0-.28,0c-.23,0-.24.15-.28.33S34.49,18.57,34.49,18.62ZM34,27.35c.31,0,.37-.05.37-.36h0c0-.33,0-.39-.38-.39s-.37.08-.37.35v.1C33.66,27.33,33.75,27.35,34,27.35ZM33.24,19c-.26,0-.42-.05-.44.25,0,.06,0,.13,0,.19s0,.33.29.32.46,0,.47-.31v-.16c0-.2,0-.29-.31-.29Zm.66,5.85a.89.89,0,0,0,.43,0c.14-.09.07-.25.08-.38v-.09c0-.18,0-.25-.26-.25s-.43,0-.49.17,0,.55.24.58Zm-1.76-6h0c.17,0,.51.07.52-.16,0,0,0,0,0,0s0-.05,0-.08,0-.41-.07-.46a.69.69,0,0,0-.56,0h0l-.07,0h0a.16.16,0,0,1-.07.09h0a2.52,2.52,0,0,0-.06.47c0,.2.13.13.25.13Zm2.71,1c-.12,0-.24,0-.31.09a.86.86,0,0,0,0,.42c0,.29.26.25.51.23s.24-.21.24-.48-.12-.26-.4-.26Zm-1.46,3.42a1.25,1.25,0,0,0-.32,0,.29.29,0,0,0-.22.06c-.09.09-.07.44,0,.56s.15.15.27.15h.3a.17.17,0,0,0,.14-.05c.06-.06,0-.26,0-.35a.38.38,0,0,0,0-.1h0v0s0,0,0,0,0-.19-.17-.21Zm.73-3.51c.26,0,.28-.08.28-.27v-.14c0-.33,0-.35-.37-.35s-.38.05-.38.38v.14a.26.26,0,0,0,.07.21c.09.07.3,0,.4,0Zm-1.53,1.8a1.19,1.19,0,0,0-.42,0c-.15,0-.19,0-.21.19A2.26,2.26,0,0,0,32,22a1,1,0,0,0,0,.19.18.18,0,0,0,.19.11h.09c.17,0,.42.07.47-.15,0,0,0,0,0,0a1.15,1.15,0,0,0,0-.2c0-.15,0-.3-.14-.35Zm.27,1.57c.1.08.61.09.67-.06a.67.67,0,0,0,0-.28.57.57,0,0,1,0,.26,1.46,1.46,0,0,0,0-.59,1.4,1.4,0,0,0-.65,0C32.74,22.43,32.68,23,32.86,23.09ZM34,22.36c-.36,0-.37.09-.36.44s.12.31.42.31.33-.06.32-.37,0-.38-.38-.38Zm.36-4.13c-.06-.11-.19-.07-.31-.12-.33,0-.4,0-.42.33v.14c0,.18.05.26.29.27s.44.07.46-.22a1.63,1.63,0,0,0,0-.24.27.27,0,0,0,0-.16ZM32.1,23.11a.37.37,0,0,0,.2,0h.12c.11,0,.21,0,.25-.16a1.1,1.1,0,0,0,0-.54s-.14-.06-.25-.06a1.07,1.07,0,0,0-.29,0c-.18.05-.17.21-.17.38h0C31.93,23.06,31.93,23.11,32.1,23.11Zm3.82-5.83h-.09c-.28,0-.46-.06-.48.26s0,.46.34.45c.1,0,.31.06.38,0s0-.34,0-.43-.06-.24-.2-.25Zm-3.08,2.58c-.08.08,0,.27,0,.36s0,.33.14.34.54.11.59-.18c0-.12.06-.47-.07-.56a1.07,1.07,0,0,0-.64,0Zm2.42,1.89c0-.27-.13-.23-.38-.23s-.37,0-.38.36v0c0,.21,0,.32.25.34s.35,0,.44-.06a.33.33,0,0,0,.07-.25v-.2Zm-1.21-.24c-.34,0-.38,0-.39.38s.05.37.39.37.35-.08.36-.39S34.38,21.51,34.05,21.51Zm-1.38-.8c-.05-.08-.27-.05-.35,0-.25,0-.35,0-.36.26s-.06.47.27.48c.09,0,.36.06.43,0s.05-.33,0-.41.07-.2,0-.28Zm-.28,2.49c-.27,0-.43,0-.43.31s0,.44.37.44.37-.05.37-.38S32.69,23.2,32.39,23.2Zm.79-1.69c-.29,0-.37,0-.37.29s0,.47.37.46.37-.09.37-.44-.06-.31-.37-.31Zm0-4.25c-.1,0-.29,0-.35.06s0,.31,0,.4,0,.28.26.29a.92.92,0,0,0,.37,0c.17-.08.12-.34.11-.5S33.43,17.27,33.19,17.26Zm2.71,4.25c-.32,0-.52-.1-.53.28s0,.47.36.47h.21c.08,0,.14-.05.16-.17a1.54,1.54,0,0,0,0-.24c0-.17,0-.35-.22-.33Zm-2.58-3.4c-.41,0-.5.05-.5.46h0c0,.28.1.29.36.29h.07c.17,0,.29,0,.31-.25a2.32,2.32,0,0,0,0-.24c0-.15,0-.25-.26-.27Zm1.26,5a1.14,1.14,0,0,0,.58,0,.19.19,0,0,0,.1-.19.41.41,0,0,1,0-.11v-.11c0-.33,0-.33-.37-.33s-.32,0-.36.24a2.06,2.06,0,0,0,0,.26.25.25,0,0,0,.09.22Zm-.89-2.55c.09.08.46,0,.57,0s.14-.21.14-.39.05-.24,0-.32-.19,0-.29,0-.37-.07-.41.14-.06.48,0,.55ZM35.22,18c.07-.09,0-.34,0-.43s0-.28-.22-.27-.4-.06-.49.14-.08.5,0,.59a.94.94,0,0,0,.64,0Zm-.17,2.7c-.13,0-.35-.05-.46,0s-.08.28-.07.4c0,.32.13.32.43.32s.28,0,.3-.18.1-.62-.2-.57Zm-.87,6.79c-.2,0-.48-.07-.52.17a1.11,1.11,0,0,0,0,.48c.09.2.65.15.7-.07a1,1,0,0,0,0-.38c0-.16,0-.19-.22-.2Zm.21-6.66c0-.21-.31-.14-.49-.13s-.27.12-.23.31c0-.07,0-.13,0,.09s-.08.3.13.35a1.16,1.16,0,0,0,.49,0C34.44,21.33,34.42,20.92,34.39,20.79Zm1,.54a.76.76,0,0,0,.61.07c.17-.08.1-.45.09-.61s-.58-.19-.69-.07a.81.81,0,0,0,0,.61Zm.61-1.4c-.18,0-.38,0-.56,0h-.08a1.6,1.6,0,0,0,0,.44c0,.22.15.18.36.18s.29.05.34-.12a1.55,1.55,0,0,0,0-.31.3.3,0,0,0,0-.18l-.08,0ZM33.85,28.3c-.26,0-.18.28-.18.43,0,.37.15.29.45.32a1.25,1.25,0,0,0,.22-.75A2,2,0,0,1,33.85,28.3ZM35.42,19a1,1,0,0,0-.05.66s0,0,.06,0a1.74,1.74,0,0,1,.32,0c.08,0,.22,0,.29,0l.05,0h0l0-.13a4.57,4.57,0,0,0-.65-.43Zm-.3,5.94H35a.78.78,0,0,0-.41,0c-.11.08-.06.2-.06.32s-.06.3,0,.38a.3.3,0,0,0,.28,0l.09-.05c.06-.22.14-.43.2-.65h0v0ZM34.5,26c0,.14,0,.57.15.4l0,0a2.56,2.56,0,0,1,.17-.6l-.05,0C34.57,25.71,34.5,25.76,34.5,26Zm-1,3.85s0-.08,0-.12,0-.35,0-.53a.19.19,0,0,0-.08-.07c0,.15.07.31,0,.46-.08,0-.13-.08-.17-.17a1.58,1.58,0,0,0-.12-.29h-.11c-.19,0-.26.06-.26.3s-.05.35,0,.42.55,0,.68,0h0s0,0,0,0,0,0,0,0Zm.12-.62c0,.19,0,.37,0,.55h0s0,0,0-.06a6.55,6.55,0,0,0,.32-.58h-.2a.18.18,0,0,0-.2.1Zm-1.31,1.5c.31,0,.34-.06.34-.37s0-.36-.36-.36-.38,0-.38.36.06.37.4.37Zm-.86,1.8c-.13,0-.29,0-.37.09a.81.81,0,0,0,0,.41c0,.22.11.24.29.25h.08c.19,0,.34,0,.37-.17a1.19,1.19,0,0,0,0-.46C31.79,32.51,31.64,32.55,31.5,32.55Zm.83-2.66c.33,0,.37-.07.37-.34v-.09c0-.3-.09-.31-.37-.31s-.36.06-.36.37h0c0,.33,0,.37.36.37Zm.09-1.59c-.35,0-.42,0-.45.35s0,.39.3.4h.15c.25,0,.28,0,.28-.35s0-.39-.28-.4Zm.07,3.4-.27,0c-.09,0-.17,0-.2.05s-.05.33-.05.47h0a.09.09,0,0,1,0,0,.12.12,0,0,0,0,0c0,.3.33.26.55.24s.18-.2.18-.41S32.73,31.71,32.49,31.7Zm0-.85h-.13c-.24,0-.41,0-.41.24a1.61,1.61,0,0,0,0,.38c0,.13.1.11.24.12s.48.09.5-.2.06-.55-.2-.54Zm.91-.83c-.31,0-.6-.1-.6.27v0c0,.34,0,.43.4.43a3.92,3.92,0,0,0,.34-.64c0-.08-.07-.09-.14-.09Zm-.6,1.07c0,.22-.08.56.23.48a2.07,2.07,0,0,1,.11-.71h-.08c-.17,0-.26,0-.26.24Zm.09.62c-.16,0-.2.75.08.74a3,3,0,0,0,0-.6C33,31.78,33,31.71,32.9,31.71Zm-3.62.91c-.06-.09-.2-.08-.31-.07h0c-.31,0-.39,0-.39.32s0,.42.35.43a.9.9,0,0,0,.26,0,.15.15,0,0,1,.12-.11.74.74,0,0,0,0-.18C29.31,32.9,29.34,32.7,29.28,32.62Zm-.09.81a.49.49,0,0,0-.26,0c-.32,0-.37,0-.37.37s.07.37.4.37.34-.07.35-.38a.61.61,0,0,0,0-.28.24.24,0,0,1-.08-.06Zm.1-1.65c-.07-.11-.22-.08-.33-.08-.36,0-.41.08-.4.44,0,.18,0,.28.19.3s.58.07.56-.21c0-.11.05-.35,0-.45Zm-.86.82c-.09-.08-.18,0-.28,0s-.38-.06-.43.12a1,1,0,0,0,0,.57c.08.09.46.06.56,0s.15-.21.15-.38,0-.23,0-.31Zm1.56.8c-.13,0-.44-.06-.54.05a.88.88,0,0,0,0,.43c0,.23.08.25.3.26s.36.06.42-.11.09-.63-.15-.63ZM8.57,19.81c-.33,0-.38.12-.38.4a.35.35,0,0,0,0,.06c0,.33.17.29.48.29s.27-.09.28-.38v-.05c0-.27-.07-.31-.37-.32Z"/><path class="cls-3" d="M16.06,30.87l-.1-.09a.57.57,0,0,0-.11-.11.3.3,0,0,0-.32-.08.31.31,0,0,0-.18.26,3.4,3.4,0,0,0,0,.45,3.68,3.68,0,0,1-.06.59l-.08.31h.48l.07-.14c.06-.13.13-.27.2-.4l.19-.4h0a.32.32,0,0,0,0-.37l0,0ZM29.93,29l-.09,0a.44.44,0,0,0-.4.06s0,0-.06,0a.36.36,0,0,0-.28.38,9.86,9.86,0,0,0,.12,1.21l.12.8.35-.73a.8.8,0,0,0,.08-.29v0c0-.2.07-.4.1-.6l.05-.29s0,0,0-.06A.49.49,0,0,0,30,29l0-.09Zm-.49-3.52-.33,0a2.22,2.22,0,0,1-.85,0h0a1.07,1.07,0,0,0-.25,0H27l.9.49a1.51,1.51,0,0,0,.83.26l.29,0,.13,0h0l.49,0a7.3,7.3,0,0,0,1-.08l.72-.11-.63-.36a2.06,2.06,0,0,0-1.26-.31ZM12.72,25.2a.3.3,0,0,0,.18-.06l.06,0,0,0h0a4.41,4.41,0,0,1,1.85-.81l.89-.16c.7-.12,1.42-.25,2.13-.42a2.46,2.46,0,0,0,.52-.15l2-.83-3.05.5-.51.07-1.6.19h0a4.32,4.32,0,0,0-1.39.31l-.45.21-.51.24a.68.68,0,0,0-.44.73.08.08,0,0,0,0,0v.23Zm19.38-.39a1.48,1.48,0,0,0-.74-.29l-.54-.07A.24.24,0,0,0,31,24.4a.4.4,0,0,0,.17-.23l0-.07V24l0-.09a.43.43,0,0,0,0-.11v0l-1.47-2.06-.44-.38h0l.26.15.26.14a.37.37,0,0,0,.28,0l.33-.09-.19-.29a7.18,7.18,0,0,0-1.48-1.25,6.72,6.72,0,0,1-.73-.56l-.06-.06,0,0,0,0,0,0a3.62,3.62,0,0,0-.55-.2h0a2.54,2.54,0,0,1,.53.16,10.88,10.88,0,0,1,1.16.61,1.68,1.68,0,0,0,.34.2l1,.45-.75-.84A11.33,11.33,0,0,0,26.26,17H26.2a1.85,1.85,0,0,0-1.22.06h0a.34.34,0,0,0-.25.45,3.07,3.07,0,0,1,.09,1v.16a.38.38,0,0,0,.24.38.42.42,0,0,0-.12.08.45.45,0,0,0-.11.33v.22l-.08-.17v.8a.53.53,0,0,0,0,.25v.05h0v.09l0,0,0,.05h0l.05.13,0,0a.31.31,0,0,0-.25,0,.22.22,0,0,0-.13.12,1.16,1.16,0,0,0-.11-.81l0,0h.09l.09-.11a1,1,0,0,0,.17-.49.13.13,0,0,0,0-.06,3,3,0,0,0-.06-1.45,3.43,3.43,0,0,0-1.25-2A5.89,5.89,0,0,0,21.17,15a5.45,5.45,0,0,0-2.63.33l-.21.07c-.16,0-.31.1-.45.15a2.82,2.82,0,0,0-.38.21,9.37,9.37,0,0,0-1.44,1.05s0,0,0,0L16,17h0c-.12.09-.22.19-.31.27l-.14.13-.09.08a13.63,13.63,0,0,0-1.23,1.66,5.38,5.38,0,0,0-.49.86,4.23,4.23,0,0,1-.22.42c-.09.16-.18.34-.26.52l-.38.94.77-.65c.32-.27.62-.56.91-.84,0,0,0,0,0,0l.05,0,0,0a2.69,2.69,0,0,1,.38-.32l.3-.2a6.66,6.66,0,0,1,1.43-.78l.06,0,.35-.15.05,0a2.16,2.16,0,0,1,.57-.2l.43-.08.69-.12a6.21,6.21,0,0,1,1.37-.16,7.33,7.33,0,0,1,1.3.16,4,4,0,0,0-.69,0l-1.17,0a4.91,4.91,0,0,0-1.06.13,9.09,9.09,0,0,0-3.74,1.85,16.67,16.67,0,0,0-1.44,1.33c-.13.14-.26.27-.4.4a.71.71,0,0,0-.1.14c-.39.6-.77,1.21-1.15,1.81a1.63,1.63,0,0,0-.18.43l-.17.69.57-.43.06-.05.14-.11a4.35,4.35,0,0,1,1.59-.81h0A8,8,0,0,1,16,23.3a18,18,0,0,0,3.17-.55A6.28,6.28,0,0,0,21,22a6.8,6.8,0,0,0,.82-.62,1,1,0,0,1-.19.53,2.66,2.66,0,0,1-1.05.77h0a12.57,12.57,0,0,1-2.48,1c-.33.09-.69.16-1,.23s-.59.12-.89.2l-.67.14a6.65,6.65,0,0,0-1.73.54,2.31,2.31,0,0,0-1.06,1.08,1.23,1.23,0,0,0-.07.8l.16.65.3-.6.09-.17a1.39,1.39,0,0,1,.16-.3,1.64,1.64,0,0,1,1.05-.63c.27,0,.54-.08.83-.11l.39,0c.5-.07,1-.11,1.52-.15s1.24-.09,1.86-.19a6.26,6.26,0,0,0,2.65-.88l.43-.28a6.78,6.78,0,0,0,1.21-.9,4.45,4.45,0,0,0,.92-1.26,2,2,0,0,0,.52,1.76l.08.07a5.76,5.76,0,0,0,1.6,1.09,9.6,9.6,0,0,0,1.61.57,2,2,0,0,0,.68.06h.09a11.87,11.87,0,0,1,1.58-.11h.31a9.46,9.46,0,0,1,1.21.08l1,.14-.8-.59Zm-5.81-2.34L27,23l.23.17a3.82,3.82,0,0,0,1,.59l.45.17c.2.08.42.17.64.24l.16.05.12,0h0l.74.14a16.84,16.84,0,0,1-1.75-.31,2.59,2.59,0,0,1-1-.46c-.52-.44-.94-.81-1.31-1.15Z"/><path class="cls-4" d="M27.41,34.92c-.15-.37-.31-.75-.45-1.12l-.08-.2v0a.25.25,0,0,0-.08-.12l0,0-.16.18a3.68,3.68,0,0,1-.7.85l-.09.11A3.28,3.28,0,0,1,25,35c-.16.08-.33.16-.49.26l-.18.1h.21l.26,0a4.62,4.62,0,0,1,1.7.41c.19.08.21.24.22.43s0,.07,0,.07h-.05s0,0-.07,0a14.74,14.74,0,0,0-2-.57l-.56-.14h-.05l0,0h0s-.08,0-.1.11,0,.24.15.28a2,2,0,0,1,.32.1l.6.2a5.23,5.23,0,0,1,1.58.67.25.25,0,0,0,.17.06.44.44,0,0,0,.2-.07.64.64,0,0,0,.35-.87.83.83,0,0,1,.13-.81.3.3,0,0,0,0-.33Zm-7,.91a4.34,4.34,0,0,1-.65.06,3.33,3.33,0,0,1-.48,0c-.06,0-.06,0-.07-.08v0h0l.46-.1A6.2,6.2,0,0,1,21,35.44v-.06H21a.09.09,0,0,1,0-.05v-.07H21a1.51,1.51,0,0,1-.52-.23l-.19-.11a2.67,2.67,0,0,1-1.15-1.13,2.13,2.13,0,0,0-.31-.43l-.14-.17-.07-.1,0,.12-.06.19c-.06.18-.11.36-.18.52a1,1,0,0,0,0,.91.27.27,0,0,1-.07.32l-.29.33-.2.22,0,0a.18.18,0,0,0-.07.18.8.8,0,0,1,0,.15.43.43,0,0,0,.19.38s0,0,0,.07v.86a.21.21,0,0,0,.07.19,1.13,1.13,0,0,0,.49.16h0c.07,0,.1-.1.12-.16l0-.07,0,0v0c.15-.08.29-.19.43-.28a2.57,2.57,0,0,1,.54-.34c.22-.09.43-.2.64-.3A5.15,5.15,0,0,1,21.74,36l.39-.06-.39-.06a4.23,4.23,0,0,0-1.33,0Zm3.18-.23a.17.17,0,0,0-.05-.13.15.15,0,0,0-.11,0h-.05a2.28,2.28,0,0,1-.45,0h-.49s0,0-.05,0a.11.11,0,0,0-.09.1.2.2,0,0,0,.16.22,2,2,0,0,0,.48.06h0a4.21,4.21,0,0,0,.5,0c.16,0,.15-.14.15-.21v0ZM36.46,15.3a.23.23,0,0,0,.17-.23c0-.31,0-.63.07-1s.07-.86.11-1.31l-.07,0c-2.51.73-5.2,1.42-7.71,2.15-.13,0,0,.24,0,.33.39.69.81,1.33,1.2,2,0,.06.07.09.11.1s.09-.06.11-.07l6-2.07Zm-.37-1.81c.27,0,.41.14.42.43a.55.55,0,0,1-.48.54.48.48,0,0,1-.45-.46.53.53,0,0,1,.51-.51ZM9.65,18.35l1.19.17,1.84.25h0c.08,0,.09-.07.11-.13.16-.54.32-1.08.49-1.62,0-.11,0-.14-.11-.17l-3.43-.91L6.34,15H6.27s0,0-.06,0a0,0,0,0,0,0,0,.07.07,0,0,0,0,.05l-.27,2.53c0,.11,0,.15.09.18h.06l3.58.49ZM6.89,16.11C7,16,7.14,16,7.27,16a.44.44,0,0,1,.48.33.8.8,0,0,1-.17.95.5.5,0,0,1-.67,0A.82.82,0,0,1,6.89,16.11Z"/><path class="cls-5" d="M36.09,13.49a.53.53,0,0,0-.51.52.48.48,0,0,0,.45.45.55.55,0,0,0,.47-.54c0-.29-.14-.43-.41-.43ZM7.27,16a.54.54,0,0,0-.38.1.82.82,0,0,0,0,1.18.5.5,0,0,0,.67,0,.78.78,0,0,0,.17-.95A.44.44,0,0,0,7.27,16Z"/><path class="cls-5" d="M19.79,41.43a.31.31,0,0,1-.11-.2,1.73,1.73,0,0,1,0-.68,7.14,7.14,0,0,0,.18-1.3c0-.18,0-.34-.21-.42s-.34,0-.47.12a10,10,0,0,0-.69.77l-.65.81s-.07.13-.14.09,0-.1,0-.15.05-.39.07-.58a2.84,2.84,0,0,0,0-.77c-.05-.31-.27-.39-.52-.2l-.17.16a6.07,6.07,0,0,0-.52.73,16.28,16.28,0,0,1-1.25,1.82,4.19,4.19,0,0,0-.26.33.36.36,0,0,0,0,.41.34.34,0,0,0,.33.15c.15,0,.22-.12.3-.22l1.11-1.51s0-.07.09-.06,0,.13,0,.2a2.54,2.54,0,0,0,0,.73.35.35,0,0,0,.54.27,2,2,0,0,0,.37-.27A7,7,0,0,0,18.3,41l.62-.79a1.7,1.7,0,0,1,0,.59,3.72,3.72,0,0,0,0,1,.38.38,0,0,0,.33.35.79.79,0,0,0,.49-.13.37.37,0,0,0,0-.61Zm15.32.08a.42.42,0,0,1-.27-.12,4.26,4.26,0,0,1-.64-.7c-.16-.21-.16-.21,0-.36a1.33,1.33,0,0,0,.57-1.26.67.67,0,0,0-.6-.67,1,1,0,0,0-.77.26c-.05,0-.08.08-.17,0a.37.37,0,0,0-.52.06.75.75,0,0,0-.18.34c-.22.89-.45,1.78-.66,2.68-.07.29.08.45.39.4s.42-.2.47-.57a6.91,6.91,0,0,1,.2-1.05l.76,1a2.48,2.48,0,0,0,.88.73.57.57,0,0,0,.67-.13.33.33,0,0,0,.1-.36.29.29,0,0,0-.28-.23ZM34,39.44a.76.76,0,0,1-.13.23,2.1,2.1,0,0,1-.88.63,2.51,2.51,0,0,1,.2-.75.68.68,0,0,1,.55-.43A.23.23,0,0,1,34,39.44Zm-18.81-1c-.12,0-.25,0-.31.11s-.09.07-.16.06a1.35,1.35,0,0,0-1.18.39,3.05,3.05,0,0,0-1,2.4c0,.63.39.94,1,.8a3,3,0,0,0,2.22-2.8A1.2,1.2,0,0,0,15.23,38.47Zm-.17,1.39a2.26,2.26,0,0,1-.75,1.45,1,1,0,0,1-.58.24.37.37,0,0,1-.44-.41,2.63,2.63,0,0,1,.57-1.52.8.8,0,0,1,.94-.23c.2.08.27.18.26.47Zm15.26-.35a2.1,2.1,0,0,1,.44,0,3.58,3.58,0,0,0,1.12-.13.54.54,0,0,0,.34-.23c.12-.19.08-.32-.15-.32a7.8,7.8,0,0,0-1.45,0c-.29,0-.57.11-.67.43,0,0,0,0,0,0a.8.8,0,0,0-.54.63c-.19.62-.35,1.24-.53,1.85a.26.26,0,0,0,.14.32.37.37,0,0,0,.31,0A5.74,5.74,0,0,1,31,41.87a.54.54,0,0,0,.22,0,.43.43,0,0,0,.21-.43c0-.16-.15-.21-.29-.23l-.31,0a5.85,5.85,0,0,0-1.1.1c.05-.41.08-.43.47-.43a2.21,2.21,0,0,0,.84-.13.48.48,0,0,0,.31-.4c0-.14-.05-.22-.19-.22h-.33l-.81.07c.05-.09.07-.17.11-.24s0-.31.15-.37Zm-18-.76a1.4,1.4,0,0,0-.61-.2,1.63,1.63,0,0,0-1.08.42,3.63,3.63,0,0,0-1.15,2,1.18,1.18,0,0,0,.13.86.46.46,0,0,0,.52.24,5.53,5.53,0,0,0,1.54-.54,1.5,1.5,0,0,0,.4-.3.49.49,0,0,0,.15-.36c0-.13-.06-.18-.18-.19a1.3,1.3,0,0,0-.34.08,11.14,11.14,0,0,1-1.1.4c-.19,0-.25,0-.29-.19a.55.55,0,0,1,0-.22,2.94,2.94,0,0,1,.33-.85,1.31,1.31,0,0,1,.43-.5.68.68,0,0,1,.78-.08.24.24,0,0,0,.27,0,.61.61,0,0,0,.27-.36.16.16,0,0,0-.08-.2ZM28.7,39a1.2,1.2,0,0,0-1.64.09.72.72,0,0,0-.15.93,4.9,4.9,0,0,0,.49.73c.13.17.26.33.38.51s0,.22-.1.27a.36.36,0,0,1-.25,0,1.88,1.88,0,0,1-.66-.41.4.4,0,0,1-.14-.22.24.24,0,0,0-.22-.21c-.15,0-.28,0-.37.14a.51.51,0,0,0,.16.7,2.69,2.69,0,0,0,1.65.67.68.68,0,0,0,.69-.92,2.7,2.7,0,0,0-.34-.56c-.21-.28-.43-.55-.63-.84s-.09-.38.17-.47a.71.71,0,0,1,.64.14c.23.18.42.09.47-.2A.35.35,0,0,0,28.7,39Zm7.47-23.13c.25-.09.49-.19.74-.27a.24.24,0,0,0,.19-.25l.24-3.22c0-.15,0-.18-.16-.13l-2.42.74c-.24.08-.25.08-.36-.16-.41-.92-.73-1.87-1.06-2.82a.72.72,0,0,1,0-.56,2.59,2.59,0,0,0,0-1V8.1a17.14,17.14,0,0,0-.45-2.75A10.87,10.87,0,0,0,32,3.1c-.4-.76-.84-1.52-1.31-2.26A1.83,1.83,0,0,0,30,.09a1.37,1.37,0,0,0-.4-.09.4.4,0,0,0-.35.17.75.75,0,0,0-.12.76c.34.73.64,1.47.94,2.22,0,0,0,.06.07.12A.15.15,0,0,1,30,3.19a11.58,11.58,0,0,0-1.76-1.43A24.34,24.34,0,0,0,25.56.22,1.21,1.21,0,0,0,25.18.1L24.5,0a.52.52,0,0,0-.63.52c0,.19-.08.24-.23.25a.47.47,0,0,0-.35.34,1.24,1.24,0,0,0,.4,1.1C24.48,3,25.24,3.73,26,4.49l0,0s0,0,0,.07h0s0,0-.06,0h0l-.33-.2L24.05,3.27a1.63,1.63,0,0,0-.81-.3.83.83,0,0,0-.7.26.46.46,0,0,0-.15.44.81.81,0,0,0,.39.56A14.14,14.14,0,0,1,25.2,6.31c.07.06.13.14.21.2a2.09,2.09,0,0,1,.46.63c.06.1,0,.13-.08.13a10.86,10.86,0,0,0-2.2.36c-.3.06-.6.16-.7.5s-.17.58.28.69a17.51,17.51,0,0,1,2.64.91,1.53,1.53,0,0,1,.21.14,6.53,6.53,0,0,0,.64.54,7.17,7.17,0,0,0,2.16,1l.27.09a.19.19,0,0,1,.16.17.72.72,0,0,0,.54.58l.11.05a.27.27,0,0,1,.17.19c.12.42.24.85.37,1.27,0,.14,0,.18-.12.21l-2,.6c-.24.07-.24.07-.12.29l1.61,2.89c.22.41.23.41.64.2.05,0,.11-.1.14,0s.11.16.05.23a7.61,7.61,0,0,0-.51.75.17.17,0,0,0,0,.2l.53.89s.06.08.05.11c-.06.21-.14.43-.21.65A4.71,4.71,0,0,0,30,19.51c-.32-.51-.73-1-1.1-1.44a1.89,1.89,0,0,0-.2-.2A5.51,5.51,0,0,0,27.43,17a2.25,2.25,0,0,0-.61-.23,3.91,3.91,0,0,0-2,0,.22.22,0,0,1-.29-.1A2.77,2.77,0,0,0,24,16a5.84,5.84,0,0,0-1.75-1,5,5,0,0,0-1.53-.29,5.62,5.62,0,0,0-.82,0,4.22,4.22,0,0,0-2,.52c-.12.07-.26.11-.39.19a7.44,7.44,0,0,0-1.8,1.2,22.76,22.76,0,0,0-1.59,1.67,10.82,10.82,0,0,0-1.39,2.25.3.3,0,0,1-.12.17c-.07-.45-.15-.89-.21-1.32,0-.08,0-.08.09-.07l.47,0c.12,0,.18,0,.21-.14l.12-.56c.14-.7.35-1.38.54-2.07,0-.13,0-.18-.13-.21l-2-.5c-.12,0-.18-.08-.15-.21.16-.53.23-1.08.43-1.6a.36.36,0,0,1,.1-.15.62.62,0,0,0,.29-.54A.35.35,0,0,1,12.6,13a9.38,9.38,0,0,0,.94-.51,1.38,1.38,0,0,0,.58-.59,33.17,33.17,0,0,1,1.74-3.21A2,2,0,0,1,16,8.47,16.09,16.09,0,0,1,17.4,7.09a.61.61,0,0,0,.2-.51A.86.86,0,0,0,17.34,6a.57.57,0,0,0-.5-.26.39.39,0,0,1-.15,0c0-.07.09-.09.13-.12l1.8-1.16L20.8,3.07c.1-.06.14-.11,0-.2a.46.46,0,0,1-.07-.07c-.15-.18-.15-.18-.35,0l-6.1,3.79c-.18.11-.18.11-.27-.09A14,14,0,0,1,13.59,5a.2.2,0,0,1,.08-.24c.51-.41,1-.87,1.45-1.32a1,1,0,0,0,.33-.65c0-.31-.16-.46-.43-.35a2.32,2.32,0,0,0-.39.18,18.67,18.67,0,0,1-3.81,1.51c-.08,0-.14,0-.21,0a2.25,2.25,0,0,0-.49-.37.14.14,0,0,0-.11,0A.68.68,0,0,0,9.54,4c-.28.41-.64.77-.9,1.2s-.59,1-.93,1.47c-.07.09-.09.1-.15,0l-1.13-2A6.17,6.17,0,0,0,6,4.07a.67.67,0,0,0-.64-.28s-.1,0-.12.06a1.78,1.78,0,0,0-.1.59,11.59,11.59,0,0,0,.26,1.43c.2.81.43,1.61.68,2.41s.49,1.56.75,2.35c0,.07.06.13,0,.18s-.31.1-.34.22.09.27.14.4l0,0c0,.1.06.26.14.29s.19-.08.29-.14.11,0,.15.05c.22.52.45,1,.67,1.55a.31.31,0,0,1,0,.25,9.14,9.14,0,0,0-.34,1.27c0,.13-.06.13-.16.1L6,14.46c-.22-.06-.22-.06-.25.16v0c-.1,1.18-.21,2.35-.32,3.53,0,.11,0,.15.12.16l1,.15c.06,0,.11,0,.1.11-.08.4-.14.8-.22,1.2a.3.3,0,0,0,.06.29l.35.47a.34.34,0,0,1,.07.37.31.31,0,0,0-.06.2c0,.74,0,1.48,0,2.21,0,.36,0,.72,0,1.07,0,1,.07,1.9.1,2.85,0,.46-.06.92,0,1.38a.19.19,0,0,0,.15.22c.28.09.55.2.84.29a.47.47,0,0,1,.32.28.75.75,0,0,1,.07.39.29.29,0,0,0,.15.27L9.8,31l3.46,2.56c.1.08.13.14.07.25s-.1.24-.16.35,0,.17.05.24a4.71,4.71,0,0,1,.42.33.35.35,0,0,1,.09.37c0,.09-.16,0-.24,0l-.16,0c-.55-.09-1.1-.23-1.65-.28A23.93,23.93,0,0,0,9,34.72c-.05,0-.12,0-.13.05s0,.16.05.21l.14.06a9.41,9.41,0,0,1,1.43.69,6.18,6.18,0,0,0,.92.48c.06,0,.12.06.19,0L10.12,35a.2.2,0,0,1,.18,0,10.26,10.26,0,0,1,1.75.26c1.26.3,2.52.64,3.76,1a4.07,4.07,0,0,1,1.21.43.23.23,0,0,1,.13.23s.05.06,0,.08-.07,0-.09,0l-.87-.08a18.38,18.38,0,0,0-2.46-.17c-.62,0-1.24,0-1.86,0-.88.06-1.75.17-2.63.26,0,0-.11,0-.11,0a.14.14,0,0,0,.11.15.65.65,0,0,0,.2,0l1.32,0c1.1,0,2.2,0,3.3.07a11.71,11.71,0,0,1,1.18.09c1.83.34,3.64.7,5.45,1.09a2.91,2.91,0,0,1,.64.18c-.1.09-.22.12-.28.25-.39.89-.64,1.84-.94,2.76a.32.32,0,0,0,.21.39.5.5,0,0,0,.63-.39c0-.2.07-.39.09-.58a.12.12,0,0,1,.1-.12l.69-.29a2.82,2.82,0,0,0,.94-.57,1.17,1.17,0,0,0,.44-.83.27.27,0,0,1,.11-.24,10.23,10.23,0,0,0,1.08-1,10.68,10.68,0,0,1,1.07-.95s.07-.08.14-.06l1,.4L24.7,38.64l-.09,0A1.42,1.42,0,0,0,24,39a3.1,3.1,0,0,0-1,2.39c0,.64.4.94,1,.79a3,3,0,0,0,2.18-2.44,1.09,1.09,0,0,0-.14-.91,3.39,3.39,0,0,0-.31-.34l.07-.05a23.3,23.3,0,0,1,4.38-1.9c1.84-.63,3.72-1.14,5.61-1.62l-.13,0-.37,0a8.82,8.82,0,0,0-1.54.24h0a.47.47,0,0,1-.17,0h-.08c.11-.11.44-.47.53-.44h0l0,0a.18.18,0,0,1,.13-.09,1.37,1.37,0,0,1,.35-.33,2.49,2.49,0,0,1,.28-.15h0c.28,0,.56-.34.86-.46l0,0a5.27,5.27,0,0,0-1.25.28c-.88.32-1.78.57-2.63.95-1.31.57-2.62,1.14-3.89,1.83l-.13.06c0-.3-.07-.6-.1-.89a.09.09,0,0,1,.07-.11c1.12-.59,2.24-1.18,3.41-1.66,1-.4,1.92-.84,2.88-1.23,0,0,0,0,0,0h0s0,0,0,0h0a5.86,5.86,0,0,0-.66,1.17.1.1,0,0,0,.12,0l.59-.63a7.53,7.53,0,0,1,1.25-1.14s.08,0,.06-.08-.08,0-.12,0c-.44.09-.88.17-1.31.27-.14,0-.14,0-.14-.12,0-.34.05-.68.06-1a1.13,1.13,0,0,1,.1-.44l.53-1.2a2.29,2.29,0,0,0,.17-.62c.06-.34.1-.69.13-1,.06-.53.25-1,.34-1.55a9.44,9.44,0,0,1,.45-2q.33-.86.66-1.68a14.47,14.47,0,0,0,.89-2.29,1.13,1.13,0,0,0,0-.81,3.79,3.79,0,0,1-.14-.48.63.63,0,0,1,0-.36,1.79,1.79,0,0,0-.11-1.27c-.07-.11,0-.18.07-.25s.17-.23,0-.41-.31-.39-.48-.57-.27-.31-.41-.47-.09-.1,0-.13ZM24.72,41.31a.92.92,0,0,1-.57.24.37.37,0,0,1-.44-.4,2.65,2.65,0,0,1,.59-1.55.8.8,0,0,1,.91-.22c.2.08.27.18.27.48a2.21,2.21,0,0,1-.76,1.45Zm5.71-29.4c0-.12-.09-.18-.22-.15s-.24,0-.31-.17a1.65,1.65,0,0,0-.39-.64,2,2,0,0,0-.71-.2,5.54,5.54,0,0,0-.55-.14,2.44,2.44,0,0,1-1.09-.48c-.53-.4-1.09-.76-1.65-1.11A2.47,2.47,0,0,1,25,8.91l-1.47-.3c-.12,0-.14-.11-.15-.19a.23.23,0,0,1,.11-.26A1.54,1.54,0,0,1,24,8a18.8,18.8,0,0,1,2.38-.23,2.08,2.08,0,0,1,.55.12.3.3,0,0,0,.29,0l1.16-.75c.06,0,.17-.06.12-.17l0,0a.13.13,0,0,0-.08,0h-.1a2.1,2.1,0,0,0-1.19.35.47.47,0,0,1-.54-.1,12,12,0,0,0-2.28-2.28c-.36-.31-.71-.64-1.09-.93a.3.3,0,0,1-.08-.35c.09-.13.2-.07.3,0a5.28,5.28,0,0,1,.93.52A36.21,36.21,0,0,0,27.47,6l.09,0c.16.06.25,0,.22-.18a.44.44,0,0,0-.11-.24c-.86-1-1.77-2-2.66-3a6.64,6.64,0,0,0-.62-.57A1.41,1.41,0,0,1,24,1.58a.29.29,0,0,1,0-.34.16.16,0,0,1,.24,0,4.48,4.48,0,0,1,.86.52l1.42,1.07L28,3.86,28.1,4l.25.25,0,0s.07.08.11.1.2.11.3,0a.15.15,0,0,0,.06-.1v0s0,0,0,0a.33.33,0,0,0-.07-.13l-.32-.33c-.18-.18-.36-.36-.56-.53-.61-.51-1.25-1-1.88-1.49A9.45,9.45,0,0,0,25,1.11a1.15,1.15,0,0,1-.3-.28.25.25,0,0,1-.05-.27c0-.09.13-.09.22-.1a.73.73,0,0,1,.35.09c.82.41,1.63.84,2.41,1.31a2,2,0,0,1,.19.12c.44.28.86.6,1.27.92a3.54,3.54,0,0,1,.5.58c.07.09,0,.16,0,.22a.49.49,0,0,1-.15.1c-.06,0-.13.07-.11.15s.1.09.16.11a.53.53,0,0,0,.28,0c.3-.12.55.09.74.29s.07.17.17.14.11-.15.1-.25a5.36,5.36,0,0,0-.15-.78,12.47,12.47,0,0,0-.74-1.9c-.09-.23-.2-.46-.29-.68a.32.32,0,0,1,.09-.32c.05-.08.14,0,.21,0a1.23,1.23,0,0,1,.56.59c.14.27.31.51.46.77a15.1,15.1,0,0,1,.77,1.35,13,13,0,0,1,.86,2.08,18.92,18.92,0,0,1,.45,2c0,.25,0,.5,0,.75a2.54,2.54,0,0,1-.22,1.41.44.44,0,0,0,0,.37c.45.94.82,1.92,1.19,2.9,0,.12,0,.17-.11.21l-2.56.77c-.13,0-.16,0-.2-.1-.22-.57-.42-1.14-.63-1.72Zm-5.36,5.4a1.67,1.67,0,0,1,1.06-.06s0,0,0,0a9.59,9.59,0,0,1,1.37.46.53.53,0,0,1,.2.13,4,4,0,0,1,.76.72c.34.44.67.87,1,1.37l-.06,0h0a1.35,1.35,0,0,1-.33-.19c-.39-.23-.78-.44-1.19-.63a2.62,2.62,0,0,0-.59-.17,5.81,5.81,0,0,0-1.61-.08,3.38,3.38,0,0,1-.45,0c-.12,0-.17-.05-.17-.16a4.28,4.28,0,0,0-.1-1.24c0-.09,0-.12.1-.14ZM25,20.37s0,0,0,0a0,0,0,0,1,0,0v0s0,0,0,0v0s0,0,0,0v0s0,0,0,0v-.06s0,0,0,0V20a0,0,0,0,1,0,0v-.47c0-.14,0-.2.19-.2H26a3.78,3.78,0,0,1,.67.05,1.78,1.78,0,0,1,1,.29c.16.07.33.16.49.25l1.18.72a.61.61,0,0,1,.2.19l.4.55s0,.07,0,.11l0,0h0a.1.1,0,0,1-.09,0l-.53-.29a8.18,8.18,0,0,0-1.92-.76l-.17-.05a3.51,3.51,0,0,0-.58-.14l-.26-.06s0,0,0,.05l0,0a.2.2,0,0,0,.07.06l0,0c.41.2,1.09.33,1.58.56h0l0,0-.17-.07,0,0h0l0,0,.17.07h0l.11.05a6.22,6.22,0,0,1,.78.52l.47.36a3.54,3.54,0,0,1,1.37,2.07s0,.05,0,.08l0,0a.27.27,0,0,1,0,.17s0,0,0,0-.11.08-.16.08a4.9,4.9,0,0,1-1.08-.2h0l-.3-.1c-.37-.13-.72-.29-1.09-.42a5.09,5.09,0,0,1-1.17-.73,13.65,13.65,0,0,1-1.77-1.45.49.49,0,0,1-.14-.18,2.33,2.33,0,0,1-.11-.28L25,20.71a.49.49,0,0,0,0-.11h0a0,0,0,0,1,0,0h0a.31.31,0,0,1,0-.19Zm2.67.26h0Zm-.05,0h0l-.08,0h0l.08,0Zm-.85-.28h0Zm-.21-.07s0,0,0,0h.06s-.06,0-.06,0Zm-1.88.93s0-.06.06-.05h0a.08.08,0,0,1,0,0,2.92,2.92,0,0,0,.53.71c.22.21.46.41.69.62.48.43,1,.85,1.45,1.26a2.77,2.77,0,0,0,1.1.51,26.56,26.56,0,0,0,2.79.45A1.3,1.3,0,0,1,32,25h0l0,0A13.64,13.64,0,0,0,30.42,25a13.88,13.88,0,0,0-1.7.12,1.67,1.67,0,0,1-.59,0,9,9,0,0,1-1.58-.56,5.27,5.27,0,0,1-1.52-1l-.11-.1a1.77,1.77,0,0,1-.35-.49h0a1.93,1.93,0,0,1,0-1.26c0-.12.07-.24.11-.37Zm4.61,7.46h-.11l-.2,0a.14.14,0,0,0-.15.1,2,2,0,0,1-.11.2s0,0,0,0a2.73,2.73,0,0,1-.56.85c-.05,0-.11.1-.16.16l-.44.36a3.15,3.15,0,0,1-.83.39l-.07,0-.06,0,0,0h-.06a.13.13,0,0,0-.08.17.22.22,0,0,0,.21.14h.07a1.31,1.31,0,0,0,.27-.06l.26-.1.18-.08a5,5,0,0,1-.15.61.36.36,0,0,1,0,.09l-.15.34-.11.22a7.25,7.25,0,0,1-.72,1.16,2,2,0,0,1-.19.22,3.31,3.31,0,0,1-.44.39l-.19.12-.37.22-.3.15-.11,0-.1,0-.07,0-.22.08-.07,0-.23.07a6.38,6.38,0,0,1-.72.19L22.9,35h0l-.29,0-.31,0a4,4,0,0,1-1,0h0l-.05,0a1.09,1.09,0,0,1-.25-.1c-.11-.06-.21-.13-.32-.18a1.71,1.71,0,0,1-.23-.13,2.9,2.9,0,0,1-.29-.19,1,1,0,0,1-.41-.49,3.54,3.54,0,0,0-.16-.34l-.06-.1a5,5,0,0,0-.49-.65c-.07-.08-.14-.17-.22-.25l-.11-.12c-.15-.17-.3-.33-.46-.49L18,31.83a4.23,4.23,0,0,0-.51-.44l-.13-.1A5.08,5.08,0,0,0,17,31a.41.41,0,0,1-.11-.07l-.11-.06a2.83,2.83,0,0,1-1.09-1.32.05.05,0,0,1,0,0,.37.37,0,0,0-.39-.21,1.13,1.13,0,0,1-.45-.09h0a1,1,0,0,1-.24-.15l0,0-.11-.16a9.13,9.13,0,0,1-.68-1.17v0h0c0-.11-.08-.23-.13-.34a1.16,1.16,0,0,0-.06-.15.68.68,0,0,1,0-.19V26.9a0,0,0,0,0,0,0s0,0,0-.05a.89.89,0,0,1,.23-.25l.12-.09.25-.17c.12-.07.25-.15.38-.21A7.28,7.28,0,0,1,16,25.54l.09,0,.19,0h.47l.64,0,.95-.07,1-.1A6.31,6.31,0,0,0,21,24.84c.11,0,.22-.1.33-.15l.19-.09.11-.06c.26-.14.51-.27.76-.42a.33.33,0,0,1,.1-.06h0v0a.07.07,0,0,1,0,.06l0,0a6,6,0,0,1-.88.79l-.09.08a3.7,3.7,0,0,1-.29.24,3.67,3.67,0,0,0,1.06-.14,2.92,2.92,0,0,0,1.29-.77,3.47,3.47,0,0,0,.25-.29,4.31,4.31,0,0,0,.49-.85,3,3,0,0,0,.66,1l.06.07.05.07a.47.47,0,0,0,.1.1l.08.06.08.06,0,0,.57.43c.13.1.25.19.39.28l.58.4a5.21,5.21,0,0,0,.83.47l.21.1.68.25h0a3.11,3.11,0,0,0,.44.07h.16l.11.05a.44.44,0,0,1,.11.09.71.71,0,0,1,.27.39.06.06,0,0,1,0,0v0s-.05.05-.06.08-.11.18-.15.27,0,0,0,.05a.53.53,0,0,0,0,.46,3,3,0,0,0,.52-.66,2,2,0,0,0,.1-.21.88.88,0,0,0,0-.15.77.77,0,0,0,0-.15c0-.05,0-.12,0-.16h.18a1,1,0,0,1,.25,0c.05,0,0,.08,0,.13h0a1.64,1.64,0,0,1-.13.43,1,1,0,0,0,0,.1,3.17,3.17,0,0,1-.34.66A1.1,1.1,0,0,1,29.25,28.65Zm.47.8c-.06.3-.1.59-.15.89a1.15,1.15,0,0,1-.09.29v-.08s0,0,0,.05a9.56,9.56,0,0,1-.14-1.25c0-.1.06-.12.12-.14s.22-.14.29-.09,0,0,0,0h0c.08.06,0,.2,0,.3Zm-6.29,6.31a2.63,2.63,0,0,1-.49,0,2.12,2.12,0,0,1-.49-.06.14.14,0,0,1-.12-.15c0-.05,0-.05.08-.05h.53a2,2,0,0,0,.42,0h.07c.06,0,.1,0,.1.09s0,.14-.1.16ZM15.5,31.94h0c.08-.34.05-.71.1-1.06,0-.07,0-.06.09,0l.2.19h0l0,0a.07.07,0,0,1,0,.1l-.39.8h0v0Zm13.69-5.89a2.28,2.28,0,0,0-.45,0,1.59,1.59,0,0,1-.8-.29h0l-.06,0H28l.15,0a4,4,0,0,0,1.24-.07,1.84,1.84,0,0,1,1.16.31h0l.06,0a5.36,5.36,0,0,1-1.44.06ZM13.26,20.61a8.81,8.81,0,0,1,.47-.77l.26-.36.13-.18.42-.52.44-.51.44-.51a1.2,1.2,0,0,1,.21-.17l0-.06c.14-.12.26-.24.43-.37l0,0,.12-.11a8.5,8.5,0,0,1,1.41-1l.15-.09.2-.08.05,0,.3-.11.21-.06.74-.21a4.36,4.36,0,0,1,1.38-.21h.2a2.79,2.79,0,0,1,1,.29l.42.19.11.05.3.16.2.12.19.13a3.37,3.37,0,0,1,.37.29,2.91,2.91,0,0,1,.82,1.28,5,5,0,0,1,.23,1.09,3.12,3.12,0,0,1-.17,1.05c0,.05,0,.06-.05.06s0,0-.06-.06l-.38-.45A3.73,3.73,0,0,0,22,18.21a7.58,7.58,0,0,0-1.76-.27,7,7,0,0,0-1.43.16l-1.11.2a2.71,2.71,0,0,0-.69.25l-.32.14h0a9.21,9.21,0,0,0-1.82,1,3.16,3.16,0,0,0-.43.39h0l-.11.12c-.27.26-.53.52-.82.76a3.57,3.57,0,0,1-.48.47A2.94,2.94,0,0,1,13.26,20.61Zm-.12,1.71.08-.09A19.48,19.48,0,0,1,15,20.52a8.92,8.92,0,0,1,3.64-1.81,4.89,4.89,0,0,1,1-.12l1.17,0a3.6,3.6,0,0,1,2.07.57,3.45,3.45,0,0,1,.64.5l0,0a4.4,4.4,0,0,1,.57.72,1,1,0,0,1,.05.74,3.34,3.34,0,0,1-1.05,1.74A9.38,9.38,0,0,1,21.56,24a5.94,5.94,0,0,1-2.55.85c-1.12.16-2.25.18-3.37.33-.41,0-.83.09-1.23.16a1.9,1.9,0,0,0-1.21.73,3.24,3.24,0,0,0-.28.53.14.14,0,0,1,0-.06,1,1,0,0,1,.06-.64,2,2,0,0,1,.95-.95,10.09,10.09,0,0,1,2.34-.67c.64-.16,1.3-.25,1.93-.43a13,13,0,0,0,2.53-1A3.14,3.14,0,0,0,21.87,22a1.33,1.33,0,0,0,.21-1c0-.06,0-.09,0-.09a.14.14,0,0,0-.09.05,9.77,9.77,0,0,1-1,.79,5.8,5.8,0,0,1-1.84.75,19.41,19.41,0,0,1-3.12.55,8.65,8.65,0,0,0-2.2.42,4.66,4.66,0,0,0-1.7.87c-.06.06-.13.1-.23.18a.2.2,0,0,0,0-.07l0,0h0l0,0a1.12,1.12,0,0,1,.15-.35l1.14-1.81Zm4.25,1.12.93-.15.16,0a2.54,2.54,0,0,1-.61.19c-1,.24-2,.39-3,.58a4.52,4.52,0,0,0-1.95.86l-.12.08s-.06,0-.07,0,0,0,0,0a.43.43,0,0,1,.3-.48L14,24a4,4,0,0,1,1.32-.29Zm0,0ZM13.72,6.81a.07.07,0,0,1,0,.11l-.45.28-.08,0s0-.06-.06-.09l-1-1.1s-.08-.1,0-.14c.32-.18.56-.47.89-.62.08,0,.11,0,.16,0C13.4,5.81,13.54,6.32,13.72,6.81ZM11.13,4.57c.45-.16.89-.34,1.34-.52a18.83,18.83,0,0,0,1.84-.95L14.5,3c.05,0,.1-.1.17-.06s.06.14.06.24-.05.19-.15.28C14,4,13.33,4.56,12.68,5.09a6.55,6.55,0,0,1-.87.46.1.1,0,0,1-.13,0l-.63-.82c-.08-.1,0-.1.08-.12ZM7.27,10.39c-.49-1.5-1-3-1.4-4.52-.09-.35-.13-.72-.2-1.09a.19.19,0,0,1,.12-.2c.09,0,.1.07.13.11a26.8,26.8,0,0,1,1.67,3c.16.29.34.58.52.88,0,.05.06.1.14.07s.08-.09.06-.16A5.07,5.07,0,0,0,8,7.57a.33.33,0,0,1,0-.29c.24-.5.58-.94.85-1.42s.56-.83.8-1.27a.36.36,0,0,1,.59-.09,2.15,2.15,0,0,1,.32.41,7.38,7.38,0,0,0,1.14,1.3c.29.29.58.57.89.84a.84.84,0,0,1,.17.34.06.06,0,0,1,0,.09l-.06,0a.63.63,0,0,1-.78,0,5.71,5.71,0,0,1-1.53-1.14l-.05,0c-.2-.16-.21-.15-.3.09s-.16.48-.26.71,0,.17.08.23.11.17.24.15a.11.11,0,0,0,.09-.1c0-.14.07-.28.11-.45a15.73,15.73,0,0,0,1.49,1l-.49.28L7.46,10.45c-.11.05-.15.07-.19-.06Zm.44,1c0-.1,0-.14.06-.2l4.58-2.84c.08-.06.16,0,.23,0A2.26,2.26,0,0,0,13.34,8s.05,0,.06,0a1.5,1.5,0,0,1,.87-.66,10.59,10.59,0,0,0,2.1-1.12.34.34,0,0,1,.42,0,.39.39,0,0,1,.14.39,1,1,0,0,1-.29.52A10,10,0,0,0,15.08,9,14.58,14.58,0,0,0,14,11a1.32,1.32,0,0,1-.26.36A4.45,4.45,0,0,1,12.2,12.5a.32.32,0,0,0-.19.28c0,.11,0,.21,0,.32a.89.89,0,0,1-.34.68.35.35,0,0,0-.1.22L11,15.62v0s0,.06,0,.07a.28.28,0,0,1-.2,0c-.79-.18-1.57-.38-2.36-.59A2.47,2.47,0,0,0,8.15,15c-.16,0-.17-.1-.1-.22a3.46,3.46,0,0,1,.53-1.41.21.21,0,0,0,0-.27C8.25,12.57,8,12,7.71,11.38ZM6.07,17.86H6c-.07,0-.1-.07-.09-.17.1-.85.19-1.69.27-2.54a.09.09,0,0,0,0-.05,0,0,0,0,0,0,0,.08.08,0,0,1,.07,0h.07L9.77,16l3.43.9c.11,0,.14.06.1.18l-.49,1.61c0,.07,0,.14-.1.14h0l-1.84-.25-1.2-.16-3.57-.5ZM7,19.5a.18.18,0,0,1,0-.16.11.11,0,0,1,0-.07v0a.56.56,0,0,1,0,.2Zm10.5,15.87h0s-.05,0-.07,0l0,0-.07,0a.34.34,0,0,0-.13.16h0v0h0v0a2.35,2.35,0,0,1-.09.28s0,0,0,0l0,0a0,0,0,0,1,0,0s0,0,0,0h0l-.09,0L16.69,36h-.05l0,0h0v0h0c-.13,0-.25-.06-.37-.11L16,35.74a1.31,1.31,0,0,0-.27-.06c-.24-.09-.49-.13-.73-.21h-.08l-.47-.11c-.15,0-.21-.1-.2-.26a1.34,1.34,0,0,0,0-.2.54.54,0,0,1,0-.08l-.09-.14a.13.13,0,0,1,0,0s-.06,0-.06-.07,0,0,0,0a.48.48,0,0,1-.08-.45A.43.43,0,0,1,14,34a.31.31,0,0,1,0-.1.09.09,0,0,1,0,0c.06-.26.08-.51-.2-.67l-.1-.07h0l-.4-.3s0,0-.07-.06a2.81,2.81,0,0,1-.55-.41l-.13-.07h0s-.06,0-.08-.06a.52.52,0,0,0-.11-.07c-.21-.18-.5-.35-.73-.56a.67.67,0,0,1-.19-.14h0c-.23-.16-.45-.31-.67-.48h0s0,0-.06,0a2.45,2.45,0,0,1-.37-.26.11.11,0,0,0-.1,0c-.1-.08-.19-.12-.28-.2l-.1-.07a4.14,4.14,0,0,1-.71-.51l0,0,0-.05a.43.43,0,0,1,0-.07.19.19,0,0,1,0-.07v0a4,4,0,0,1-.39-.53v-.1a.18.18,0,0,1,0-.09v0a4.33,4.33,0,0,1,.3-.78V28h0l0,0h0a.16.16,0,0,0-.1,0,.39.39,0,0,0-.1.08l0,0,0,0h0a2.27,2.27,0,0,1-.33.27s0,.05,0,.07h0a.1.1,0,0,1-.13,0l-.54-.25a.15.15,0,0,1-.08-.11s0,0,0-.05v0h0a1.68,1.68,0,0,1,.09-.78.13.13,0,0,0,0-.06,6.18,6.18,0,0,1,.13-.75v-.11h0c0-.27,0-.54-.06-.81,0-.05,0-.09,0-.14,0-.51-.06-1-.08-1.52,0-1.06-.12-2.11-.09-3.17a1.14,1.14,0,0,0-.09-.46.47.47,0,0,0,0-.1c-.05-.1-.11-.19-.17-.29a.45.45,0,0,1-.08-.42q.09-.37.15-.75c0-.12.06-.19.19-.14a1,1,0,0,0,.17,0c.23.05.46.05.68.11a.07.07,0,0,1,.06,0,3,3,0,0,1,.65.08.07.07,0,0,1,.06,0l.77.1A.34.34,0,0,1,10,19h0l.78.1h0l.41.06a2,2,0,0,0,.41.06h.07a.13.13,0,0,1,.13.13c.07.4.13.8.21,1.21,0,0,0,.05,0,.08a1.62,1.62,0,0,1,0,.19c0,.2.07.4.11.59v.08c0,.26.09.49.14.73v.08a2,2,0,0,0-.23.28,3.6,3.6,0,0,0-.31.54c-.05.13-.12.26-.17.4h0a2.87,2.87,0,0,1-.18.4h0s0,.05,0,.06h0a5.55,5.55,0,0,1-.24.56l-.1.18s0,.07,0,.1a2.64,2.64,0,0,1-.17.47,1.17,1.17,0,0,1-.13.4,3.38,3.38,0,0,1-.23.7.32.32,0,0,0,0,.09v0a.11.11,0,0,1,0,0s0,0,0,.05v0c0,.44,0,.88-.07,1.31l0,0,.16-.33c.06-.11.1-.22.16-.33a.65.65,0,0,0,.09-.23c.13-.21.24-.42.37-.62a.12.12,0,0,0,.05-.08l.37-.59c.05-.07.1-.14.14-.21h0c0-.09.08-.1.12-.14a.24.24,0,0,1,.14-.11.27.27,0,0,1,0,.09v0a.43.43,0,0,0,0,.05h0s0,0,0,0v0s0,0,0,0a0,0,0,0,0,0,0h0a7.34,7.34,0,0,0-.05.81.43.43,0,0,1,0,.05h0c0,.26.08.51.11.77h0a.56.56,0,0,1,0,.07c0,.26.1.52.13.78v0s0,0,0,.05a1.91,1.91,0,0,0,.29.52l.2.3h0a6.71,6.71,0,0,0,.63.55s.06,0,.1,0h0v0c.09,0,.16.08.25.05l.05,0s0,0,0,0,0-.06-.05-.07c-.34-.22-.29-.58-.33-.92h0a1.71,1.71,0,0,1,.22.25l0,.05.09.09a1.07,1.07,0,0,0,.19.18,1.12,1.12,0,0,0,.22.16s.07,0,.1,0h0l.71.37a.25.25,0,0,1,.14.06,1.83,1.83,0,0,1,.16.81s0,0,0,.05,0,0,0,.06a3.05,3.05,0,0,1,0,.74.09.09,0,0,1,0,.07v0h0a2.66,2.66,0,0,1-.07.74c0,.24-.08.47-.1.72a0,0,0,0,0,0,0s0,.1.07.08h0a9.51,9.51,0,0,0,.67-.74v0a.2.2,0,0,1,.1-.17,2.81,2.81,0,0,0,.27-.36l.27-.36v0a.1.1,0,0,1,.05-.08h0a.16.16,0,0,1,.09,0l.14.09a2.18,2.18,0,0,1,.73.47.16.16,0,0,1,.07.07.69.69,0,0,1,.24.24l.06.06h0c.33.28.36.44.12.81l0,0-.05.1s0,0,0,.06l0,0a1,1,0,0,0-.15.33.77.77,0,0,0,0,.3c.05.16.09.33.13.5s0,.21,0,.31a.47.47,0,0,1-.3.51Zm1.13,2.07c-.05.07-.06.21-.15.2h0a1.13,1.13,0,0,1-.48-.15c-.05,0,0-.1,0-.16v-.8c0-.06,0-.12,0-.16s-.14-.32-.19-.49a.17.17,0,0,1,.07-.15l.5-.55a.31.31,0,0,0,.07-.39.93.93,0,0,1,0-.86c.1-.23.16-.48.25-.75l0,0h0a3.91,3.91,0,0,1,.45.6A2.68,2.68,0,0,0,20.25,35a2.21,2.21,0,0,0,.73.34h0s.07,0,.06,0,0,0,0,0h0a4.93,4.93,0,0,0-.87.12l-.45.11-.41.09h0c-.06,0-.09,0-.08.11a.12.12,0,0,0,.12.12,1.83,1.83,0,0,0,.47,0h0a3.18,3.18,0,0,0,.62-.06,5.49,5.49,0,0,1,.7-.05,5.19,5.19,0,0,1,.68.05,9.16,9.16,0,0,0-2.08.84c-.36.15-.63.44-1,.62,0,0,0,.07-.07.1Zm2.21.57h0a0,0,0,0,1,0,0h0l0,0-1.53-.38c.18-.14.31-.22.52-.14s.67.33,1,.49a.06.06,0,0,1,.05,0s0,0,0,0Zm1.5,1.62A1.15,1.15,0,0,1,22,40a2.48,2.48,0,0,1-.86.43,4.23,4.23,0,0,1,.44-1,.56.56,0,0,1,.67-.13A.3.3,0,0,1,22.35,39.63Zm2-2.26c-.39.32-.78.64-1.14,1a.18.18,0,0,1-.26,0,17.69,17.69,0,0,0-1.95-1c-.29-.12-.6-.17-.9-.28,0-.06.09-.06.14-.08.66-.24,1.32-.46,2-.75a.91.91,0,0,1,.49,0,1.06,1.06,0,0,0,.7-.08.12.12,0,0,1,.13,0l1.49.61-.66.54Zm3-2.16a.91.91,0,0,0-.13.87.57.57,0,0,1-.32.79.43.43,0,0,1-.22.07.23.23,0,0,1-.15,0,8.88,8.88,0,0,0-2.2-.88,2,2,0,0,0-.32-.1c-.13,0-.12-.12-.1-.21s0-.07.08-.06a.22.22,0,0,1,.11,0,24.26,24.26,0,0,1,2.53.7l.07,0c.06,0,.08-.07.07-.15s0-.38-.25-.48a4.71,4.71,0,0,0-1.73-.41l-.26,0a7.88,7.88,0,0,0,1.26-.72.74.74,0,0,0,.13-.12l.71-.85s.05-.1.08-.14h0a.26.26,0,0,1,.09.13c.17.44.35.88.53,1.32a.22.22,0,0,1,0,.26Zm9.1-18.07,0,0a.06.06,0,0,1,0,0s0,0,0,0l0,0h0a.48.48,0,0,0,0,.74.14.14,0,0,1,0,.06c.17.23,0,.45,0,.68a.05.05,0,0,1,0,0h-.09l-.44-.14h-.07a.52.52,0,0,1-.21,0,.46.46,0,0,0-.52.09.06.06,0,0,1,0,0,.55.55,0,0,0,.3.16,7.67,7.67,0,0,1,1.21.62.26.26,0,0,1,.1.27,1.16,1.16,0,0,1,0,.18l-.12.55a.25.25,0,0,1,0,.14c0,.29-.2.51-.3.77a.24.24,0,0,0,0,.07c-.07.18-.15.36-.23.53,0,0,0,0,0,0h0s0,0,0,0h0a.46.46,0,0,1-.1.24,3.64,3.64,0,0,1-.33.76.16.16,0,0,0,0,.06c-.11.26-.23.57-.34.85,0,.1,0,.2-.07.3v0h0a0,0,0,0,1,0,0,.76.76,0,0,1-.06.34l-.06.21s0,0,0,0l-.36,1.61c-.09.44-.13.89-.21,1.34s-.08.84-.18,1.25a3.81,3.81,0,0,1-.38.85,8.08,8.08,0,0,1-.37.79v0a.14.14,0,0,0,0,.06,0,0,0,0,0,0,0V31a.13.13,0,0,0,0,.06v.26a10.39,10.39,0,0,0-.08,1.37.13.13,0,0,1-.1.16l-.1,0-.2.08-.11,0-.17.06h0l-.24.09-.16.07a1.14,1.14,0,0,1-.38.16l-.06,0-.81.36,0,0a3.25,3.25,0,0,0-.44.19l-.46.2-.75.32s0,0,0,0c-.23.09-.46.21-.68.31s-.21.09-.31.14-.24.06-.28-.14-.14-.25-.19-.38-.08-.27-.13-.39,0,0,0-.06a.64.64,0,0,1-.06-.18v0s0,0,0,0v0h0a5.34,5.34,0,0,1-.16-.53,2.67,2.67,0,0,1-.14-.36.24.24,0,0,1,0-.12v-.06a0,0,0,0,1,0,0,2,2,0,0,1,.13-.25l.09-.2c0-.07.05-.12.08-.21s.11-.27.2-.42a.45.45,0,0,1,0-.11c.08-.25.16-.52.26-.77v0c0-.15.17-.21.26-.3h0s.06,0,.08,0l.08-.09a1.09,1.09,0,0,0,.13-.17.47.47,0,0,0,.06-.09l.24-.36s.06-.1.11-.1h0c.07,0,.05.09,0,.14a1.42,1.42,0,0,0,0,.58l.06.45s0,0,0,.07a1.3,1.3,0,0,1,.07.33c0,.15.06.29.1.43a6.13,6.13,0,0,1,.31.81h0c.14.21.29.46.43.7l.13.15h0v0s.06.09.13,0,0-.05,0-.05a.58.58,0,0,1,0-.14l0-.09s0-.06,0-.09a.06.06,0,0,0,0,0s0-.06,0-.08a.68.68,0,0,1,0-.14l0-.13a.06.06,0,0,1,0,0,.14.14,0,0,0,0-.06.77.77,0,0,0,0-.15l0-.3a1.1,1.1,0,0,1,0-.16A6.6,6.6,0,0,1,30,30.07h0c0-.26.1-.55.15-.83h0a5.31,5.31,0,0,0,.14,1.38v0c.06.17.13.35.19.53a.76.76,0,0,0,0,.11l.05.1,0,.06a.1.1,0,0,1,0,.07.94.94,0,0,1,.1.1.61.61,0,0,1,.07.1c.09.08.19.16.3.27a1,1,0,0,1,0-.24,2,2,0,0,1,0-.24l0,0a1.34,1.34,0,0,0,0-.2c0-.19-.05-.39-.07-.58v-.09a6.19,6.19,0,0,1,0-.74v0a.14.14,0,0,1,0-.06,2.32,2.32,0,0,1,0-.59A1.21,1.21,0,0,0,31,29v0a3,3,0,0,1,.09-.84.1.1,0,0,1,0,0c0-.12,0-.28.06-.42l.06-.42q0-.09.06-.09l.07,0,.09.05.13.09.13.09s0,0,0,0l0,0h0a2.16,2.16,0,0,1,.67.64l.09.08a.44.44,0,0,1,.1.19,1.94,1.94,0,0,1,.3.57.17.17,0,0,0,0,.05s0,0,0,.05a.55.55,0,0,1,.08.15l.06.15,0,.07,0,0a.15.15,0,0,0,.08,0c0-.16-.07-.31,0-.46h0s0,0,0-.06a2.67,2.67,0,0,0-.19-.8v-.07a3.47,3.47,0,0,0-.3-.74.19.19,0,0,1-.07-.11.6.6,0,0,1-.09-.15.41.41,0,0,1-.07-.11v0h0c-.12-.17-.26-.33-.39-.49l0,0s0,0-.05-.06a1.39,1.39,0,0,1-.3-.26s0,0,0,0,0,0,0,0c-.21-.14-.37-.32-.56-.45,0,0-.07,0-.09-.08a14.8,14.8,0,0,1,1.63.06v0h0a3.23,3.23,0,0,1,.77.2h0a3.41,3.41,0,0,1,.5.19s.07.08.11,0S34,26,34,26l-.19-.27s0,0,0-.06a4,4,0,0,1-.33-.39.57.57,0,0,1-.11-.11,2.17,2.17,0,0,1-.37-.31s0,0-.06,0-.12-.06-.17-.1l-.17-.11-.07,0-.78-.28h-.05a.22.22,0,0,1-.13-.05.18.18,0,0,1-.05-.07v0a.2.2,0,0,1,0-.11,1.7,1.7,0,0,0,0-.39.43.43,0,0,0,0-.11l0-.11a.52.52,0,0,0,0-.11c0-.05,0-.1,0-.16s0,0,0,0a7.59,7.59,0,0,0-.22-.78l0-.1a.59.59,0,0,1-.1-.3v-.14a.83.83,0,0,1,0-.15l.06-.19v0h0a5.72,5.72,0,0,1,.26-.83,0,0,0,0,0,0,0h0a.53.53,0,0,0,.1-.33,1.21,1.21,0,0,0-.05-.18,2.4,2.4,0,0,0-.11-.23s0,0,0,0a0,0,0,0,1,0,0,2.09,2.09,0,0,1-.37-.63l0-.07a0,0,0,0,1,0,0h0s0,0,0,0h0a.19.19,0,0,1,0-.08l0-.05s0,0,0,0h0a5.62,5.62,0,0,1,.35-.5.45.45,0,0,0,.08-.45c-.07-.24-.06-.24.18-.33,0,0,.56-.22.77-.28l.13-.05h0l.1,0,.81-.3h0a5.7,5.7,0,0,1,.78-.3l.11,0s.17-.06.21-.09a5.79,5.79,0,0,1,.57-.21.44.44,0,0,1,.7.14l.08.05s.05.08.09.12l.55.59Zm-6,.23-.07,0c-.06,0-.09,0-.14-.1-.38-.7-.77-1.39-1.17-2.08-.05-.09-.07-.14.06-.17l7.54-2.21.1,0h0c0,.46-.08.89-.11,1.31l-.08,1a.22.22,0,0,1-.17.23l-6,2.07ZM18.12,26.93c.71.06,1.4.2,2.1.29a.73.73,0,0,1,.68.58,3.39,3.39,0,0,1,.18,1,.7.7,0,0,1-.25.67,1,1,0,0,0-.35.5.77.77,0,0,1,.68.27,2.46,2.46,0,0,0,.4.39.67.67,0,0,0,1-.14c.11-.17.2-.34.31-.5a1.33,1.33,0,0,1,.58-.57c.16-.05.09-.13,0-.2a.38.38,0,0,0-.5,0,3.09,3.09,0,0,0-.68.67,1.26,1.26,0,0,1-.2.2.19.19,0,0,1-.28,0,2.91,2.91,0,0,0-.31-.3.18.18,0,0,1-.06-.26,1.32,1.32,0,0,0,.15-.73,2.49,2.49,0,0,0-.53-1.53c-.05,0-.05-.08,0-.12a1.65,1.65,0,0,0,.73-1.24c0-.13,0-.24-.12-.28s-.18.07-.22.16-.25.35-.37.52a.72.72,0,0,1-.74.27c-1-.16-2-.26-3-.32-.05,0-.1,0-.14,0a3,3,0,0,0-.86.83h0l.1,0a4.91,4.91,0,0,1,1.63-.12Zm9.45.39c-.25.12-.49.26-.73.4a.44.44,0,0,1-.2.08,6.86,6.86,0,0,1-1.28.13,1.14,1.14,0,0,1-.65-.23.48.48,0,0,1-.26-.35.37.37,0,0,1,.18,0,4,4,0,0,0,.68.1,6.25,6.25,0,0,0,1.59-.38l.5-.18c.08,0,.1,0,0-.13s-.17-.07-.26-.06a9.94,9.94,0,0,1-3.31-.08c-.32-.06-.66-.08-.79-.47,0-.11-.06-.22-.08-.33a.81.81,0,0,0-.17-.3.17.17,0,0,0-.16-.07c-.07,0-.07.09-.07.14s0,.36,0,.54a1,1,0,0,0,.2.54,1.46,1.46,0,0,0,.9.59c.28.07.28.07.3.36a.33.33,0,0,0,.15.3,1.5,1.5,0,0,0,.64.26.74.74,0,0,1,.43.12.93.93,0,0,0,.56.17c.15,0,.31,0,.45.05a.34.34,0,0,0,.29-.09c.42-.35.84-.71,1.23-1.1,0-.05-.11-.07-.21,0Zm-3.49,3.44c0-.06-.07-.07-.13,0a2.74,2.74,0,0,1-1.09.24c-.16,0-.35,0-.47.09-.28.28-.51.16-.76,0l0,0a1,1,0,0,0-1.11,0,.58.58,0,0,1-.47.12.35.35,0,0,0-.34.07.71.71,0,0,1-.18.12c-.16.11-.16.13,0,.26l.12.05a1.23,1.23,0,0,0,1-.14.78.78,0,0,1,.92.06.82.82,0,0,0,.85.08,5.43,5.43,0,0,1,1.16-.38.23.23,0,0,1,.18,0c.17.16.33.05.49,0a.13.13,0,0,0,.07-.14c0-.14-.12-.22-.18-.32Zm-1.54,1.11a4.11,4.11,0,0,0-1.25.22c-.32.11-.69.18-.86.56a4.14,4.14,0,0,0-.15.68,1.15,1.15,0,0,0,.13.49s0,.12.11.11.1-.07.13-.12a4.25,4.25,0,0,0,.14-.51.85.85,0,0,1,.5-.62l.91-.37a.37.37,0,0,1,.18,0,2.48,2.48,0,0,1,1.11.26.14.14,0,0,0,.11,0c.13,0,.14-.07.07-.17a1.28,1.28,0,0,0-1.13-.53Zm-3-3.86.76-.1c.07,0,.17,0,.19-.06s-.08-.14-.14-.19a.26.26,0,0,0-.12-.05,1.48,1.48,0,0,0-.78,0,4,4,0,0,1-1.57,0,3,3,0,0,0-.46-.06,2.94,2.94,0,0,0-.62.19q-.22.11,0,.24a.26.26,0,0,0,.25.06.81.81,0,0,1,.87.17.92.92,0,0,0,.93.15,3.16,3.16,0,0,0,.52-.26.37.37,0,0,1,.2-.07ZM15,28.48a.57.57,0,0,0-.23-.56.63.63,0,0,1-.24-.36,1.26,1.26,0,0,0-.24-.54c-.05-.05-.08-.14-.15-.11a.26.26,0,0,0-.2.2.87.87,0,0,0,.49,1,.88.88,0,0,1,.4.41c0,.06,0,.19.13.17s0-.14,0-.19Z"/><path class="cls-6" d="M7,19.3a0,0,0,0,0,0,0l0,.07a.29.29,0,0,0,0,.16.43.43,0,0,0,0-.2"/><path class="cls-7" d="M30.11,28.08a3.74,3.74,0,0,0,.34-.66.69.69,0,0,1,0-.1,1.2,1.2,0,0,0,.13-.43h0s0-.11,0-.12a.73.73,0,0,0-.25,0h-.15l0,0h0s0,.1,0,.15a.89.89,0,0,0,0,.15l-.05.15-.1.21a3.35,3.35,0,0,1-.52.67.59.59,0,0,1,0-.47l0,0a2.44,2.44,0,0,1,.14-.28s.05-.05.06-.08,0,0,0,0a.06.06,0,0,0,0,0,.79.79,0,0,0-.27-.39.47.47,0,0,0-.12-.09.21.21,0,0,0-.1,0l-.16,0a2.22,2.22,0,0,1-.45-.07h0a5.54,5.54,0,0,1-.68-.25l-.21-.1a5.21,5.21,0,0,1-.83-.47l-.59-.4-.38-.27c-.2-.14-.38-.28-.57-.43l0,0-.08-.06-.08-.06a.52.52,0,0,1-.1-.11L25,24.29l-.05-.06a3.14,3.14,0,0,1-.66-1,4,4,0,0,1-.49.85,3.74,3.74,0,0,1-.25.29,2.85,2.85,0,0,1-1.29.78,4.11,4.11,0,0,1-1.06.14l.29-.25.09-.08a7.3,7.3,0,0,0,.88-.79l0,0a.06.06,0,0,0,0-.06v0h0a.13.13,0,0,0-.1.06l-.76.41-.11.06-.19.1-.33.14a5.63,5.63,0,0,1-1.67.43l-1,.1-.95.07-.64,0h-.47l-.19,0-.09,0a7.89,7.89,0,0,0-1.52.56l-.39.22-.24.16-.12.09a.89.89,0,0,0-.23.25s0,0,0,.05a0,0,0,0,1,0,0V27a1,1,0,0,0,.08.34,8.51,8.51,0,0,0,.81,1.52.93.93,0,0,0,.16.18l.24.15a1,1,0,0,0,.44.09.37.37,0,0,1,.41.26,2.77,2.77,0,0,0,1.1,1.31l.1.07A.41.41,0,0,1,17,31a3.87,3.87,0,0,1,.43.27l.14.1a6.66,6.66,0,0,1,.51.44s.08.07.12.12.31.32.45.49l.12.12.22.25a6.5,6.5,0,0,1,.49.65l.05.09a2.21,2.21,0,0,1,.16.35,1.16,1.16,0,0,0,.41.49,2.9,2.9,0,0,0,.29.19l.23.13c.11,0,.21.12.32.18a1.17,1.17,0,0,0,.26.1h.09a3.55,3.55,0,0,0,1,0l.31,0,.29-.05h0l.29-.06c.25-.05.49-.11.73-.18l.23-.07.06,0,.22-.08.08,0,.09,0,.12-.05.3-.15.37-.22.18-.13a2.74,2.74,0,0,0,.45-.39l.18-.21a6.39,6.39,0,0,0,.72-1.16c0-.07.07-.15.11-.22s.11-.23.16-.34a.42.42,0,0,1,0-.1,4.43,4.43,0,0,0,.14-.6l-.18.07-.26.11a1.1,1.1,0,0,1-.26.06H26.6a.19.19,0,0,1-.21-.14c0-.1,0-.13.08-.16l.05,0h0l.06,0,.06,0a3.53,3.53,0,0,0,.83-.4A3.13,3.13,0,0,0,28,30l.16-.15a2.81,2.81,0,0,0,.57-.86,0,0,0,0,0,0,0c0-.06.07-.12.1-.19a.15.15,0,0,1,.15-.1l.21,0h.11a1.07,1.07,0,0,0,.85-.56ZM15,28.67c-.09,0-.1-.11-.13-.17a.84.84,0,0,0-.4-.41.86.86,0,0,1-.49-1c0-.12.11-.16.2-.2s.1.06.15.11a1.26,1.26,0,0,1,.24.54.63.63,0,0,0,.24.36.57.57,0,0,1,.23.56c0,.05.05.16,0,.19Zm1.39-1.61h0a2.84,2.84,0,0,1,.86-.83.22.22,0,0,1,.14,0c1,.07,2,.17,3.05.32a.72.72,0,0,0,.74-.27,6,6,0,0,0,.36-.52c.05-.08.12-.19.22-.16s.14.15.12.28a1.67,1.67,0,0,1-.72,1.24c-.06,0-.06.07,0,.12a2.49,2.49,0,0,1,.53,1.53,1.31,1.31,0,0,1-.14.73.18.18,0,0,0,.05.26,2.27,2.27,0,0,1,.32.3.19.19,0,0,0,.28,0,1,1,0,0,0,.2-.2,2.67,2.67,0,0,1,.68-.66.36.36,0,0,1,.49,0c.06.07.13.15,0,.2a1.23,1.23,0,0,0-.58.57c-.11.16-.21.33-.31.5a.67.67,0,0,1-1,.14,3.5,3.5,0,0,1-.39-.38.78.78,0,0,0-.69-.28,1.05,1.05,0,0,1,.36-.49.75.75,0,0,0,.25-.68,3.39,3.39,0,0,0-.18-1,.88.88,0,0,0-.4-.51.67.67,0,0,0-.28-.06c-.7-.1-1.39-.24-2.1-.3a5.1,5.1,0,0,0-1.65.12l-.08,0Zm2.48,1.28a.92.92,0,0,1-.93-.15.81.81,0,0,0-.87-.17.26.26,0,0,1-.25-.06q-.19-.15,0-.24a3.13,3.13,0,0,1,.62-.19,3,3,0,0,1,.46.06,4,4,0,0,0,1.57,0,1.38,1.38,0,0,1,.78,0s.09,0,.12.05.16.1.14.19-.12,0-.19.06l-.76.1a.35.35,0,0,0-.2.07,3.16,3.16,0,0,1-.52.26Zm4.75,4.23a.13.13,0,0,1-.11,0,2.41,2.41,0,0,0-1.11-.26.35.35,0,0,0-.18,0c-.31.12-.62.23-.92.37a.85.85,0,0,0-.5.62,3,3,0,0,1-.14.51c0,.06,0,.12-.12.12s-.09-.06-.12-.11a1.15,1.15,0,0,1-.13-.49c.07-.22.06-.46.15-.68.17-.38.54-.45.87-.56a4,4,0,0,1,1.24-.22,1.28,1.28,0,0,1,1.13.53c.08.1.06.14-.06.17Zm.57-1.36c-.16.07-.32.18-.49,0s-.11,0-.17,0a5.09,5.09,0,0,0-1.16.38.8.8,0,0,1-.85-.08.78.78,0,0,0-.92-.05,1.27,1.27,0,0,1-1,.14.34.34,0,0,1-.12-.06c-.16-.13-.16-.14,0-.25l.18-.12A.31.31,0,0,1,20,31.1a.6.6,0,0,0,.48-.12,1,1,0,0,1,1.1,0l0,0c.25.2.48.31.77,0,.11-.11.31-.07.47-.09a3,3,0,0,0,1.08-.24c.06,0,.11,0,.14,0s.16.19.17.32,0,.12-.07.14Zm2.37-2.78a.33.33,0,0,1-.28.09c-.15,0-.3,0-.45-.05a1.06,1.06,0,0,1-.57-.17.82.82,0,0,0-.43-.12,1.5,1.5,0,0,1-.64-.26.33.33,0,0,1-.14-.3c0-.29,0-.29-.31-.35a1.5,1.5,0,0,1-.9-.59,1.18,1.18,0,0,1-.2-.55,4.89,4.89,0,0,1,0-.54c0-.05,0-.12.06-.14a.16.16,0,0,1,.16.07.7.7,0,0,1,.17.3,1.78,1.78,0,0,0,.09.33c.12.39.47.41.78.47a9.68,9.68,0,0,0,3.31.08c.1,0,.19,0,.26.06s.05.1,0,.13l-.5.18a5.86,5.86,0,0,1-1.59.38,3.74,3.74,0,0,1-.67-.1.4.4,0,0,0-.19,0,.55.55,0,0,0,.26.36,1.25,1.25,0,0,0,.65.23,6.78,6.78,0,0,0,1.28-.14.44.44,0,0,0,.2-.08c.24-.15.49-.27.74-.4s.16,0,.21,0a14.33,14.33,0,0,1-1.24,1.1ZM13,5.28c-.33.15-.57.45-.88.62-.09,0,0,.1,0,.15l1,1.09.05.09.08,0,.46-.28c.05,0,0-.07,0-.12-.18-.49-.33-1-.54-1.47,0-.09-.08-.09-.16,0Zm-1.35.24s.07.07.13,0a5.61,5.61,0,0,0,.87-.47C13.33,4.58,14,4,14.59,3.46c.09-.09.16-.18.14-.28s0-.2-.06-.24-.11,0-.17.06-.12.08-.19.11a20,20,0,0,1-1.84.95c-.45.17-.88.36-1.34.52-.05,0-.16,0-.07.12.2.27.42.54.62.82ZM11.74,8a15.73,15.73,0,0,1-1.49-1c0,.17-.08.31-.11.45a.11.11,0,0,1-.09.1c-.13,0-.18-.09-.24-.16s-.12-.14-.08-.22.17-.49.26-.72.1-.24.3-.09l.05,0a5.75,5.75,0,0,0,1.53,1.15.62.62,0,0,0,.78,0l.06,0a.07.07,0,0,0,0-.1A.91.91,0,0,0,12.57,7c-.31-.26-.6-.55-.89-.83A7.1,7.1,0,0,1,10.54,4.9a2.55,2.55,0,0,0-.32-.4.36.36,0,0,0-.59.08c-.24.45-.56.84-.8,1.28S8.22,6.77,8,7.28a.31.31,0,0,0,0,.28,5.41,5.41,0,0,1,.34.87c0,.07,0,.13-.06.16s-.11,0-.14-.07c-.18-.29-.36-.58-.52-.88A27.6,27.6,0,0,0,5.92,4.69c0-.05,0-.16-.13-.11a.17.17,0,0,0-.12.2c.07.36.11.73.2,1.08.4,1.53.91,3,1.4,4.53,0,.13.08.11.18,0l3.79-2.13.5-.28ZM8.59,13.39a3.46,3.46,0,0,0-.53,1.41c-.07.12-.06.2.1.22s.19,0,.29.06c.78.21,1.57.41,2.36.59a.24.24,0,0,0,.2,0s0,0,0-.07v0L11.53,14a.35.35,0,0,1,.1-.22.86.86,0,0,0,.34-.68,2.87,2.87,0,0,1,0-.31.3.3,0,0,1,.19-.29,4.54,4.54,0,0,0,1.52-1.13A1.32,1.32,0,0,0,14,11a14.58,14.58,0,0,1,1.1-2A10,10,0,0,1,16.65,7.1a1,1,0,0,0,.29-.52.37.37,0,0,0-.14-.38.33.33,0,0,0-.42,0,11,11,0,0,1-2.11,1.13,1.43,1.43,0,0,0-.86.65s0,0-.06,0a2.26,2.26,0,0,1-.76.29c-.08,0-.15,0-.23,0L7.78,11.17c-.09.06-.11.1-.06.2.28.58.54,1.19.88,1.75a.22.22,0,0,1,0,.27ZM11,15.65v0Zm20.21-1.93L33.81,13c.13,0,.15-.09.1-.21-.37-1-.74-2-1.18-2.9a.44.44,0,0,1,0-.37,2.54,2.54,0,0,0,.22-1.41c0-.25,0-.5,0-.75a16.53,16.53,0,0,0-.45-2,13.08,13.08,0,0,0-.85-2.09,15.21,15.21,0,0,0-.78-1.35c-.15-.26-.32-.51-.46-.77a1.21,1.21,0,0,0-.55-.59c-.07,0-.17-.09-.22,0a.32.32,0,0,0-.09.32c.1.23.2.45.29.68a11.51,11.51,0,0,1,.74,1.9,3.56,3.56,0,0,1,.15.79.22.22,0,0,1-.1.24c-.09,0-.11-.08-.17-.13-.19-.21-.44-.42-.74-.3a.52.52,0,0,1-.28,0c-.06,0-.14,0-.16-.1s.05-.12.11-.16a.78.78,0,0,0,.15-.1.14.14,0,0,0,0-.22,3.48,3.48,0,0,0-.5-.58c-.41-.32-.83-.64-1.27-.92l-.19-.12C26.8,1.38,26,1,25.17.54a.82.82,0,0,0-.35-.09c-.09,0-.18,0-.21.1a.23.23,0,0,0,0,.27,1.33,1.33,0,0,0,.3.28A8,8,0,0,1,26,1.72c.64.49,1.27,1,1.89,1.49.19.17.37.34.55.53l.32.33a.35.35,0,0,1,.08.13v.06a.14.14,0,0,1-.05.09c-.11.11-.21.05-.31,0a.52.52,0,0,1-.1-.11l-.05,0-.25-.25A.94.94,0,0,0,28,3.85L26.55,2.78,25.12,1.71a4.41,4.41,0,0,0-.85-.52.19.19,0,0,0-.25,0,.29.29,0,0,0,0,.34,1.54,1.54,0,0,0,.39.49,5.59,5.59,0,0,1,.62.57c.89,1,1.8,2,2.67,3a.53.53,0,0,1,.11.24c0,.16-.06.24-.23.18l-.08,0a34.76,34.76,0,0,1-3.14-1.93,5.7,5.7,0,0,0-.94-.51c-.1,0-.21-.11-.3,0a.31.31,0,0,0,.08.35c.38.29.74.62,1.1.93a12,12,0,0,1,2.27,2.29.5.5,0,0,0,.55.09,2.07,2.07,0,0,1,1.18-.35h.1a.11.11,0,0,1,.08,0,.05.05,0,0,1,0,0c.05.1-.06.12-.12.16l-1.15.75a.36.36,0,0,1-.3.05,1.68,1.68,0,0,0-.55-.11A14.64,14.64,0,0,0,24,8a1.39,1.39,0,0,0-.52.14.23.23,0,0,0-.11.25c0,.08,0,.17.15.19L25,8.9a2.59,2.59,0,0,0,.54.11c.56.35,1.12.72,1.66,1.11a2.59,2.59,0,0,0,1.08.49,4.9,4.9,0,0,1,.55.13,2,2,0,0,1,.72.2,1.84,1.84,0,0,1,.38.64c.07.14.15.21.31.17s.18,0,.23.15l.6,1.7c.06.13.1.16.22.12Z"/></svg>