<svg id="Layer_1" data-name="Layer 1" xmlns="http://www.w3.org/2000/svg" viewBox="0 0 42.52 42.52"><defs><style>.cls-1{fill:#a71d33;}</style></defs><title>Artboard 19</title><path class="cls-1" d="M34.37,18.2a6.23,6.23,0,0,1-.68,2.69l-.61.3c-.5,1,.05.62-.31,1.4a16.33,16.33,0,0,1-2.89,2.31c-.37,0,.26-.44.34-.6-1,.72-.84,1.08-2.45,1.52l-.05-.11c-3.95,1.86-9.45-1.83-9.38-6.86,0,.32-.12.24-.2.37A6.32,6.32,0,0,1,21.69,13a6,6,0,0,1,6.67.87,5.92,5.92,0,0,0-4.85-2.34,5.5,5.5,0,0,0-4.72,2.82c-1.08.67-1.2,2.61-1.67,3-.63,4.64,1.18,6.64,4.26,9,.48.33.13.38.2.63a8.34,8.34,0,0,1-2.73-2.09,7.42,7.42,0,0,0,1.42,1.64c-1-.33-2.25-2.34-2.62-2.42,1.66,3,6.73,5.22,9.39,4.1a11,11,0,0,1-4.18-.48c-.58-.3-1.37-.92-1.23-1a10.38,10.38,0,0,0,10.51-1.49c.8-.63,1.67-1.68,1.93-1.7-.38.57.06.28-.23.78.79-1.28-.35-.52.82-2.21l.43.59c-.16-1.07,1.32-2.36,1.17-4,.34-.52.38.55,0,1.74.5-1.32.13-1.53.26-2.61A9,9,0,0,1,37,18.81c-.33-1.27.33-2.14.5-2.87-.17-.07-.51.56-.59-.94,0-.65.19-.34.25-.5A3,3,0,0,1,36.45,13c.15-.22.4.59.6.62a14.74,14.74,0,0,1-.36-1.93c-.59-1.23-.21.17-.69-.52-.62-2,.52-.46.6-1.34a15.58,15.58,0,0,1,1.74,4.39,18.34,18.34,0,0,0-.87-3.13c.29.12-.47-2.22.37-.67A13.91,13.91,0,0,0,31.3,2.55c.33.31.75.69.6.75-1.34-.8-1.11-.87-1.3-1.21-1.09-.44-1.17,0-1.89,0A22.64,22.64,0,0,0,24.34.43l.09.4c-1.37-.45-1.59.18-3.07,0-.09-.07.47-.26.94-.33C21,.69,21,.25,19.74.56c.32-.22.66-.37,1-.56-1.08.07-2.58.63-2.12.12C16.86.9,13.74,2,12,3.65l-.05-.37c-.8,1-3.5,2.88-3.72,4.13L8,7.46A22.4,22.4,0,0,0,7,9.7c-.55.93-.81.36-.73.5a34.51,34.51,0,0,0-2.07,5.52c.33.49,0,3,.13,4.93-.54,9.76,6.85,19.23,14.92,21.42a16.3,16.3,0,0,0,4.44.45c-1.76-.51-2-.27-3.71-.87-1.24-.58-1.51-1.25-2.39-2l.34.61c-1.72-.61-1-.75-2.4-1.2l.37-.48a3.16,3.16,0,0,1-1.73-1.44l-.61,0c-.74-.9-1.13-1.56-1.1-2.06l-.2.35c-.22-.39-2.7-3.4-1.41-2.7a2.91,2.91,0,0,1-.91-1l.27-.3a5,5,0,0,1-1.1-2.16,1.42,1.42,0,0,0,.78.61C8.31,26,8.22,29.7,7,26l.25,0A7.76,7.76,0,0,1,6.83,25L6.94,24c-1.13-1.3-.32-5.53-.16-7.85.12-1,.94-2,1.57-3.53L8,12.51c.73-1.28,4.18-5.13,5.78-4.93.77-1-.16,0-.31-.25,1.7-1.76,2.24-1.24,3.38-1.56,1.24-.73-1.06.29-.47-.28C18.49,5,17.86,4.25,20.65,4c.29.17-.68.26-.93.48,1.78-.87,5.64-.67,8.15.48,2.9,1.36,6.17,5.38,6.29,9.15l.15,0c-.07,1.5.23,3.24-.3,4.83l.36-.75"/></svg>