<svg id="Layer_1" data-name="Layer 1" xmlns="http://www.w3.org/2000/svg" viewBox="0 0 42.52 42.52"><defs><style>.cls-1{fill:#294172;}.cls-2{fill:#3c6eb4;}.cls-3{fill:#fff;}</style></defs><title>Artboard 20</title><path class="cls-1" d="M42.52,21.26A21.26,21.26,0,0,0,0,21.25V37.7a4.84,4.84,0,0,0,4.83,4.82H21.27A21.26,21.26,0,0,0,42.52,21.26"/><path class="cls-2" d="M27.5,5a10,10,0,0,0-10,10V20.3H12.26a10,10,0,1,0,10,10V25H27.5A10,10,0,0,0,27.5,5ZM17.57,30.27A5.31,5.31,0,1,1,12.26,25h5.31v5.29Zm9.93-9.95H22.23v0h0V15a5.31,5.31,0,1,1,5.31,5.31Z"/><path class="cls-3" d="M29.71,5.34A7.71,7.71,0,0,0,27.5,5a10,10,0,0,0-10,10v5.29H13.34a2.32,2.32,0,1,0,0,4.64h3.46a.74.74,0,0,1,.74.74v4.58a5.26,5.26,0,0,1-5.26,5.26c-1,0-1.23-.13-1.9-.13A2.21,2.21,0,0,0,8,37.65a2.56,2.56,0,0,0,2.05,2.29,7.71,7.71,0,0,0,2.21.3,10,10,0,0,0,10-10V25h4.17a2.32,2.32,0,1,0,0-4.64H23a.75.75,0,0,1-.75-.74V15A5.27,5.27,0,0,1,27.5,9.75c1,0,1.23.13,1.9.13a2.21,2.21,0,0,0,2.36-2.25,2.58,2.58,0,0,0-2.05-2.29"/></svg>