<svg id="Layer_1" data-name="Layer 1" xmlns="http://www.w3.org/2000/svg" viewBox="0 0 42.52 42.52"><defs><style>.cls-1{fill:#f32735;}</style></defs><title>Artboard 21</title><path class="cls-1" d="M41.72,19.37,23.15.8a2.73,2.73,0,0,0-3.87,0L15.43,4.66l4.89,4.89a3.25,3.25,0,0,1,4.11,4.14l4.72,4.72a3.25,3.25,0,0,1,3.36,5.38,3.26,3.26,0,0,1-5.31-3.55l-4.4-4.39V27.41a3.42,3.42,0,0,1,.86.62,3.26,3.26,0,1,1-4.61,0,3.39,3.39,0,0,1,1.07-.71V15.65a3.28,3.28,0,0,1-1.77-4.28L13.53,6.55.8,19.28a2.73,2.73,0,0,0,0,3.87L19.37,41.72a2.73,2.73,0,0,0,3.87,0L41.72,23.24A2.73,2.73,0,0,0,41.72,19.37Z"/></svg>