<svg id="Layer_1" data-name="Layer 1" xmlns="http://www.w3.org/2000/svg" viewBox="0 0 42.52 42.52"><defs><style>.cls-1,.cls-2{fill:#181616;}.cls-1{fill-rule:evenodd;}</style></defs><title>Artboard 22</title><path class="cls-1" d="M21.26,0a21.8,21.8,0,0,0-6.89,42.48c1.09.2,1.49-.47,1.49-1s0-2.23,0-4C9.76,38.69,8.48,34.8,8.48,34.8a5.76,5.76,0,0,0-2.42-3.19c-2-1.35.15-1.32.15-1.32a4.56,4.56,0,0,1,3.34,2.25c1.95,3.33,5.1,2.36,6.35,1.81a4.66,4.66,0,0,1,1.38-2.92C12.44,30.88,7.35,29,7.35,20.66A8.42,8.42,0,0,1,9.6,14.81,7.78,7.78,0,0,1,9.81,9s1.83-.59,6,2.23a20.78,20.78,0,0,1,10.92,0c4.16-2.82,6-2.23,6-2.23a7.78,7.78,0,0,1,.21,5.77,8.42,8.42,0,0,1,2.25,5.85c0,8.37-5.1,10.22-10,10.75a5.24,5.24,0,0,1,1.48,4c0,2.92,0,5.27,0,6s.39,1.26,1.49,1A21.8,21.8,0,0,0,21.26,0Z"/><path class="cls-2" d="M7.72,31.3c0,.11-.22.14-.38.06s-.24-.22-.19-.32A.26.26,0,0,1,7.52,31c.16.07.25.22.2.33Zm-.27-.2"/><path class="cls-2" d="M8.6,32.28c-.1.1-.31,0-.44-.1a.33.33,0,0,1-.07-.45c.11-.1.31-.05.45.1s.17.35.06.45Zm-.21-.22"/><path class="cls-2" d="M9.46,33.54c-.13.09-.35,0-.49-.19s-.13-.43,0-.52.35,0,.48.18.14.43,0,.53Zm0,0"/><path class="cls-2" d="M10.64,34.75a.41.41,0,0,1-.56-.08c-.19-.18-.25-.43-.13-.56a.42.42,0,0,1,.57.08c.19.18.24.43.12.56Zm0,0"/><path class="cls-2" d="M12.26,35.45c0,.18-.3.25-.54.18s-.41-.27-.36-.45.3-.25.55-.17.4.27.35.44Zm0,0"/><path class="cls-2" d="M14.05,35.59c0,.17-.21.32-.47.33s-.47-.14-.47-.32.2-.33.46-.33.48.14.48.32Zm0,0"/><path class="cls-2" d="M15.71,35.3c0,.18-.15.36-.41.41s-.49-.07-.52-.24.15-.36.4-.41.49.06.53.24Zm0,0"/></svg>