<svg id="Layer_1" data-name="Layer 1" xmlns="http://www.w3.org/2000/svg" xmlns:xlink="http://www.w3.org/1999/xlink" viewBox="0 0 42.52 42.52"><defs><style>.cls-1{fill:#d43f36;}.cls-2{fill:#0f9d56;}.cls-3{fill:#557ebe;}.cls-4{fill:#f6c540;}.cls-5{fill:url(#radial-gradient);}.cls-6{fill:url(#radial-gradient-2);}</style><radialGradient id="radial-gradient" cx="-91.33" cy="364.37" r="5.41" gradientTransform="matrix(0.96, -0.7, -1.08, -1.47, 517.49, 503.24)" gradientUnits="userSpaceOnUse"><stop offset="0" stop-color="#daac3a"/><stop offset="1" stop-color="#f6c540"/></radialGradient><radialGradient id="radial-gradient-2" cx="-83.51" cy="410.46" r="4.96" gradientTransform="matrix(1.22, 1.48, 0.81, -0.67, -225.36, 409.51)" gradientUnits="userSpaceOnUse"><stop offset="0" stop-color="#b63a33"/><stop offset="1" stop-color="#d43f36"/></radialGradient></defs><title>Artboard 34</title><g id="layer2"><g id="_d43f36ff" data-name="#d43f36ff"><path id="path6" class="cls-1" d="M11.39,5a3.44,3.44,0,0,0-3,2L5.17,12.5A45.65,45.65,0,0,0,10.62,22a5,5,0,0,1,.74-2.46q4-6.54,8-13.09A.9.9,0,0,0,18.48,5C16.12,5,13.75,5,11.39,5Z"/></g><path id="path9" class="cls-2" d="M23.24,5.5c.24-.54.91-.43,1.39-.47l6.76,0a3.17,3.17,0,0,1,2.68,1.54l8.1,13.19a2.94,2.94,0,0,1,0,3.22c-1.55,2.47-3,5-4.6,7.44a6.85,6.85,0,0,0-1-2.63c-1.56-2.41-3-4.9-4.53-7.3L23.56,6.78A1.54,1.54,0,0,1,23.24,5.5Z"/><g id="_4585f4ff" data-name="#4585f4ff"><path id="path15" class="cls-3" d="M5.17,12.5c1.88,3.34,3.61,6.77,5.76,10l8.35,13.68c.83,1.14-.27,1.64-1.35,1.63-2.24,0-4.48,0-6.72,0a3.35,3.35,0,0,1-2.74-2c-2.65-4.33-5.33-8.65-8-13a2.88,2.88,0,0,1,.26-3.2Z"/></g><g id="_e9b641ff" data-name="#e9b641ff"><path id="path18" class="cls-4" d="M32.07,20.51a4,4,0,0,1-.65,2.73c-2.66,4.35-5.34,8.69-8,13.05a.89.89,0,0,0,.85,1.41l7.26,0a3.45,3.45,0,0,0,2.89-2c1-1.78,2.1-3.51,3.14-5.27a7.55,7.55,0,0,0-1.3-3.17Z"/></g><g id="_e9b641ff-0" data-name="#e9b641ff-0"><path id="path18-5" class="cls-5" d="M32.07,20.51c1.56,2.4,3,4.89,4.53,7.3a6.85,6.85,0,0,1,1,2.63l-.4.67-7-5.47c.37-.65,1.09-2.18,1.46-2.82a4.16,4.16,0,0,0,.39-2.31Z"/></g><path id="path12-7" class="cls-6" d="M5.86,11.35l6.94,5.52c-.72,1.56-1.82,3-2.12,4.71,0,.33-.1.36-.25.05-1.51-2.37-3-4.64-4.48-7a8.07,8.07,0,0,1-.78-2.12Z"/></g></svg>