<svg id="Layer_1" data-name="Layer 1" xmlns="http://www.w3.org/2000/svg" xmlns:xlink="http://www.w3.org/1999/xlink" viewBox="0 0 42.52 42.52"><defs><style>.cls-1{fill:url(#linear-gradient);}.cls-2{fill:url(#linear-gradient-2);}</style><linearGradient id="linear-gradient" x1="-675.09" y1="109.77" x2="-645.1" y2="79.78" gradientTransform="matrix(1, 0, 0, -1, 680.19, 116.3)" gradientUnits="userSpaceOnUse"><stop offset="0" stop-color="#0b040c"/><stop offset="1" stop-color="#fff"/></linearGradient><linearGradient id="linear-gradient-2" x1="-643.75" y1="81.14" x2="-673.73" y2="111.13" xlink:href="#linear-gradient"/></defs><title>Artboard 13</title><path id="path7508" class="cls-1" d="M21.22,31.65c9.41,12.82,18.62-3.58,18.6-13.44C39.81,6.54,28,0,21.22,0A21.44,21.44,0,0,0,0,21.3C0,35,11.86,42.52,21.22,42.52,19.1,42.21,12.05,40.7,12,24.46c-.06-11,3.59-15.38,9.25-13.45.13.05,6.25,2.46,6.25,10.35A10.83,10.83,0,0,1,21.22,31.65Z"/><path id="path7510" class="cls-2" d="M21.21,11C15,8.86,7.38,14,7.38,24.24,7.38,41,19.8,42.52,21.3,42.52A21.44,21.44,0,0,0,42.52,21.25C42.52,7.59,30.66,0,21.3,0c2.59-.36,14,2.8,14,18.34,0,10.14-8.5,15.66-14,13.3C21.12,31.62,15,29.21,15,21.32A10.89,10.89,0,0,1,21.21,11Z"/></svg>