<svg id="Layer_1" data-name="Layer 1" xmlns="http://www.w3.org/2000/svg" viewBox="0 0 42.52 42.52"><defs><style>.cls-1{fill:red;}.cls-2{fill:#fff;}</style></defs><title>Artboard 65</title><rect class="cls-1" width="42.52" height="42.52" rx="6.99" ry="6.99"/><path class="cls-2" d="M2.83,21.74V20.11A1.43,1.43,0,0,0,4,19.67a3.32,3.32,0,0,0,.37-2A11.82,11.82,0,0,1,4.41,16a1.8,1.8,0,0,1,.41-.93,1.83,1.83,0,0,1,.85-.54,5,5,0,0,1,1.46-.16h.36V16c-.66,0-1,.07-1.18.21a1.24,1.24,0,0,0-.21.8c0,1.09-.06,1.8-.1,2.12a3.13,3.13,0,0,1-.3.94,2.5,2.5,0,0,1-.88.86,2.19,2.19,0,0,1,.88.88A3.4,3.4,0,0,1,6,23.28l.1,2a.64.64,0,0,0,.29.43,2.37,2.37,0,0,0,1.07.15v1.64H7.13a4.61,4.61,0,0,1-1.68-.25,1.61,1.61,0,0,1-.86-.82,4.47,4.47,0,0,1-.27-1.82,10.43,10.43,0,0,0-.09-1.78,1.67,1.67,0,0,0-.37-.71A1.35,1.35,0,0,0,2.83,21.74Z"/><path class="cls-2" d="M11.83,15.41v7.37q0,1.66,0,2.13a1.67,1.67,0,0,1-.32.86,1.42,1.42,0,0,1-.75.53,5.07,5.07,0,0,1-1.42.14H7.87V24.52l.37,0a.74.74,0,0,0,.49-.15.57.57,0,0,0,.2-.37,7.72,7.72,0,0,0,0-.85V15.41Z"/><path class="cls-2" d="M19,18.75H16.36v-.82a1.57,1.57,0,0,0-.11-.73.38.38,0,0,0-.34-.16.43.43,0,0,0-.39.22,1.2,1.2,0,0,0-.13.64,1.81,1.81,0,0,0,.15.83,2,2,0,0,0,.81.67,8.05,8.05,0,0,1,2.41,1.87,4.3,4.3,0,0,1,.5,2.35A4,4,0,0,1,19,25.36a2.16,2.16,0,0,1-1.06.94,4.26,4.26,0,0,1-1.84.38,4.12,4.12,0,0,1-2-.44A2.16,2.16,0,0,1,13,25.13a5.68,5.68,0,0,1-.25-1.92v-.72h2.67v1.34a1.71,1.71,0,0,0,.11.8.43.43,0,0,0,.4.18.46.46,0,0,0,.42-.23,1.2,1.2,0,0,0,.14-.66,2.15,2.15,0,0,0-.26-1.28,8.39,8.39,0,0,0-1.35-1,13.15,13.15,0,0,1-1.41-1,2.26,2.26,0,0,1-.58-.89,3.91,3.91,0,0,1-.23-1.44A4,4,0,0,1,13,16.42a2.13,2.13,0,0,1,1-.91,4.2,4.2,0,0,1,1.75-.33,4.54,4.54,0,0,1,1.9.36,2,2,0,0,1,1.05.91A4.79,4.79,0,0,1,19,18.31Z"/><path class="cls-2" d="M26.72,21.87c0,1.11,0,1.89-.08,2.36a2.65,2.65,0,0,1-.49,1.26,2.74,2.74,0,0,1-1.12.88,4.12,4.12,0,0,1-1.63.31,4.21,4.21,0,0,1-1.59-.29,2.7,2.7,0,0,1-1.14-.87,2.56,2.56,0,0,1-.51-1.26,22,22,0,0,1-.08-2.39V20a21.51,21.51,0,0,1,.08-2.35,2.58,2.58,0,0,1,.49-1.27,2.64,2.64,0,0,1,1.11-.88,4.14,4.14,0,0,1,1.64-.3,4,4,0,0,1,1.59.29,2.52,2.52,0,0,1,1.13.87,2.49,2.49,0,0,1,.51,1.26A21.09,21.09,0,0,1,26.72,20Zm-2.87-3.63a3.21,3.21,0,0,0-.09-1,.35.35,0,0,0-.35-.22.38.38,0,0,0-.34.18,2.42,2.42,0,0,0-.12,1V23.4A4.56,4.56,0,0,0,23,24.58a.34.34,0,0,0,.36.23.36.36,0,0,0,.38-.26,5.74,5.74,0,0,0,.08-1.23Z"/><path class="cls-2" d="M34.19,15.41v11H31.68l-1.49-5v5h-2.4v-11h2.4l1.61,5v-5Z"/><path class="cls-2" d="M39.68,21.74a1.45,1.45,0,0,0-1.12.45,3.27,3.27,0,0,0-.37,1.93,13.89,13.89,0,0,1-.08,1.72,1.8,1.8,0,0,1-.41.93,1.83,1.83,0,0,1-.85.54,5,5,0,0,1-1.46.17H35V25.84a2,2,0,0,0,1.16-.2,1.15,1.15,0,0,0,.23-.8,20.85,20.85,0,0,1,.12-2.24,2.68,2.68,0,0,1,.34-.92,2.12,2.12,0,0,1,.81-.75,2.91,2.91,0,0,1-.82-.75,2.38,2.38,0,0,1-.31-.8,12.44,12.44,0,0,1-.12-1.61,8.73,8.73,0,0,0-.1-1.35.51.51,0,0,0-.26-.29A2.67,2.67,0,0,0,35,16V14.38h.36a4.6,4.6,0,0,1,1.68.24,1.57,1.57,0,0,1,.86.82,4.53,4.53,0,0,1,.27,1.83,9.34,9.34,0,0,0,.1,1.82,1.91,1.91,0,0,0,.38.68,1.38,1.38,0,0,0,1,.34Z"/></svg>