<svg id="Layer_1" data-name="Layer 1" xmlns="http://www.w3.org/2000/svg" viewBox="0 0 42.52 42.52"><defs><style>.cls-1{fill:#e95420;}</style></defs><title>Artboard 18</title><path class="cls-1" d="M8.72,21.26a4,4,0,1,1-4-4A4,4,0,0,1,8.72,21.26ZM31.28,40.54a4,4,0,1,0,1.45-5.42A4,4,0,0,0,31.28,40.54ZM38.15,6A4,4,0,1,0,32.73,7.4,4,4,0,0,0,38.15,6ZM24.73,10A11.31,11.31,0,0,1,36,20.26l5.74-.09a16.94,16.94,0,0,0-5-11A5.57,5.57,0,0,1,29.2,4.82,17.16,17.16,0,0,0,17.17,6L20,11A11.36,11.36,0,0,1,24.73,10ZM13.42,21.26A11.27,11.27,0,0,1,18.23,12l-3-4.93a17.13,17.13,0,0,0-7,9.83,5.57,5.57,0,0,1,0,8.7,17.13,17.13,0,0,0,7,9.83l3-4.93A11.27,11.27,0,0,1,13.42,21.26ZM24.73,32.57A11.36,11.36,0,0,1,20,31.52l-2.79,5a17.16,17.16,0,0,0,12,1.17,5.57,5.57,0,0,1,7.52-4.35,17,17,0,0,0,5-11L36,22.26A11.31,11.31,0,0,1,24.73,32.57Z"/></svg>