<svg id="Layer_1" data-name="Layer 1" xmlns="http://www.w3.org/2000/svg" viewBox="0 0 42.52 42.52"><defs><style>.cls-1{fill:#fb7a24;}.cls-2{fill:#fff;}</style></defs><title>Artboard 36</title><path class="cls-1" d="M21.25-.17H37.8A6.76,6.76,0,0,1,39.85.1,3.52,3.52,0,0,1,42.35,3a8.27,8.27,0,0,1,.15,1.72c0,3.86,0,7.73,0,11.59q0,10.56,0,21.12A6.07,6.07,0,0,1,42,40.3a4.07,4.07,0,0,1-2.4,2.13,2,2,0,0,1-.63.14c-.48,0-.94.12-1.42.12q-16.22,0-32.42,0a6.51,6.51,0,0,1-2.61-.42A2.39,2.39,0,0,1,2,42,4.58,4.58,0,0,1,.07,38.82,14.52,14.52,0,0,1,0,37.34Q0,20.92,0,4.48a6.34,6.34,0,0,1,.2-1.89A3.65,3.65,0,0,1,3.56-.09,9.34,9.34,0,0,1,4.74-.16Z"/><path class="cls-2" d="M21.39,27.09a8.88,8.88,0,0,1-.47,2,7.7,7.7,0,0,1-6.55,5,7.7,7.7,0,0,1-8.27-5.5,10.42,10.42,0,0,1-.2-4,11.22,11.22,0,0,1,1.22-4,.44.44,0,0,0,0-.5,7.65,7.65,0,0,1-1.25-5,7.27,7.27,0,0,1,.75-2.74,7.85,7.85,0,0,1,7.83-4.31,8,8,0,0,1,6.84,6.37c0,.16.07.32.12.55.08-.43.14-.78.21-1.13a7.83,7.83,0,0,1,7.5-6A7.94,7.94,0,0,1,36.79,14a10.85,10.85,0,0,1,0,3.77,13.44,13.44,0,0,1-1.11,3.62.59.59,0,0,0,0,.67,7.8,7.8,0,0,1-4.6,11.74,7.77,7.77,0,0,1-9.34-5,9.69,9.69,0,0,1-.4-1.76Zm8.38-6a1.39,1.39,0,0,1,.31-.45,7.49,7.49,0,0,0,1.63-5.19,2.58,2.58,0,0,0-5.15.19V16a2.29,2.29,0,0,1-2.18,2.41c-.23,0-.46,0-.69,0H18.81a7.1,7.1,0,0,0-2.1.29,7.67,7.67,0,0,0-5.61,6.35,3.94,3.94,0,0,0,0,2,2.58,2.58,0,0,0,4.48,1,2.84,2.84,0,0,0,.63-1.82,2.42,2.42,0,0,1,2.63-2.61c2.43,0,4.86,0,7.3,0,.43,0,.43,0,.44.43,0,.79,0,1.58,0,2.37a2.58,2.58,0,0,0,5.14.12,27.55,27.55,0,0,0,0-3.4,2.12,2.12,0,0,0-1.34-1.86c-.19-.09-.39-.15-.6-.23ZM14.52,18.47H15.9c.21,0,.29-.09.29-.3,0-.82,0-1.64,0-2.46a2.44,2.44,0,0,0-1.65-2.25,2.48,2.48,0,0,0-2.77.59,2.54,2.54,0,0,0-.62,2.72A2.11,2.11,0,0,0,13,18.41,12.36,12.36,0,0,0,14.52,18.47Z"/></svg>