<svg id="Layer_1" data-name="Layer 1" xmlns="http://www.w3.org/2000/svg" viewBox="0 0 42.52 42.52"><defs><style>.cls-1{fill:red;}.cls-2{fill:#fff;}</style></defs><title>Artboard 64</title><rect class="cls-1" width="42.52" height="42.52" rx="6.99" ry="6.99"/><path class="cls-2" d="M9.54,24.77,2.83,22V20.55l6.71-2.8v1.84L5.4,21.26l4.14,1.66Z"/><path class="cls-2" d="M16.52,15.62l-1,5L17,26.9H14.33a33.62,33.62,0,0,1-.89-4.11c-.08.72-.18,1.47-.31,2.27l-.28,1.84H10l1.07-6.29-1.07-5h2.84c.05.31.15.83.3,1.55.13.56.23,1.06.31,1.53l.62-3.08Z"/><path class="cls-2" d="M26.51,15.62V26.9H24V19.28l-1,7.62H21.1L20,19.46V26.9H17.46V15.62h3.79c.12.68.23,1.48.35,2.4L22,20.89l.67-5.27Z"/><path class="cls-2" d="M30.62,15.62v9H32.4V26.9H27.69V15.62Z"/><path class="cls-2" d="M33,17.75l6.71,2.79V22L33,24.77V22.93l4.14-1.67L33,19.6Z"/></svg>