<svg id="Layer_1" data-name="Layer 1" xmlns="http://www.w3.org/2000/svg" xmlns:xlink="http://www.w3.org/1999/xlink" viewBox="0 0 42.52 42.52"><defs><style>.cls-1{fill:none;}.cls-2{clip-path:url(#clip-path);}.cls-3{fill:#060606;}.cls-4{fill:#f3ce8b;}.cls-5{fill:#d7ae6f;}.cls-6{fill:#dd1f2c;}.cls-7{fill:#931a26;}.cls-8{fill:#b27e30;}.cls-9{fill:#fff;}.cls-10{fill:#c78b2b;}.cls-11{fill:#ce9f62;}.cls-12{fill:#fbaf17;}.cls-13{fill:#4d1c0e;}</style><clipPath id="clip-path"><path class="cls-1" d="M34,9.15V9.1l1.09-5.51S32.61-2,24.41-1.36,15.2,1.21,13.86,3.47l.8,3.6-1.53,1s-.55-1.64-1.41-1.71c0,0,1.28-1.84.36-3.12S6.27,2.06,4.38,8.53c0,0-.25-2-1-2A3.26,3.26,0,0,0,.4,10.69c.79,3.05,3.55,4,4.46,4.35a1.6,1.6,0,0,1,.25,1.28c-.1.38-2.31,7.23-.46,13.57,1.37,4.74,5.81,8.85,5.81,8.85a18.7,18.7,0,0,0,12.94,5.2A19.06,19.06,0,0,0,34,9.15Z"/></clipPath></defs><title>Artboard 16</title><g class="cls-2"><path class="cls-3" d="M30.06,31.85s13.71,2.21,15.22,21.38A12.21,12.21,0,0,1,40.05,55s.23-14.75-10-23.12Z"/><circle class="cls-4" cx="15.92" cy="17.33" r="2.94"/><circle class="cls-4" cx="15.92" cy="17.33" r="2.94"/><path class="cls-4" d="M13,17.33a1.27,1.27,0,0,0,0,.27,3.18,3.18,0,0,0,.66-.37c1.39-.9,1.43-2,1.13-2.62A3,3,0,0,0,13,17.33Z"/><path class="cls-4" d="M14.41,15.9A1.43,1.43,0,1,1,13,17.33,1.43,1.43,0,0,1,14.41,15.9Z"/><path class="cls-5" d="M14.41,15.92a.5.5,0,0,0-.17,0,1.34,1.34,0,0,1,1,1.41,1.35,1.35,0,0,1-1,1.41h.17a1.43,1.43,0,0,0,0-2.85Z"/><path class="cls-4" d="M14.22,15.94l-.13,0A1.3,1.3,0,0,0,13,17.35,1.42,1.42,0,0,1,14.22,15.94ZM13,17.33a1.31,1.31,0,0,0,1.11,1.43.3.3,0,0,0,.13,0A1.42,1.42,0,0,1,13,17.33Z"/><circle class="cls-4" cx="33.13" cy="17.33" r="2.94"/><circle class="cls-4" cx="33.13" cy="17.33" r="2.94"/><path class="cls-4" d="M34.64,15.9a1.43,1.43,0,1,1-1.43,1.43A1.43,1.43,0,0,1,34.64,15.9Z"/><path class="cls-5" d="M33.83,17.33a1.34,1.34,0,0,1,1-1.41l-.17,0a1.43,1.43,0,1,0,0,2.86.5.5,0,0,0,.17,0A1.34,1.34,0,0,1,33.83,17.33Z"/><path class="cls-4" d="M36.07,17.33A1.31,1.31,0,0,0,35,15.9a.34.34,0,0,0-.14,0A1.45,1.45,0,0,1,36.07,17.33Zm-1.25,1.41.14,0a1.3,1.3,0,0,0,1.11-1.43A1.42,1.42,0,0,1,34.82,18.74ZM7.7,19.22s2.81.37,2.44-2.44c0,0,1,1.53,3.17.12s1-3.24.43-3.29-1.46-.73-3.6,1.46l-1.21-2.8,1.39-1.83s.2,2.64,2.23,1.89.51-5.24-1.31-5.24L8,9a6.58,6.58,0,0,1,3.29-3.1,1.65,1.65,0,0,0,.43-2.14c-.62-1.53-6.41-.44-7.32,7a3,3,0,0,1-.8-2.51c.23-1.52-3-1.09-2.37,2.19a5.13,5.13,0,0,0,3.78,4,4.46,4.46,0,0,1,.3,3.72s1.23,1.53,2.44,1.11Zm5.61-2.32c2.19-1.4,1-3.24.43-3.29a2.68,2.68,0,0,0-1.64,0l.71,1.48a1.83,1.83,0,0,1-2.5,1.58,1,1,0,0,1-.09.21C10.49,17.2,11.47,18.08,13.31,16.9ZM10.16,17c-.37.65-1.63,1.91-4.68.35a5,5,0,0,1-.22.8s1.21,1.52,2.44,1.09C7.7,19.22,10.37,19.57,10.16,17Zm.16-6.54s.2,2.64,2.23,1.89c.83-.3,1.06-1.24.93-2.24-.52.53-2.08,1.86-2.69-1L8,12.38,5.79,13.66,8.55,13l1.61,2.1L9,12.25l1.37-1.81ZM8.41,8.18a8,8,0,0,1,2.84-2.32,1.63,1.63,0,0,0,.43-2.14.26.26,0,0,0,0-.08,2.64,2.64,0,0,1-1,1.39c-1.13.78-5.16,3.59-3.88,7.82A5.27,5.27,0,0,1,8.41,8.18ZM4.3,10.69a2.9,2.9,0,0,1-.73-2.44c.1-.6-.35-.9-.88-.83C2.57,9.05,2.8,12.37,6,13.31A3.79,3.79,0,0,1,4.3,10.69Z"/><path class="cls-3" d="M5.26,18.13,7.7,19.22S5.51,31.29,17,31.79c0,0,.09,7.77-7,7.63C10,39.42.63,32,5.26,18.13Z"/><path class="cls-6" d="M8.18,25.78a3.18,3.18,0,0,0-.1-.33A8.86,8.86,0,0,1,4,26.34l0,.8a9.27,9.27,0,0,0,4.3-.95h0a2.91,2.91,0,0,1-.12-.35l-.05,0ZM9,27.5l-.16-.29a11.63,11.63,0,0,1-4.65,1c0,.3.08.6.13.88a9.68,9.68,0,0,0,4.86-1.26v0c-.06-.1-.11-.2-.18-.3v0Zm-3.7-9.37a23.33,23.33,0,0,0-1.16,5,4.44,4.44,0,0,0,3.47-.5,14.68,14.68,0,0,1,.13-3.45L5.26,18.13Z"/><path class="cls-3" d="M8.81,49.08,23.75,68.34s.58.21.83-.09V49.08Zm31.42,0L25.29,68.34s-.58.21-.83-.09V49.08ZM31.4,31.47H17.66C3,37.9,6.42,62.15,6.42,62.15H24.61V51.06l1,11.09h17S46,37.9,31.4,31.47Z"/><path class="cls-7" d="M43.74,54c-.2-5.21-1.25-11.9-4.77-16.93a17.33,17.33,0,0,0-8.91-5.25c10.22,8.37,10,23.12,10,23.12A10.74,10.74,0,0,0,43.74,54Z"/><path class="cls-6" d="M7,46.58c0,.21-.1.44-.13.66,4.05-1.49,10.44-2.46,17.64-2.46s13.62,1,17.65,2.46c0-.22-.08-.45-.13-.66C38,45.12,31.64,44.17,24.51,44.17S11.05,45.12,7,46.58Zm.82-3.07c-.07.19-.12.39-.19.59a57.38,57.38,0,0,1,16.9-2.19,57.38,57.38,0,0,1,16.9,2.19c-.07-.2-.12-.4-.18-.59a57.46,57.46,0,0,0-16.72-2.13A58,58,0,0,0,7.82,43.51Zm5.67-9.38a14.45,14.45,0,0,0-2.79,9l.85-.38a14.75,14.75,0,0,1,2.92-9.38c-.33.25-.66.52-1,.8Zm21.08-.8a14.65,14.65,0,0,1,2.92,9.38l.85.38a14.56,14.56,0,0,0-2.79-9,12.65,12.65,0,0,0-1-.8Zm-10,17.73,1,11.09h17A50.76,50.76,0,0,0,42.11,47l-.86-.28c1.42,3.9.76,14.43.76,14.43H26.54L25.08,44.77H23.9l-.15,16.35H7.22a60.83,60.83,0,0,1,.41-14.39l-.69.19a50.53,50.53,0,0,0-.52,15.23H24.61V51.06Z"/><path class="cls-4" d="M32.13,31a12.19,12.19,0,0,1-7.73,2.65c-5.71,0-7.49-2.65-7.49-2.65l-1-18.63H33.13Zm0,0a12.19,12.19,0,0,1-7.73,2.65c-5.71,0-7.49-2.65-7.49-2.65l-1-18.63H33.13Zm0,0a12.19,12.19,0,0,1-7.73,2.65c-5.71,0-7.49-2.65-7.49-2.65l-1-18.63H33.13Z"/><path class="cls-8" d="M26.71,15.52l.43-.55a8.33,8.33,0,0,1,3.93,1.2,4.34,4.34,0,0,0-4.31-1.41l.08-.47-.73,1.2a8.55,8.55,0,0,1,0,2.77H23a8.55,8.55,0,0,1,0-2.77l-.73-1.2.08.47A4.33,4.33,0,0,0,18,16.17,8.28,8.28,0,0,1,21.94,15l.43.55a3.59,3.59,0,0,1-2.79,1.79,2.8,2.8,0,0,0,2.81-1.06,10.1,10.1,0,0,0,.1,2.34l2.06,1.46h0l2.06-1.46a10.75,10.75,0,0,0,.1-2.34,2.79,2.79,0,0,0,2.8,1.06A3.57,3.57,0,0,1,26.71,15.52Z"/><path class="cls-3" d="M24.51,19.85c1.56,0,2.83.76,2.83,1.7s-1.27,1.69-2.83,1.69-2.82-.76-2.82-1.69S23,19.85,24.51,19.85Z"/><path class="cls-6" d="M24.51,23.32a4.11,4.11,0,0,0,1.71-.43,2.31,2.31,0,0,0-1.71-.6,2.44,2.44,0,0,0-1.71.6A4.23,4.23,0,0,0,24.51,23.32Z"/><path class="cls-9" d="M24.51,19.85c-1.56,0-2.82.77-2.82,1.7a.39.39,0,0,0,0,.15h5.63c0-.05,0-.1,0-.15C27.35,20.62,26.09,19.85,24.51,19.85Z"/><path class="cls-10" d="M24.51,24.33A4.21,4.21,0,0,1,23,24.05a2,2,0,0,0,3.12,0A4.14,4.14,0,0,1,24.51,24.33Zm0,5.05a7.32,7.32,0,0,1-2.65-.48,3.32,3.32,0,0,0,2.65,1.29,3.38,3.38,0,0,0,2.66-1.29A7.25,7.25,0,0,1,24.51,29.38Z"/><path class="cls-11" d="M16.07,15.4H33l.17-3.05H15.9Z"/><path class="cls-3" d="M33.18,12.33l1.51-8.74S32.42-.9,24.56-.9C15-.9,14.34,3.59,14.34,3.59l1.53,8.74Z"/><path class="cls-6" d="M15.22,8.58l.65,3.75H33.18l.65-3.75Z"/><path class="cls-3" d="M35.78,14.42H13.26l-.7-2.09H36.5Z"/><path class="cls-3" d="M24.51,7a2.79,2.79,0,1,1-2.78,2.78A2.78,2.78,0,0,1,24.51,7Z"/><path class="cls-6" d="M24.51,12.23A2.44,2.44,0,1,1,27,9.79,2.41,2.41,0,0,1,24.51,12.23Zm0-4.56a2.13,2.13,0,1,0,2.13,2.12,2.12,2.12,0,0,0-2.13-2.12Zm0,3.88a1.76,1.76,0,1,1,1.76-1.76A1.75,1.75,0,0,1,24.51,11.55Zm0-3.3A1.53,1.53,0,1,0,26,9.78a1.52,1.52,0,0,0-1.53-1.53Zm.45.91.8-.58-.61.78,1-.25-.85.52,1,.11-1,.17.9.46-1-.19.64.74L25,10.39l.33.93-.58-.8v1l-.25-1-.38.91.1-1-.68.71.44-.87-.89.41.74-.66-1,.06.93-.35-.95-.29h1L23,8.9l.91.36-.5-.84.72.68-.17-1,.43.89.2-1,.08,1,.55-.83Z"/><path class="cls-3" d="M25.05,9.79a.54.54,0,1,1-.54-.53A.54.54,0,0,1,25.05,9.79Z"/><path class="cls-6" d="M24.4,33.63c-5.71,0-7.49-2.66-7.49-2.66l.2,3.79s1.71,2.59,7.29,2.59a11.83,11.83,0,0,0,7.52-2.59l.21-3.8A12.21,12.21,0,0,1,24.4,33.63Z"/><path class="cls-3" d="M24.51,37.28a6.9,6.9,0,0,0,.22-1.81,6.68,6.68,0,0,0-.22-1.81,7.38,7.38,0,0,0-.21,1.81A7.26,7.26,0,0,0,24.51,37.28Z"/><path class="cls-7" d="M25.88,35.07a.52.52,0,1,1-.52.52A.51.51,0,0,1,25.88,35.07Z"/><path class="cls-9" d="M25.76,35a.52.52,0,0,1,0,1,.52.52,0,1,1,0-1Z"/><path class="cls-12" d="M26.37,40.68h-3.7a1.08,1.08,0,0,0-1.06,1.07v2.64a1.07,1.07,0,0,0,1.06,1.06h3.7a1.08,1.08,0,0,0,1.07-1.06V41.75A1.07,1.07,0,0,0,26.37,40.68Zm-.28,1.48V44a.2.2,0,0,1-.2.2H23.15A.2.2,0,0,1,23,44V42.16a.21.21,0,0,1,.2-.2h2.74A.2.2,0,0,1,26.09,42.16Z"/><path class="cls-10" d="M22.47,18.59l2,1.45,0,0,0,0,2-1.45Z"/><path class="cls-13" d="M24.51,19.72s-1.72-2.06-5.77-1l-6.13,6a8.24,8.24,0,0,0,5.66,1.19C21.73,25.45,24.55,21.76,24.51,19.72Zm0,0s1.73-2.06,5.78-1,6.13,6,6.13,6a8.24,8.24,0,0,1-5.66,1.19C27.3,25.45,24.5,21.76,24.51,19.72Z"/><path class="cls-6" d="M32.91,37.31h.37l-.65.78L32,37.31h.37V37H31v.34h.54l.89,1.12v.69H31.9v.35h1.43v-.35H32.8v-.69l.89-1.12h.53V37H32.86Z"/></g></svg>