<svg id="Layer_1" data-name="Layer 1" xmlns="http://www.w3.org/2000/svg" viewBox="0 0 42.52 42.52"><defs><style>.cls-1{fill:#464342;}</style></defs><title>Artboard 2</title><path class="cls-1" d="M3.5,21.26A18.23,18.23,0,0,0,13.78,37.67L5.08,13.84A18.21,18.21,0,0,0,3.5,21.26Z"/><path class="cls-1" d="M34.05,20.34a9.64,9.64,0,0,0-1.5-5c-.93-1.5-1.79-2.78-1.79-4.28A3.15,3.15,0,0,1,33.82,7.8h.24A18.24,18.24,0,0,0,6.5,11.24c.43,0,.83,0,1.18,0,1.9,0,4.86-.23,4.86-.23a.75.75,0,0,1,.11,1.5s-1,.12-2.08.18l6.64,19.75,4-12-2.84-7.78c-1-.06-1.92-.18-1.92-.18a.75.75,0,0,1,.12-1.5s3,.23,4.8.23S26.22,11,26.22,11a.75.75,0,0,1,.12,1.5s-1,.12-2.09.18l6.59,19.6,1.82-6.07A22.08,22.08,0,0,0,34.05,20.34Z"/><path class="cls-1" d="M22.06,22.85,16.59,38.76a18.23,18.23,0,0,0,11.21-.3,1,1,0,0,1-.13-.25Z"/><path class="cls-1" d="M37.74,12.51a13.65,13.65,0,0,1,.13,1.88,17.22,17.22,0,0,1-1.39,6.53L30.91,37a18.22,18.22,0,0,0,6.83-24.51Z"/><path class="cls-1" d="M21.74,0A21.26,21.26,0,1,0,43,21.26,21.29,21.29,0,0,0,21.74,0Zm0,41.54A20.28,20.28,0,1,1,42,21.26,20.31,20.31,0,0,1,21.74,41.54Z"/></svg>