<svg id="Layer_1" data-name="Layer 1" xmlns="http://www.w3.org/2000/svg" viewBox="0 0 42.52 42.52"><defs><style>.cls-1{fill:#00ac4e;}.cls-1,.cls-2,.cls-3{fill-rule:evenodd;}.cls-2{fill:#fff;}.cls-3{fill:#8ccc9b;}</style></defs><title>Artboard 41</title><polygon class="cls-1" points="-0.06 0 42.58 0 42.58 42.52 -0.06 42.52 -0.06 0 -0.06 0"/><path class="cls-2" d="M-.06,8c1.5,1.23,3.22,3.15,4.67,4.6l4.57,4.54L16,24c.9.9,1,1.39.55,2.1-1.11,1.71-2.26.44-3.25-.54-2-2-12.26-12.52-13.39-13.11v8.29a25.91,25.91,0,0,1,2.89,2.78l2.86,2.84c1.82,1.82,3.7,3.89,5.59,5.57a20.87,20.87,0,0,0,3.68,2c1.25.66,2.32,1.26,3.55,1.9,1.6.83,10.55,6.55,7.7.73L19.53,23.9,7.77,12.2C6.52,11,.83,5.12-.06,4.54V8Z"/><polygon class="cls-3" points="35.11 25.61 26.82 25.61 27.96 30.62 34 30.64 35.11 25.61 35.11 25.61"/><path class="cls-3" d="M14.06,0H12.62c1,3.7,4.36,9.2,6.22,12A75.07,75.07,0,0,0,26.93,22C22.74,16.58,15.5,5.85,14.06,0ZM31,0V22.83h-.1l-.88,0c-1.82-8-4.13-13.52-5.12-22.81ZM19.89,0h-4c1.26,5.38,8.2,18.45,12.89,22.36A87.31,87.31,0,0,1,19.89,0Z"/><path class="cls-3" d="M42.58,12.35A76,76,0,0,1,34.71,22,125.82,125.82,0,0,0,42.58,10.5v1.85ZM30.69,0V22.83h.1l.89,0C33.49,14.78,35.8,9.29,36.8,0ZM41.76,0h.82V8c-2.77,5.6-6.71,11.88-9.72,14.39A87.32,87.32,0,0,0,41.76,0Z"/></svg>