<svg id="Layer_1" data-name="Layer 1" xmlns="http://www.w3.org/2000/svg" viewBox="0 0 42.52 42.52"><defs><style>.cls-1{fill:#002b64;}.cls-2{fill:#fff;}</style></defs><title>Artboard 46</title><path class="cls-1" d="M41.59,7.14c-.66,0-.45.21-1.87.56S36.53,8,35,8.59c-4.61,1.94-5.54,8.54-9.73,10.91-3.13,1.77-6.29,1.91-9.13,2.8a16.72,16.72,0,0,0-5.6,3.25c-1.31,1.13-1.35,2.12-2.72,3.54S2,29.12,0,31.44c.64.65.92.83,2.17.66-.26.49-1.79.91-1.49,1.63S4.7,35,8.07,33c1.57-.95,2.82-2.31,5.26-2.64,3.16-.42,6.8.27,10.46.8a16.27,16.27,0,0,1-2.5,4c-.27.29.54.33,1.47.15a14.34,14.34,0,0,0,4.13-1.48c1.55-.9,1.78-3.21,3.68-3.71,1.06,1.63,3.93,2,5.72.71-1.57-.44-2-3.78-1.47-5.24s1-3.62,1.5-5.46.74-4.46,1.39-5.47a12.91,12.91,0,0,1,3-2.88A4.24,4.24,0,0,0,42.52,8.1c0-.63-.34-1-.93-1Z"/><path class="cls-2" d="M1.36,33.59a9.41,9.41,0,0,0,5.78-.83c1.64-.71,3.23-2.18,5.16-2.8,2.84-.91,6,0,9,.18a12.43,12.43,0,0,0,2.2,0c1.13-.7,1.11-3.3,2.21-3.54,0,3.66-1.53,5.84-3.09,8a8.85,8.85,0,0,0,6.6-5A18.36,18.36,0,0,0,30.28,27c.47.36.2,1.46.44,2.06C33,27.81,34.29,24.92,35.15,22c1-3.38,1.41-6.8,2.05-7.8A8.62,8.62,0,0,1,39.7,12a4,4,0,0,0,2.07-2.8c-1.07-.1-1.31-.35-1.47-.89a3.28,3.28,0,0,1-1.59.39c-.48,0-1,0-1.65.05-5.35.55-6,6.45-9.46,9.79a7.57,7.57,0,0,1-.81.69,17,17,0,0,1-4,2.05c-2.19.84-4.28.9-6.33,1.62A18.93,18.93,0,0,0,12.14,25c-.3.2-.59.42-.87.65A8.54,8.54,0,0,0,9.6,27.63,13.25,13.25,0,0,1,8,29.74c-1.13,1.11-5.38.32-6.88,1.36a1.21,1.21,0,0,0-.39.42c.82.37,1.36.14,2.3.24.13.89-1.93,1.42-1.63,1.83Zm32.41-6.41A7.76,7.76,0,0,0,35,30.72c-1,.25-2.8-.16-3.25-.89.23-1,1.44-2,2.06-2.65Z"/><path class="cls-1" d="M35.28,11a1.26,1.26,0,0,0,2.06-1.18C36.16,9.68,35.48,10.08,35.28,11Zm5.28-1.53a4,4,0,0,0-.59,2c0,.19-.14.31-.14,0a4,4,0,0,1,.58-2.1c.14-.25.22-.15.15,0Z"/><path class="cls-1" d="M40.35,9.27a5,5,0,0,0-.9,2.21c0,.18-.17.3-.14,0a5,5,0,0,1,.9-2.27C40.37,9,40.45,9.1,40.35,9.27Zm-.18-.21a5.79,5.79,0,0,0-1.34,2.32c0,.18-.19.29-.14,0A6,6,0,0,1,40,9C40.21,8.78,40.27,8.9,40.17,9.06ZM40,8.82a8,8,0,0,0-1.7,2.49c-.06.18-.23.26-.14,0a7.72,7.72,0,0,1,1.72-2.54C40.08,8.56,40.13,8.68,40,8.82Z"/></svg>