<svg id="Layer_1" data-name="Layer 1" xmlns="http://www.w3.org/2000/svg" viewBox="0 0 42.52 42.52"><defs><style>.cls-1{fill:#687e91;fill-rule:evenodd;}</style></defs><title>Artboard 38</title><path class="cls-1" d="M39.17,32.67a13.66,13.66,0,0,0-5.62.81c-.43.18-1.12.18-1.18.73.23.23.26.6.46.92a6.92,6.92,0,0,0,1.51,1.77c.6.46,1.21.92,1.85,1.32,1.12.7,2.4,1.1,3.49,1.8.64.4,1.28.92,1.92,1.36.31.23.51.61.92.75V42c-.2-.26-.26-.63-.46-.92s-.58-.55-.87-.84a13.66,13.66,0,0,0-3-2.92c-.92-.64-3-1.51-3.32-2.57l-.06-.06a11.29,11.29,0,0,0,2-.47c1-.26,1.88-.2,2.89-.46.47-.12.93-.26,1.4-.4v-.26c-.53-.52-.9-1.22-1.45-1.71a38.91,38.91,0,0,0-4.77-3.56c-.9-.58-2.06-.95-3-1.44-.35-.18-.93-.26-1.13-.55a12.18,12.18,0,0,1-1.19-2.23c-.83-1.59-1.64-3.35-2.37-5a29.77,29.77,0,0,0-1.47-3.3A29.13,29.13,0,0,0,14.5,4.51a14,14,0,0,0-3.7-1.19c-.73,0-1.45-.09-2.17-.12a10.33,10.33,0,0,1-1.33-1c-1.65-1-5.9-3.3-7.12-.32C-.6,3.75,1.34,5.6,2,6.56A13.2,13.2,0,0,1,3.48,8.73c.2.49.26,1,.46,1.53a34.26,34.26,0,0,0,1.51,3.88,14,14,0,0,0,1.06,1.79c.24.32.64.46.73,1a8.1,8.1,0,0,0-.67,2.17,12.77,12.77,0,0,0,.84,9.72c.46.72,1.56,2.31,3,1.7,1.3-.52,1-2.17,1.39-3.61.08-.35,0-.58.2-.81v.06c.4.81.81,1.59,1.18,2.4A16.5,16.5,0,0,0,17,32.41c.69.52,1.24,1.42,2.1,1.74v-.09H19a3.37,3.37,0,0,0-.67-.58,13.47,13.47,0,0,1-1.5-1.73,36.46,36.46,0,0,1-3.24-5.27c-.46-.89-.87-1.88-1.24-2.77-.18-.35-.18-.87-.47-1a10.41,10.41,0,0,0-1.38,2A16.64,16.64,0,0,0,9.72,29c-.11,0-.05,0-.11.06-.92-.23-1.24-1.19-1.59-2a12.5,12.5,0,0,1-.26-7.72c.2-.61,1.07-2.51.72-3.09-.17-.55-.75-.87-1.07-1.31a11.56,11.56,0,0,1-1-1.85c-.69-1.61-1-3.41-1.79-5A15.65,15.65,0,0,0,3.13,5.84,15,15,0,0,1,1.54,3.58c-.14-.32-.35-.84-.11-1.18.05-.24.17-.32.4-.38.38-.32,1.45.08,1.82.26A14.72,14.72,0,0,1,6.51,3.72c.41.29.84.84,1.36,1h.61c.93.2,2,0,2.84.32a18.39,18.39,0,0,1,4.16,2,25.68,25.68,0,0,1,9,9.89c.35.67.5,1.27.81,2,.61,1.42,1.36,2.86,2,4.25a19.6,19.6,0,0,0,2,3.88c.44.6,2.17.92,3,1.24a19.88,19.88,0,0,1,2,.81c1,.6,2,1.3,2.89,2,.46.35,1.91,1.07,2,1.65"/><path class="cls-1" d="M9.67,7.54a4.48,4.48,0,0,0-1.19.15v0h.06a9.17,9.17,0,0,0,.92,1.19c.24.46.44.92.67,1.39l.06-.06a1.65,1.65,0,0,0,.61-1.45,4.66,4.66,0,0,1-.35-.6c-.17-.29-.55-.44-.78-.67"/></svg>