<svg id="Layer_1" data-name="Layer 1" xmlns="http://www.w3.org/2000/svg" viewBox="0 0 42.52 42.52"><defs><style>.cls-1{fill:#fff;}.cls-2{fill:#15688e;}.cls-3{fill:#0b040c;}</style></defs><title>Artboard 39</title><path class="cls-1" d="M25.25,1.92a15.73,15.73,0,0,1,8.68-.32,10.73,10.73,0,0,1,5.75,3.85,4.82,4.82,0,0,1,.75,2.72,19.47,19.47,0,0,1-.62,5,40.49,40.49,0,0,1-5.25,12.08,7.22,7.22,0,0,0,4.17,0c.57-.11,1.3-.24,1.73.25s0,1.24-.41,1.64a8.87,8.87,0,0,1-7.64,2c-.27,2.37-.55,4.74-.92,7.11a5.94,5.94,0,0,1-1.68,3.6,7.17,7.17,0,0,1-3.49,1.45,4.42,4.42,0,0,1-3.69-.83,5.69,5.69,0,0,1-1.79-3.71,61.13,61.13,0,0,1-.27-7.16A5.75,5.75,0,0,1,16.4,31a4.71,4.71,0,0,1-3-1,1,1,0,0,1,.08-1.51c.85-.65,2-.6,2.94-1,.72-.21,1.09-.91,1.54-1.44a6.38,6.38,0,0,1-2.39-.64q-1.72,1.83-3.33,3.77a3,3,0,0,1-2.55,1.25A4.09,4.09,0,0,1,7,28.5,23.76,23.76,0,0,1,4.3,22.55,59.41,59.41,0,0,1,1.9,12.38c-.25-2.6,0-5.44,1.47-7.66a7.39,7.39,0,0,1,5.39-3A18.9,18.9,0,0,1,17,3a10,10,0,0,1,7.53-1.16A2.23,2.23,0,0,0,25.25,1.92Zm2.06.72c.55.38,1.16.64,1.71,1a14.48,14.48,0,0,1,5.1,6.15,4.93,4.93,0,0,1,.56,2.25c0,1.62-.54,3.2-.38,4.82a15,15,0,0,1,.09,5.18,10.42,10.42,0,0,1-.66,1.71c0,.09.05.25.07.33a9.43,9.43,0,0,0,.56-.84,38.73,38.73,0,0,0,4-9.45,20.46,20.46,0,0,0,.84-5.49,3.83,3.83,0,0,0-.61-2.27,9.51,9.51,0,0,0-4.07-3A13,13,0,0,0,27.31,2.64Zm-6.64.22A6.81,6.81,0,0,0,16.15,5.5a12.75,12.75,0,0,0-2.29,6.78,7.28,7.28,0,0,1,4.77-.92,3,3,0,0,1,2.11,2.24A15.13,15.13,0,0,1,21,20.09c-.37,1.73-1.42,3.22-1.77,4.95a3.25,3.25,0,0,1,1.31.29,2.53,2.53,0,0,1,1.24,2.33c-.06,2.36-.06,4.72.07,7.07a15.85,15.85,0,0,0,.35,2.92,3.36,3.36,0,0,0,2.39,2.5,6.41,6.41,0,0,0,3.83-.76,4,4,0,0,0,1.84-3.08c.41-2.52.7-5.05,1-7.58A6.5,6.5,0,0,1,31.71,26a2.83,2.83,0,0,1,1.36-1,13.91,13.91,0,0,1-1.2-1.68c-1.26-2.59-3-5-3.48-7.92a3.61,3.61,0,0,1,.91-3.5c1.1-1,2.65-.89,4-.85A13.3,13.3,0,0,0,29,5.14,11.38,11.38,0,0,0,20.67,2.86Zm-12.53.2a5.82,5.82,0,0,0-4,2.71,10.89,10.89,0,0,0-1,6.46A58.1,58.1,0,0,0,5,20.67a28,28,0,0,0,2.81,6.79,3.8,3.8,0,0,0,1.9,1.75c.74.16,1.33-.45,1.76-1,1-1.21,2.07-2.35,3.09-3.54a6.26,6.26,0,0,1-2-5.43,24.17,24.17,0,0,0,.16-4.66,17,17,0,0,1,.83-6.53A11.63,11.63,0,0,1,16,3.86,16.4,16.4,0,0,0,8.14,3.06Zm22,9.69a2.52,2.52,0,0,0-.56,2.53c.54,2.68,2.11,5,3.32,7.4.91-1.82.35-3.88.21-5.8a35.21,35.21,0,0,1,.37-4.59A5.05,5.05,0,0,0,30.14,12.75Zm-16.32,1c0,1.29.11,2.58,0,3.87A13.16,13.16,0,0,0,13.73,21,4.56,4.56,0,0,0,18,24.82a24.85,24.85,0,0,1,1.11-3c1.28-2.51,1.07-5.45.41-8.1a1.79,1.79,0,0,0-1.64-1.31A7,7,0,0,0,13.82,13.74ZM32.89,26.45a1.86,1.86,0,0,0-.37,1.45,6.35,6.35,0,0,0,2.71.16A6.33,6.33,0,0,0,39,26.48c-1.64.2-3.43.59-5-.22A1,1,0,0,0,32.89,26.45ZM17.37,28.34c-.91.54-2,.51-3,.95a4.8,4.8,0,0,0,5.91-1.17,1.12,1.12,0,0,0-.87-1.84C18.61,26.82,18.26,27.86,17.37,28.34Z"/><path class="cls-1" d="M30.5,13.11A1.92,1.92,0,0,1,32.4,13a1.11,1.11,0,0,1-1.6.92C30.52,13.76,30.18,13.37,30.5,13.11Z"/><path class="cls-1" d="M17.21,13.15a2,2,0,0,1,1.72.3c.33.27,0,.71-.26.87a1.2,1.2,0,0,1-1.8-.75C16.83,13.34,17,13.22,17.21,13.15Z"/><path class="cls-2" d="M27.31,2.64a13,13,0,0,1,7.26.42,9.51,9.51,0,0,1,4.07,3,3.83,3.83,0,0,1,.61,2.27,20.46,20.46,0,0,1-.84,5.49,38.73,38.73,0,0,1-4,9.45,9.43,9.43,0,0,1-.56.84c0-.08,0-.24-.07-.33a10.42,10.42,0,0,0,.66-1.71,15,15,0,0,0-.09-5.18c-.16-1.62.39-3.2.38-4.82a4.93,4.93,0,0,0-.56-2.25A14.48,14.48,0,0,0,29,3.66C28.47,3.28,27.86,3,27.31,2.64Z"/><path class="cls-2" d="M20.67,2.86A11.38,11.38,0,0,1,29,5.14a13.3,13.3,0,0,1,4.28,5.91c-1.37,0-2.92-.1-4,.85a3.61,3.61,0,0,0-.91,3.5c.52,2.88,2.22,5.33,3.48,7.92A13.91,13.91,0,0,0,33.07,25a2.83,2.83,0,0,0-1.36,1,6.5,6.5,0,0,0-.45,2.71c-.29,2.53-.58,5.06-1,7.58a4,4,0,0,1-1.84,3.08,6.41,6.41,0,0,1-3.83.76,3.36,3.36,0,0,1-2.39-2.5,15.85,15.85,0,0,1-.35-2.92c-.13-2.35-.13-4.71-.07-7.07a2.53,2.53,0,0,0-1.24-2.33A3.25,3.25,0,0,0,19.24,25c.35-1.73,1.4-3.22,1.77-4.95a15.13,15.13,0,0,0-.27-6.49,3,3,0,0,0-2.11-2.24,7.28,7.28,0,0,0-4.77.92A12.75,12.75,0,0,1,16.15,5.5,6.81,6.81,0,0,1,20.67,2.86Z"/><path class="cls-2" d="M8.14,3.06a16.4,16.4,0,0,1,7.82.8,11.63,11.63,0,0,0-2.48,4.22,17,17,0,0,0-.83,6.53,24.17,24.17,0,0,1-.16,4.66,6.26,6.26,0,0,0,2,5.43c-1,1.19-2.1,2.33-3.09,3.54-.43.52-1,1.13-1.76,1a3.8,3.8,0,0,1-1.9-1.75A28,28,0,0,1,5,20.67a58.1,58.1,0,0,1-1.88-8.44,10.89,10.89,0,0,1,1-6.46A5.82,5.82,0,0,1,8.14,3.06Z"/><path class="cls-2" d="M30.14,12.75a5.05,5.05,0,0,1,3.34-.46,35.21,35.21,0,0,0-.37,4.59c.14,1.92.7,4-.21,5.8-1.21-2.41-2.78-4.72-3.32-7.4A2.52,2.52,0,0,1,30.14,12.75Zm.36.36c-.32.26,0,.65.3.78A1.11,1.11,0,0,0,32.4,13,1.92,1.92,0,0,0,30.5,13.11Z"/><path class="cls-2" d="M13.82,13.74a7,7,0,0,1,4.08-1.31,1.79,1.79,0,0,1,1.64,1.31c.66,2.65.87,5.59-.41,8.1a24.85,24.85,0,0,0-1.11,3A4.56,4.56,0,0,1,13.73,21a13.16,13.16,0,0,1,.11-3.43C13.93,16.32,13.84,15,13.82,13.74Zm3.39-.59c-.19.07-.38.19-.34.42a1.2,1.2,0,0,0,1.8.75c.29-.16.59-.6.26-.87A2,2,0,0,0,17.21,13.15Z"/><path class="cls-2" d="M32.89,26.45A1,1,0,0,1,34,26.26c1.54.81,3.33.42,5,.22a6.33,6.33,0,0,1-3.75,1.58,6.35,6.35,0,0,1-2.71-.16A1.86,1.86,0,0,1,32.89,26.45Z"/><path class="cls-2" d="M17.37,28.34c.89-.48,1.24-1.52,2.07-2.06a1.12,1.12,0,0,1,.87,1.84,4.8,4.8,0,0,1-5.91,1.17C15.35,28.85,16.46,28.88,17.37,28.34Z"/><path class="cls-3" d="M25.26.71A18,18,0,0,1,33.15.25a12.12,12.12,0,0,1,6.37,3.26,6.16,6.16,0,0,1,1.83,2.67,13.24,13.24,0,0,1,0,5.64,40.05,40.05,0,0,1-4.83,12.61c1,0,2-.32,3-.39a2.19,2.19,0,0,1,2.28,1.54,2.78,2.78,0,0,1-1.16,2.75,10.1,10.1,0,0,1-7.36,2.22c-.16,2.69-.21,5.48-1.35,8a6.22,6.22,0,0,1-2.35,2.75,9.7,9.7,0,0,1-3.32,1.14,5.14,5.14,0,0,1-3.72-.62,5.15,5.15,0,0,1-2-2.82c-.89-2.31-.8-4.84-.91-7.28a8.05,8.05,0,0,1-5.56.1,4.62,4.62,0,0,1-1.66-1.06,3.75,3.75,0,0,1-3.36.82,6.15,6.15,0,0,1-3.36-2.93,31.16,31.16,0,0,1-3-7.34A57.92,57.92,0,0,1,.73,12.37,13,13,0,0,1,2.2,4.46,8.15,8.15,0,0,1,7.6.83a18.73,18.73,0,0,1,9.26.91,12.08,12.08,0,0,1,3-1.08A16.44,16.44,0,0,1,25.26.71ZM16.39,27.48c-1,.37-2.09.32-2.94,1A1,1,0,0,0,13.37,30a4.71,4.71,0,0,0,3,1,5.75,5.75,0,0,0,4.17-1.37,61.13,61.13,0,0,0,.27,7.16,5.69,5.69,0,0,0,1.79,3.71,4.42,4.42,0,0,0,3.69.83,7.17,7.17,0,0,0,3.49-1.45,5.94,5.94,0,0,0,1.68-3.6c.37-2.37.65-4.74.92-7.11a8.87,8.87,0,0,0,7.64-2c.43-.4.83-1.09.41-1.64s-1.16-.36-1.73-.25a7.22,7.22,0,0,1-4.17,0,40.49,40.49,0,0,0,5.25-12.08,19.47,19.47,0,0,0,.62-5,4.82,4.82,0,0,0-.75-2.72A10.73,10.73,0,0,0,33.93,1.6a15.73,15.73,0,0,0-8.68.32,2.23,2.23,0,0,1-.68-.09A10,10,0,0,0,17,3,18.9,18.9,0,0,0,8.76,1.76a7.39,7.39,0,0,0-5.39,3C1.86,6.94,1.65,9.78,1.9,12.38A59.41,59.41,0,0,0,4.3,22.55,23.76,23.76,0,0,0,7,28.5a4.09,4.09,0,0,0,2.63,1.92,3,3,0,0,0,2.55-1.25q1.6-1.94,3.33-3.77"/></svg>