<svg id="Layer_1" data-name="Layer 1" xmlns="http://www.w3.org/2000/svg" xmlns:xlink="http://www.w3.org/1999/xlink" viewBox="0 0 42.52 42.52"><defs><style>.cls-1{fill:#0f80cc;}.cls-2{fill:url(#linear-gradient);}.cls-3{fill:#003b57;}</style><linearGradient id="linear-gradient" x1="218.08" y1="75.2" x2="218.08" y2="75.03" gradientTransform="matrix(147.77, 0, 0, -156.03, -32208.7, 11737.41)" gradientUnits="userSpaceOnUse"><stop offset="0" stop-color="#97d9f6"/><stop offset="0.92" stop-color="#0f80cc"/><stop offset="1" stop-color="#0f80cc"/></linearGradient></defs><title>Artboard 42</title><path class="cls-1" d="M32.18,1.89H5.5A3.26,3.26,0,0,0,2.25,5.14V34.56A3.26,3.26,0,0,0,5.5,37.81H23.07c-.2-8.74,2.79-25.71,9.11-35.92Z"/><path class="cls-2" d="M31.21,2.84H5.5a2.3,2.3,0,0,0-2.3,2.3V32.41C9,30.18,17.76,28.25,23.8,28.34a189.11,189.11,0,0,1,7.41-25.5Z"/><path class="cls-3" d="M38.41.92c-1.83-1.63-4-1-6.23,1a12.29,12.29,0,0,0-1,1c-3.73,4-7.2,11.3-8.28,16.9a15.79,15.79,0,0,1,1,2.77l.14.58c.1.4.15.66.15.66L24,23.23c0-.08-.06-.16-.09-.26l-.06-.14c-.24-.57-.92-1.76-1.22-2.28-.25.75-.47,1.45-.66,2.08a18.31,18.31,0,0,1,1.38,4.25s-.05-.17-.26-.78a28.23,28.23,0,0,0-1.37-2.59,6,6,0,0,0-.4,2.61,9.51,9.51,0,0,1,.75,2.1c.5,2,.86,4.33.86,4.33s0,.15,0,.39a41.21,41.21,0,0,0,.09,4.87A17.42,17.42,0,0,0,24,42.52l.27-.15a21,21,0,0,1-.72-7,53.42,53.42,0,0,1,2.94-14.71C29.5,12.57,33.74,6.1,37.61,3,34.08,6.2,29.3,16.53,27.87,20.35A69.09,69.09,0,0,0,24.45,32.5c1.18-3.61,5-5.16,5-5.16s1.87-2.31,4.06-5.61a37.74,37.74,0,0,0-4.19,1.12c-1.06.44-1.35.59-1.35.59a36.81,36.81,0,0,1,6.4-3c4.07-6.4,8.49-15.5,4-19.48"/></svg>